<svg width="83" height="71" viewBox="0 0 83 71" xmlns="http://www.w3.org/2000/svg"><title>banana</title><g fill="none" fill-rule="evenodd"><path d="M13.424 10.38c-1.338 3.81-9.142 31.523 38.34 48.788.147.06.317.103.487.146 1.233.27 6.995 1.978-.328 8.46-7.722 6.813-30.11-3.726-32.49-4.86a1.645 1.645 0 0 1-.4-.232c-2.72-1.786-32.21-22.277-11.26-54.52.898-1.377 2.27-2.374 3.687-2.584 1.398-.213 2.743.366 2.254 3.71-.07.36-.16.72-.29 1.09z" fill="#D7E02B"/><path d="M9.253 6.536A6.658 6.658 0 0 0 7.756 8.14c-20.952 32.243 8.543 52.715 11.26 54.52.127.077.272.156.4.232 2.378 1.154 24.765 11.693 32.49 4.86C-10.947 50.94 9.252 6.535 9.252 6.535z" fill="#C4CC27"/><path d="M52.253 59.295l-.038-.005c-.078 2.642.137 5.286.838 7.393 5.537-5.6.356-7.128-.8-7.388zM12.858 8.837l-4.16-.312C7.307 8.427 6.463 7.06 6.836 5.513l.255-1.115c.354-1.55 1.772-2.735 3.166-2.637l4.16.313c1.393.098 2.237 1.465 1.863 3.012L16.023 6.2c-.354 1.55-1.772 2.735-3.166 2.637z" fill="#3B2D13"/><g><path d="M14.746 9.59c-.156 4.035.47 32.816 50.918 35.517.175.005.33.008.51-.006 1.263-.095 7.272-.147 2.152 8.184-5.378 8.782-29.878 5.202-32.498 4.795a3.767 3.767 0 0 1-.455-.104C32.258 57.05-1.95 46.04 8.68 9.088c.455-1.574 1.464-2.915 2.765-3.55 1.28-.62 2.72-.438 3.25 2.894.04.396.067.77.05 1.158z" fill="#D7E02B"/><path d="M9.618 7.133a6.945 6.945 0 0 0-.96 1.972C-1.95 46.04 32.254 57.07 35.37 57.995c.15.04.3.082.455.103 2.62.408 27.1 3.985 32.5-4.795C3.292 55.477 9.617 7.133 9.617 7.133z" fill="#C4CC27"/><path d="M66.173 45.1l-.04-.005c.717 2.56 1.662 5.013 2.97 6.835 3.656-6.957-1.745-6.916-2.93-6.83z" fill="#3B2D13"/></g><g><path d="M16.016 8.07c1.362 3.8 12.733 30.27 60.538 13.932.164-.055.31-.113.457-.19 1.136-.562 6.676-2.845 5.067 6.798-1.702 10.158-25.764 15.983-28.33 16.578-.142.038-.3.055-.46.072-3.23.307-39.068 2.858-43.08-35.372-.162-1.622.264-3.26 1.233-4.313.947-1.037 2.37-1.422 4.094 1.473.192.3.357.655.482 1.023z" fill="#D7E02B"/><path d="M10.34 7.703a6.44 6.44 0 0 0-.15 2.183c4.01 38.23 39.85 35.678 43.078 35.37.16-.016.3-.035.46-.07 2.566-.596 26.63-6.44 28.33-16.578C22.607 54.914 10.34 7.703 10.34 7.703z" fill="#C4CC27"/><path d="M77.01 21.813c-.018-.003-.02.016-.04.013 1.62 2.1 3.42 4.03 5.305 5.232.79-7.847-4.192-5.777-5.264-5.245zM14.61 7.23l-3.44 2.364c-1.15.795-2.66.27-3.355-1.173l-.5-1.026c-.7-1.424-.346-3.247.8-4.04L11.54.985c1.148-.795 2.657-.27 3.354 1.173l.5 1.025c.72 1.428.346 3.248-.783 4.045z" fill="#3B2D13"/></g><path d="M14.264 8.157l-4.058.912c-1.35.297-2.553-.75-2.664-2.326l-.074-1.142c-.108-1.595.91-3.13 2.263-3.446l4.06-.913c1.35-.297 2.552.75 2.663 2.325l.074 1.142c.108 1.595-.912 3.15-2.263 3.447z" fill="#3B2D13"/></g></svg>