<svg xmlns="http://www.w3.org/2000/svg" xmlns:xlink="http://www.w3.org/1999/xlink" width="48" height="45" viewBox="0 0 48 45"><defs><path id="a" d="M48 23c0 12.2-10.7 22-24 22S0 35.2 0 23C0 9 10.7 0 24 0s24 9 24 23z"/></defs><use xlink:href="#a" overflow="visible" fill-rule="evenodd" clip-rule="evenodd" fill="#bcd676"/><clipPath id="b"><use xlink:href="#a" overflow="visible"/></clipPath><path d="M19 0c4 0 9 3 15 11l12-6V0H19z" opacity=".2" clip-path="url(#b)" fill-rule="evenodd" clip-rule="evenodd" fill="#006838"/><path d="M6.5 6L6 0h42v45H24.2c3.6-4.1 5.8-9.6 5.8-15.5C30 16.5 19.5 6 6.5 6z" opacity=".15" clip-path="url(#b)" fill-rule="evenodd" clip-rule="evenodd" fill="#006838"/><path d="M47.1 6.7l-20 11.5s-6.3-.3-4.8-2.6C26.9 8.9 34.2 4.1 40.8 4.1c4 0 6.3 2.6 6.3 2.6z" fill-rule="evenodd" clip-rule="evenodd" fill="#bcd676"/><g fill-rule="evenodd" clip-rule="evenodd"><path d="M.9 6.7L29.1 23C26.1 12.6 16 4.1 7.2 4.1 3.2 4.1.9 6.7.9 6.7z" fill="#bcd676"/><path d="M.9 6.7L29.1 23C26.1 12.6 16 4.1 7.2 4.1 3.2 4.1.9 6.7.9 6.7z" opacity=".5" fill="#FFF"/></g></svg>