<svg xmlns="http://www.w3.org/2000/svg" width="45.2" height="57.3" viewBox="0 0 45.2 57.3"><path fill="#80B34F" d="M12.6 52.9c-2.2 3.7-6 5.6-9.6 3.5-3.6-2.1-3.9-6.3-1.7-10s6-5.6 9.6-3.5c3.6 2 3.9 6.3 1.7 10z"/><path fill="#80B34F" d="M23 46.9c-2.2 3.7-6 5.6-9.6 3.5-3.6-2.1-3.9-6.3-1.7-10s6-5.6 9.6-3.5c3.6 2 3.9 6.3 1.7 10z"/><path opacity=".5" fill="#BCD676" d="M23 46.9c-2.2 3.7-6 5.6-9.6 3.5-3.6-2.1-3.9-6.3-1.7-10s6-5.6 9.6-3.5c3.6 2 3.9 6.3 1.7 10z"/><path fill="#80B34F" d="M33.4 40.9c-2.2 3.7-6 5.6-9.6 3.5-3.6-2.1-3.9-6.3-1.7-10s6-5.6 9.6-3.5c3.6 2 3.9 6.3 1.7 10z"/><path fill="#80B34F" d="M43.8 34.9c-2.2 3.7-6 5.6-9.6 3.5-3.6-2.1-3.9-6.3-1.7-10s6-5.6 9.6-3.5c3.6 2 3.9 6.3 1.7 10z"/><path opacity=".5" fill="#BCD676" d="M43.8 34.9c-2.2 3.7-6 5.6-9.6 3.5-3.6-2.1-3.9-6.3-1.7-10s6-5.6 9.6-3.5c3.6 2 3.9 6.3 1.7 10z"/><path fill="#80B34F" d="M43.8 22.9c-2.2 3.7-6 5.6-9.6 3.5-3.6-2.1-3.9-6.3-1.7-10s6-5.6 9.6-3.5c3.6 2 3.9 6.3 1.7 10z"/><path fill="#BCD676" d="M12.6 40.9c-2.2 3.7-6 5.6-9.6 3.5-3.6-2.1-3.9-6.3-1.7-10s6-5.6 9.6-3.5c3.6 2 3.9 6.3 1.7 10z"/><path fill="#80B34F" d="M23 34.9c-2.2 3.7-6 5.6-9.6 3.5-3.6-2.1-3.9-6.3-1.7-10s6-5.6 9.6-3.5c3.6 2 3.9 6.3 1.7 10z"/><path opacity=".5" fill="#BCD676" d="M23 34.9c-2.2 3.7-6 5.6-9.6 3.5-3.6-2.1-3.9-6.3-1.7-10s6-5.6 9.6-3.5c3.6 2 3.9 6.3 1.7 10z"/><path fill="#BCD676" d="M12.6 28.9c-2.2 3.7-6 5.6-9.6 3.5-3.6-2.1-3.9-6.3-1.7-10s6-5.6 9.6-3.5c3.6 2 3.9 6.3 1.7 10zM33.4 28.9c-2.2 3.7-6 5.6-9.6 3.5-3.6-2.1-3.9-6.3-1.7-10s6-5.6 9.6-3.5c3.6 2 3.9 6.3 1.7 10z"/><path fill="#BCD676" d="M12.6 16.9c-2.2 3.7-6 5.6-9.6 3.5-3.6-2.1-3.9-6.3-1.7-10s6-5.6 9.6-3.5c3.6 2 3.9 6.3 1.7 10zM33.4 16.9c-2.2 3.7-6 5.6-9.6 3.5-3.6-2.1-3.9-6.3-1.7-10s6-5.6 9.6-3.5c3.6 2 3.9 6.3 1.7 10z"/><path fill="#BCD676" d="M23 10.9c-2.2 3.7-6 5.6-9.6 3.5-3.6-2.1-3.9-6.3-1.7-10s6-5.6 9.6-3.5c3.6 2 3.9 6.3 1.7 10z"/><g><path fill="#BCD676" d="M23 22.9c-2.2 3.7-6 5.6-9.6 3.5-3.6-2.1-3.9-6.3-1.7-10s6-5.6 9.6-3.5c3.6 2 3.9 6.3 1.7 10z"/><path opacity=".3" fill="#FFF" d="M23 22.9c-2.2 3.7-6 5.6-9.6 3.5-3.6-2.1-3.9-6.3-1.7-10s6-5.6 9.6-3.5c3.6 2 3.9 6.3 1.7 10z"/></g></svg>