<svg xmlns="http://www.w3.org/2000/svg" xmlns:xlink="http://www.w3.org/1999/xlink" width="52" height="38.1" viewBox="0 0 52 38.1"><defs><path id="a" d="M14.8 31.5C2.2 24.2-2.2 10.8 1 5.4c3.1-5.4 16.9-8.3 29.5-1 9.9 5.7 15 12.9 17.7 17.4 2.5 4.3 4.9 10.3 3.4 12.9-1.5 2.6-7.7 3.4-12.8 3.4-5.3 0-14-.9-24-6.6z"/></defs><use xlink:href="#a" overflow="visible" fill-rule="evenodd" clip-rule="evenodd" fill="#de7047"/><clipPath id="b"><use xlink:href="#a" overflow="visible"/></clipPath><path d="M3 38.1S.6 19.9 2.2 17c2.3-3.9 12.1-6 21.2-.7 7.1 4.1 10.8 9.3 12.7 12.5 1.8 3.1 3.5 7.4 2.4 9.3H3z" opacity=".5" clip-path="url(#b)" fill-rule="evenodd" clip-rule="evenodd" fill="#93684e"/><path d="M7.8 11.1c0-1.1.9-2 2-2s2 .9 2 2-.9 2-2 2-2-.9-2-2zm22.2 15c-1.1 0-2 .9-2 2s.9 2 2 2 2-.9 2-2-.9-2-2-2zm7.8 2c0 1.1.9 2 2 2s2-.9 2-2-.9-2-2-2-2 .9-2 2zM14.9 17.6c-1.1 0-2 .9-2 2s.9 2 2 2 2-.9 2-2-.9-2-2-2zm20 0c-1.1 0-2 .9-2 2s.9 2 2 2 2-.9 2-2-.9-2-2-2z" opacity=".3" fill="#231f20"/></svg>