<svg xmlns="http://www.w3.org/2000/svg" xmlns:xlink="http://www.w3.org/1999/xlink" width="43.1" height="56.9" viewBox="0 0 43.1 56.9"><defs><path id="a" d="M29 18.3c-3 0-5.8 1.1-8 2.3-2.2-1.3-5-2.3-8-2.3-7.2 0-13 5.8-13 13 0 13 8 23 15 23 2.3 0 4.5-1 6-1.9 1.5.9 3.7 1.9 6 1.9 7 0 15-10 15-23 0-7.2-5.8-13-13-13z"/></defs><use xlink:href="#a" overflow="visible" fill="#DE7047"/><clipPath id="b"><use xlink:href="#a" overflow="visible"/></clipPath><path opacity=".15" clip-path="url(#b)" fill="#DEDCD9" d="M0 18.3h42v36H0z"/><g clip-path="url(#b)"><path fill="#FFF" d="M27 51.3c-1.3 0-2.8-.5-4.5-1.5l-1.5-.9-1.5.9c-1.7 1-3.2 1.5-4.5 1.5-4.8 0-12-8-12-20 0-5.5 4.5-10 10-10 2.6 0 5 1.1 6.5 1.9l1.5.9 1.5-.9c1.5-.9 3.9-1.9 6.5-1.9 5.5 0 10 4.5 10 10 0 12-7.2 20-12 20z"/><path opacity=".3" fill="#F7D11A" d="M27 51.3c-1.3 0-2.8-.5-4.5-1.5l-1.5-.9-1.5.9c-1.7 1-3.2 1.5-4.5 1.5-4.8 0-12-8-12-20 0-5.5 4.5-10 10-10 2.6 0 5 1.1 6.5 1.9l1.5.9 1.5-.9c1.5-.9 3.9-1.9 6.5-1.9 5.5 0 10 4.5 10 10 0 12-7.2 20-12 20z"/></g><path clip-path="url(#b)" fill="#231F20" fill-opacity=".2" d="M43.1 56.9L21 56.1v-39l22.1-.3z"/><path fill="#80B34F" d="M32 0l-6.8 4C22.5 5.5 21 8.3 21 11.4v7.7l6.8-4c2.7-1.6 4.2-4.3 4.2-7.4V0z"/><path fill="#93684E" d="M15 38.3c0-2 2.1-3.9 4-5v5c0 1.1-.9 2-2 2s-2-.9-2-2zm12 0c0-2-2.1-3.9-4-5v5c0 1.1.9 2 2 2s2-.9 2-2z"/></svg>