<svg width="83" height="71" viewBox="0 0 83 71" xmlns="http://www.w3.org/2000/svg"><title>banana</title><g fill="none" fill-rule="evenodd"><path d="M13.424 10.38c-1.338 3.81-9.142 31.523 38.339 48.788.148.06.318.103.488.146 1.232.271 6.994 1.978-.329 8.459-7.722 6.814-30.11-3.725-32.491-4.86a1.645 1.645 0 0 1-.398-.23c-2.72-1.787-32.212-22.278-11.26-54.522.897-1.376 2.269-2.373 3.686-2.583 1.399-.213 2.744.366 2.255 3.71-.07.361-.16.72-.29 1.091z" fill="#D7E02B"/><path d="M9.253 6.536a6.658 6.658 0 0 0-1.497 1.603C-13.196 40.383 16.3 60.855 19.017 62.661c.126.076.271.155.398.23 2.379 1.155 24.766 11.694 32.49 4.86C-10.945 50.94 9.253 6.536 9.253 6.536z" fill="#C4CC27"/><path d="M52.253 59.295l-.038-.005c-.078 2.642.137 5.286.838 7.393 5.537-5.6.356-7.128-.8-7.388zM12.858 8.837L8.7 8.525C7.306 8.427 6.462 7.06 6.835 5.513l.255-1.115c.354-1.55 1.772-2.735 3.166-2.637l4.159.312c1.394.098 2.238 1.465 1.864 3.012L16.024 6.2c-.354 1.55-1.772 2.735-3.166 2.637z" fill="#3B2D13"/><g><path d="M14.746 9.59c-.156 4.035.471 32.816 50.918 35.517.175.005.33.008.509-.006 1.264-.096 7.273-.148 2.153 8.183-5.378 8.782-29.878 5.202-32.498 4.795a3.767 3.767 0 0 1-.455-.103C32.258 57.051-1.95 46.04 8.679 9.088c.456-1.574 1.465-2.915 2.766-3.551 1.28-.62 2.72-.437 3.25 2.895.041.396.067.77.051 1.158z" fill="#D7E02B"/><path d="M9.618 7.133a6.945 6.945 0 0 0-.961 1.972C-1.95 46.04 32.255 57.07 35.37 57.995c.15.04.301.082.455.103 2.62.408 27.101 3.985 32.499-4.795C3.294 55.477 9.618 7.133 9.618 7.133z" fill="#C4CC27"/><path d="M66.173 45.1l-.039-.005c.716 2.559 1.661 5.013 2.97 6.835 3.655-6.957-1.746-6.916-2.931-6.83z" fill="#3B2D13"/></g><g><path d="M16.016 8.071c1.362 3.8 12.733 30.268 60.538 13.931.164-.055.31-.113.457-.19 1.135-.562 6.675-2.845 5.066 6.798-1.702 10.158-25.764 15.983-28.33 16.578-.142.038-.3.055-.46.072-3.23.307-39.068 2.858-43.079-35.372-.163-1.622.263-3.26 1.232-4.313.947-1.037 2.37-1.422 4.094 1.473.192.3.357.655.482 1.023z" fill="#D7E02B"/><path d="M10.34 7.703a6.439 6.439 0 0 0-.15 2.183c4.01 38.229 39.849 35.678 43.078 35.371.159-.017.299-.036.46-.072 2.566-.595 26.63-6.439 28.33-16.577C22.607 54.914 10.34 7.703 10.34 7.703z" fill="#C4CC27"/><path d="M77.011 21.813c-.02-.003-.022.016-.041.013 1.62 2.1 3.421 4.031 5.305 5.232.79-7.847-4.192-5.777-5.264-5.245zM14.609 7.23l-3.44 2.364c-1.148.795-2.658.27-3.354-1.173l-.501-1.027c-.7-1.424-.345-3.247.802-4.041L11.538.986c1.148-.795 2.657-.27 3.354 1.173l.5 1.026c.719 1.428.346 3.248-.783 4.045z" fill="#3B2D13"/></g><path d="M14.264 8.157l-4.058.912c-1.351.298-2.553-.75-2.664-2.325l-.074-1.142c-.108-1.595.909-3.13 2.263-3.446l4.058-.913c1.351-.297 2.553.75 2.664 2.325l.074 1.142c.108 1.595-.912 3.149-2.263 3.447z" fill="#3B2D13"/></g></svg>