<svg xmlns="http://www.w3.org/2000/svg" xmlns:xlink="http://www.w3.org/1999/xlink" width="51.1" height="51.1" viewBox="0 0 51.1 51.1"><path fill-rule="evenodd" clip-rule="evenodd" fill="#80B34F" d="M44.6 6.5l-1.2-1.2-6 3.4-6.9 11.9 19.9-7.1c-1.6-2.5-3.5-4.8-5.8-7z"/><defs><path id="a" d="M48.2 10.4L30.5 20.6 40.7 2.9C39.4 1.8 38 .9 36.6 0L16.8 34.3l34.3-19.8c-.9-1.4-1.9-2.8-2.9-4.1z"/></defs><use xlink:href="#a" overflow="visible" fill-rule="evenodd" clip-rule="evenodd" fill="#DE7047"/><clipPath id="b"><use xlink:href="#a" overflow="visible"/></clipPath><path opacity=".3" clip-path="url(#b)" fill-rule="evenodd" clip-rule="evenodd" fill="#231F20" d="M27.7 25.5H51V9.3H37.1z"/><path clip-path="url(#b)" fill-rule="evenodd" clip-rule="evenodd" fill="#7D1CC7" fill-opacity=".3" d="M16.8 0h34.3v34.3H16.8z"/><g><defs><path id="c" d="M30.5 20.6c-4.1-4.1-8.5-6.5-14.5-6.5-10 0-16 7.7-16 16 0 5 2 8 3 11 .6 1.9.8 3.4-.2 5.1C1.8 48 0 51.1 0 51.1s3.1-1.8 4.9-2.8 3.2-.8 5.1-.2c3 1 6 3 11 3 8.3 0 16-6 16-16 0-6-2.4-10.4-6.5-14.5z"/></defs><use xlink:href="#c" overflow="visible" fill-rule="evenodd" clip-rule="evenodd" fill="#C7441C"/><clipPath id="d"><use xlink:href="#c" overflow="visible"/></clipPath><path clip-path="url(#d)" fill-rule="evenodd" clip-rule="evenodd" fill="#7D1CC7" fill-opacity=".3" d="M0 14.1h37v37H0z"/><path opacity=".3" clip-path="url(#d)" fill-rule="evenodd" clip-rule="evenodd" fill="#231F20" d="M37 22.6L0 44v7.1h37z"/></g></svg>