<svg xmlns="http://www.w3.org/2000/svg" xmlns:xlink="http://www.w3.org/1999/xlink" width="42" height="48" viewBox="0 0 42 48"><path d="M25 5V1c0-.6-1.8-1-4-1s-4 .4-4 1v4c0 1-.1 2-1.8 3s-3.5 2-5.2 3h22c-1.7-1-3.5-2-5.2-3C25.1 7 25 6 25 5z" fill-rule="evenodd" clip-rule="evenodd" fill="#80b34f"/><defs><path id="a" d="M21 11.5C19.3 10.5 14.7 8 9.5 8S0 12.3 0 17.5s1.5 10 2.9 15C4.3 37.9 5 40.2 5.7 43c.8 2.8 3.3 4.9 6.3 4.9 1.2 0 2.3-.3 3.3-.9.8-.5 3.3-1.9 5.8-3.3 2.5 1.4 4.9 2.8 5.8 3.3 1 .6 2.1.9 3.3.9 3 0 5.6-2.1 6.3-4.9.8-2.8 1.4-5.1 2.8-10.5 1.4-5.1 2.9-9.8 2.9-15S37.7 8 32.5 8c-5.2 0-9.8 2.5-11.5 3.5z"/></defs><use xlink:href="#a" overflow="visible" fill-rule="evenodd" clip-rule="evenodd" fill="#c7441c"/><clipPath id="b"><use xlink:href="#a" overflow="visible"/></clipPath><path d="M42 33.4C36.5 23.8 31.4 15 30.5 13.5 28.5 10 24.8 8 21 8v40h21V33.4z" opacity=".3" clip-path="url(#b)" fill-rule="evenodd" clip-rule="evenodd" fill="#231f20"/><g fill-rule="evenodd" clip-rule="evenodd"><path d="M21 8c-6.1 0-11 4.9-11 11 0 .8.1 1.6.3 2.4 1.3 6 4 18.1 5 22.4.6 2.5 3 4.2 5.7 4.2s5.2-1.7 5.7-4.2c1-4.3 3.7-16.4 5-22.4.2-.8.3-1.6.3-2.4 0-6.1-4.9-11-11-11z" fill="#c7441c"/><path d="M21 8c-6.1 0-11 4.9-11 11 0 .8.1 1.6.3 2.4 1.3 6 4 18.1 5 22.4.6 2.5 3 4.2 5.7 4.2s5.2-1.7 5.7-4.2c1-4.3 3.7-16.4 5-22.4.2-.8.3-1.6.3-2.4 0-6.1-4.9-11-11-11z" opacity=".5" fill="#ea7a2f"/></g></svg>