<svg xmlns="http://www.w3.org/2000/svg" xmlns:xlink="http://www.w3.org/1999/xlink" width="42" height="52" viewBox="0 0 42 52"><defs><path id="a" d="M0 7.2c0 8.2.5 14.2 4.1 20.3C7.6 33.6 12.5 37 19.5 41c2.1 1.2 4.8 1.3 7 0 3.4-1.9 4.8-5.9 2.9-9.3C27.3 28 15.2 7 13 3.2 11-.1 6.8-.9 3.5 1.1 1.2 2.4 0 4.7 0 7.2z"/></defs><use xlink:href="#a" overflow="visible" fill-rule="evenodd" clip-rule="evenodd" fill="#e9bf54"/><clipPath id="b"><use xlink:href="#a" overflow="visible"/></clipPath><path opacity=".3" clip-path="url(#b)" fill-rule="evenodd" clip-rule="evenodd" fill="#fff" d="M0 0h31v42H0z"/><path d="M0 11.8c3.3-1.6 7.1-.8 9 2.4 2.1 3.6 13 22.5 16 27.8H0V11.8z" opacity=".8" clip-path="url(#b)" fill-rule="evenodd" clip-rule="evenodd" fill="#93684e"/><path opacity=".3" clip-path="url(#b)" fill-rule="evenodd" clip-rule="evenodd" fill="#fff" d="M26.3 0H0v42h2.1z"/><g><defs><path id="c" d="M22.4 51c7.1-4.1 12-7.5 15.5-13.7 3.5-6.1 4-12 4-20.1 0-2.4-1.2-4.8-3.5-6.1-3.2-2-7.4-1.3-9.4 2.1C26.8 17 14.7 38 12.5 41.8c-1.9 3.4-.5 7.3 2.9 9.3 2.3 1.3 4.9 1.2 7-.1z"/></defs><use xlink:href="#c" overflow="visible" fill-rule="evenodd" clip-rule="evenodd" fill="#e9bf54"/><clipPath id="d"><use xlink:href="#c" overflow="visible"/></clipPath><path opacity=".3" clip-path="url(#d)" fill-rule="evenodd" clip-rule="evenodd" fill="#fff" d="M11 10h31v42H11z"/><path d="M42 21.8c-3.3-1.6-7.1-.8-9 2.4-2 3.6-12.9 22.5-16 27.8h-7V10h32v11.8z" opacity=".3" clip-path="url(#d)" fill-rule="evenodd" clip-rule="evenodd" fill="#fff"/></g></svg>