<svg xmlns="http://www.w3.org/2000/svg" xmlns:xlink="http://www.w3.org/1999/xlink" width="50" height="53" viewBox="0 0 50 53"><defs><ellipse id="a" transform="rotate(30 25 26.507)" cx="25" cy="26.5" rx="24.5" ry="26.5"/></defs><use xlink:href="#a" overflow="visible" fill="#80b34f"/><clipPath id="b"><use xlink:href="#a" overflow="visible"/></clipPath><g clip-path="url(#b)"><path d="M36.8 6.1C26.5.2 12.9 4.5 6.4 15.8-.1 27 3 40.9 13.2 46.9c10.3 5.9 23.9 1.6 30.3-9.6C50.1 26 47 12.1 36.8 6.1z" fill="#ea7a2f"/><path d="M36.8 6.1C26.5.2 12.9 4.5 6.4 15.8-.1 27 3 40.9 13.2 46.9c10.3 5.9 23.9 1.6 30.3-9.6C50.1 26 47 12.1 36.8 6.1z" opacity=".5" fill="#f7c90b"/></g><path d="M16.5 41.2c5.3 3 13.3-1.1 18-9.2 4.7-8.1 4.2-17.2-1-20.2-5.3-3-13.3 1.1-18 9.2-4.7 8.1-4.3 17.2 1 20.2z" clip-path="url(#b)" fill="#ea7a2f"/><path opacity=".3" clip-path="url(#b)" fill="#fff" d="M.5 53h9.2L40.3 0H.5z"/><path d="M31 34c-.4.7-1.7.7-2.9 0s-1.8-1.8-1.4-2.5c.4-.7 1.7-.7 2.9 0s1.9 1.8 1.4 2.5zm2.1-8.6c-1.2-.7-2.5-.7-2.9 0-.4.7.2 1.9 1.4 2.5 1.2.7 2.5.7 2.9 0 .5-.6-.2-1.8-1.4-2.5zm.5-6.7c-1.4 0-2.5.7-2.5 1.5s1.1 1.5 2.5 1.5 2.5-.7 2.5-1.5-1.1-1.5-2.5-1.5zM22.6 35c-.7.4-.7 1.7 0 2.9s1.8 1.8 2.5 1.4c.7-.4.7-1.7 0-2.9s-1.8-1.8-2.5-1.4zm-7.1-10c-.4.7.2 1.9 1.4 2.5 1.2.7 2.5.7 2.9 0 .4-.7-.2-1.9-1.4-2.5-1.2-.7-2.5-.7-2.9 0zm3.5-6c-.4.7.2 1.9 1.4 2.5 1.2.7 2.5.7 2.9 0 .4-.7-.2-1.9-1.4-2.5-1.2-.8-2.5-.7-2.9 0zm5.9-5.3c-.7.4-.7 1.7 0 2.9s1.8 1.8 2.5 1.4c.7-.4.7-1.7 0-2.9-.6-1.2-1.7-1.8-2.5-1.4zm-8.5 17.7c-1.4 0-2.5.7-2.5 1.5s1.1 1.5 2.5 1.5 2.5-.7 2.5-1.5c0-.9-1.1-1.5-2.5-1.5z" opacity=".5" clip-path="url(#b)" fill="#fff"/></svg>