<svg xmlns="http://www.w3.org/2000/svg" xmlns:xlink="http://www.w3.org/1999/xlink" width="53.8" height="51.1" viewBox="0 0 53.8 51.1"><defs><path id="a" d="M39.6 0L23.9 27.2l27.3-15.7c-1.1-1.9-2.4-3.7-3.9-5.4l-5.4 3.1L45 3.9c-1.6-1.5-3.5-2.8-5.4-3.9z"/></defs><use xlink:href="#a" overflow="visible" fill-rule="evenodd" clip-rule="evenodd" fill="#80b34f"/><clipPath id="b"><use xlink:href="#a" overflow="visible"/></clipPath><path opacity=".3" clip-path="url(#b)" fill-rule="evenodd" clip-rule="evenodd" fill="#006838" d="M49.3 16.8L31.7 26.9 45 3.9l8.8 5z"/><g><defs><path id="c" d="M37.9 13.2c-3.1-3.1-6.5-5.1-10.2-5.1-3.8 0-7.1 1.2-10.4 6.9-4 6.9-15.2 26.4-16.7 29-1 1.8-.7 4.2.8 5.7s3.9 1.9 5.7.8c2.6-1.5 22.1-12.7 29-16.7 5.8-3.3 6.9-6.6 6.9-10.4 0-3.7-2-7.1-5.1-10.2z"/></defs><use xlink:href="#c" overflow="visible" fill-rule="evenodd" clip-rule="evenodd" fill="#ea7a2f"/><clipPath id="d"><use xlink:href="#c" overflow="visible"/></clipPath><path d="M12.6 47.4S28.1 20.5 34 10.3h9v19.6L12.6 47.4z" opacity=".15" clip-path="url(#d)" fill-rule="evenodd" clip-rule="evenodd" fill="#7d1cc7"/></g></svg>