<svg xmlns="http://www.w3.org/2000/svg" xmlns:xlink="http://www.w3.org/1999/xlink" width="59.4" height="49" viewBox="0 0 59.4 49"><defs><path id="a" d="M50.8 16.6c.6-1.1.9-2.3.9-3.6 0-4.4-3.6-8-8-8-.5 0-1 .1-1.5.2C41 2.1 38.1 0 34.7 0c-1.9 0-3.6.7-5 1.8C28.3.7 26.6 0 24.7 0c-3.4 0-6.3 2.1-7.5 5.2-.5-.1-1-.2-1.5-.2-4.4 0-8 3.6-8 8 0 1.3.3 2.5.9 3.6-2.9 1.2-4.9 4.1-4.9 7.4 0 4.4 3.6 8 8 8 2.5 0 4.4 13.1 18 13.1S45.2 32 47.7 32c4.4 0 8-3.6 8-8 0-3.3-2-6.2-4.9-7.4z"/></defs><use xlink:href="#a" overflow="visible" fill-rule="evenodd" clip-rule="evenodd" fill="#DEDCD9"/><clipPath id="b"><use xlink:href="#a" overflow="visible"/></clipPath><path opacity=".3" clip-path="url(#b)" fill="#FFF" d="M47.7 16c-1.2 0-2.3.3-3.3.7-1-3.3-4-5.7-7.7-5.7-3.3 0-6.2 2-7.4 4.9-1.1-.6-2.3-.9-3.6-.9-4.4 0-8 3.6-8 8 0 1.3.3 2.5.9 3.6-2.9 1.2-4.9 4.1-4.9 7.4h-10V0h52v24c0-4.4-3.6-8-8-8z"/><g><defs><path id="c" d="M54.1 27c-3.2 0-6.1 1.8-7.6 4.5L45 34h-4.6c-3 0-5.7 1.7-7.1 4.2-.3.6-2.2 3.8-3.6 6.2-1.4-2.4-3.2-5.6-3.6-6.2C24.7 35.7 22 34 19 34h-4.6l-1.5-2.5C11.4 28.8 8.5 27 5.3 27H0l4.4 7.7C9.4 43.2 18.6 49 29.2 49h1C40.8 49 50 43.2 55 34.7l4.4-7.7h-5.3z"/></defs><use xlink:href="#c" overflow="visible" fill-rule="evenodd" clip-rule="evenodd" fill="#80B34F"/><clipPath id="d"><use xlink:href="#c" overflow="visible"/></clipPath><path opacity=".3" clip-path="url(#d)" fill-rule="evenodd" clip-rule="evenodd" fill="#9CE84D" d="M32.4 49H0V27h19.7z"/></g></svg>