<svg xmlns="http://www.w3.org/2000/svg" xmlns:xlink="http://www.w3.org/1999/xlink" width="44.4" height="58.5" viewBox="0 0 44.4 58.5"><defs><path id="a" d="M39.5 20.1S23.3 48.2 20.4 53.2C17.5 58.3 11.1 60 6 57.1c-5-2.9-6.8-9.4-3.9-14.4 3-5.1 19.2-33.2 19.2-33.2l18.2 10.6z"/></defs><use xlink:href="#a" overflow="visible" fill-rule="evenodd" clip-rule="evenodd" fill="#bcd676"/><clipPath id="b"><use xlink:href="#a" overflow="visible"/></clipPath><g clip-path="url(#b)"><defs><path id="c" d="M27.4 13.1s-11.9 20.6-13.9 24c-1.9 3.4-2.9 6.6-.6 10.5 1.4 2.3 5.4 9.4 5.4 9.4l21.3-36.8-12.2-7.1z"/></defs><use xlink:href="#c" overflow="visible" opacity=".15" fill-rule="evenodd" clip-rule="evenodd" fill="#006838"/><clipPath id="d"><use xlink:href="#c" overflow="visible" opacity=".15"/></clipPath><path d="M33.5 16.6s-11.9 20.6-13.9 24c-2 3.4-4.3 5.8-8.8 5.8H0L21.3 9.5l12.2 7.1z" opacity=".3" clip-path="url(#d)" fill-rule="evenodd" clip-rule="evenodd" fill="#006838"/><path opacity=".15" clip-path="url(#d)" fill-rule="evenodd" clip-rule="evenodd" fill="#006838" d="M19 7.4h19.7v20.1H19z"/></g><path d="M23.1 6.4c.6-1.1 1.1-1.8 1.2-2 1-1.7 3.1-2.3 4.8-1.3 1.7 1 2.3 3.1 1.3 4.8-.2.4-7.3 12.6-7.3 12.6S16.5 9.2 16.4 8.9C15.4 7.2 16 5 17.6 4c1.7-1 3.8-.4 4.8 1.3l.7 1.1z" fill-rule="evenodd" clip-rule="evenodd" fill="#80b34f"/><g fill-rule="evenodd" clip-rule="evenodd"><path d="M40.9 7.4h-2.1c.6-1.1 1.1-1.9 1.3-2.2 1-1.7.4-3.8-1.3-4.8C37.1-.6 35 0 34 1.7c-.7 1.2-6.7 11.7-6.7 11.7l4.1 7 2.5-4.3 2.7-1.7h4.5c2 0 3.5-1.6 3.5-3.5-.2-1.9-1.8-3.5-3.7-3.5z" fill="#80b34f"/><path d="M40.9 7.4h-2.1c.6-1.1 1.1-1.9 1.3-2.2 1-1.7.4-3.8-1.3-4.8C37.1-.6 35 0 34 1.7c-.7 1.2-6.7 11.7-6.7 11.7l4.1 7 2.5-4.3 2.7-1.7h4.5c2 0 3.5-1.6 3.5-3.5-.2-1.9-1.8-3.5-3.7-3.5z" opacity=".5" fill="#006838"/></g><path d="M39.3 20.5c.6-1.1 1.1-1.8 1.2-2 1-1.7.4-3.8-1.3-4.8-1.7-1-3.8-.4-4.8 1.3-.2.4-7.3 12.6-7.3 12.6h13.4c2 0 3.5-1.6 3.5-3.5s-1.6-3.5-3.5-3.5l-1.2-.1z" fill-rule="evenodd" clip-rule="evenodd" fill="#80b34f"/></svg>