<svg xmlns="http://www.w3.org/2000/svg" xmlns:xlink="http://www.w3.org/1999/xlink" width="50.7" height="52.7" viewBox="0 0 50.7 52.7"><path fill="#80b34f" d="M13.6 12.5l10.1-5.8H17V0l-3.4 5.8-5.8-3.3zM40.6 12.5l10.1-5.8H44V0l-3.4 5.8-5.8-3.3zM26.6 35.5l10.1-5.8H30V23l-3.4 5.8-5.3-3.1 5 8.7z"/><defs><path id="a" d="M11.5 28.7C5.7 28.7 1 24 1 18.2S5.7 7.7 11.5 7.7 22 12.4 22 18.2s-4.7 10.5-10.5 10.5zM36 41.2c0-5.8-4.7-10.5-10.5-10.5S15 35.4 15 41.2s4.7 10.5 10.5 10.5S36 47 36 41.2zm14-23c0-5.8-4.7-10.5-10.5-10.5S29 12.4 29 18.2s4.7 10.5 10.5 10.5S50 24 50 18.2z"/></defs><use xlink:href="#a" overflow="visible" fill="#de7047"/><clipPath id="b"><use xlink:href="#a" overflow="visible"/></clipPath><path d="M32.5 32.1L14.1 42.8c.8 5.6 5.6 10 11.4 10 6.4 0 11.5-5.1 11.5-11.5 0-3.8-1.8-7.1-4.5-9.2z" opacity=".5" clip-path="url(#b)" fill="#c7441c"/><path d="M20.8 24.9L10.3 6.8C4.5 7.4 0 12.3 0 18.2c0 6.4 5.1 11.5 11.5 11.5 3.8 0 7.2-1.9 9.3-4.8z" clip-path="url(#b)" fill="#ea7a2f"/></svg>