<svg width="235" height="235" viewBox="0 0 235 235" xmlns="http://www.w3.org/2000/svg" xmlns:xlink="http://www.w3.org/1999/xlink"><defs><linearGradient x1="50%" y1="0%" x2="50%" y2="85.9%" id="b"><stop stop-color="#825F3A" offset="0%"/><stop stop-color="#5E3F24" offset="100%"/></linearGradient><circle id="a" cx="117.5" cy="117.5" r="117.5"/><path d="M98.8 140c30.5-19 29.8-71 13-98-17-27-57-54.4-87.6-35.3-30.5 19-29 70.4-12 97.4 17 27.2 56 55 86.6 36z" id="d"/></defs><g fill="none" fill-rule="evenodd"><mask id="c" fill="#fff"><use xlink:href="#a"/></mask><use fill="url(#b)" xlink:href="#a"/><g mask="url(#c)"><path d="M39.8 180.8C3.6 156.4 6 94.4 29.4 59.8 52.8 25 112.4-5 148.7 19.4c36.2 24.4 31 91.2 7.7 126C133 180 76 205.2 39.8 180.7z" stroke="#422811" stroke-width="5" fill="#FFF"/><g transform="translate(94.500000, 100.500000) scale(-1, 1) rotate(-6.000000) translate(-94.500000, -100.500000) translate(-19.000000, -22.000000) translate(52.444045, 47.539435)"><mask id="e" fill="#fff"><use xlink:href="#d"/></mask><use fill="#B8BBB1" xlink:href="#d"/><path d="M54.8 151c30 10.2 64.7-11.6 77.5-49 12.8-37-1-75.7-31-86-30-10.3-64.7 11.5-77.5 48.7-12.8 37.3 1 76 31 86.2z" fill="#D8D8D8" mask="url(#e)"/></g></g></g></svg>