<svg xmlns="http://www.w3.org/2000/svg" xmlns:xlink="http://www.w3.org/1999/xlink" width="46.6" height="52" viewBox="0 0 46.6 52"><defs><path id="a" d="M1.7 39.6c-.8-3-.3-7.1 2.2-10.8 10.6-16.2 26-32.3 33.5-28 7.5 4.3 1.2 25.7-7.5 43-2 4-5.2 6.5-8.3 7.3-4.5 1.2-9.2 0-12.2-1.9-3-1.8-6.5-5.1-7.7-9.6z"/></defs><use xlink:href="#a" overflow="visible" fill-rule="evenodd" clip-rule="evenodd" fill="#f7ca14"/><clipPath id="b"><use xlink:href="#a" overflow="visible"/></clipPath><path d="M5.2 46.8c-.9-4.8-.9-8.1 3.1-15C17.2 16.4 29.9 2.6 32.5 1.1 35-.3 37.4-1.1 38.2-.7L9.4 49.2l-4.2-2.4z" opacity=".3" clip-path="url(#b)" fill-rule="evenodd" clip-rule="evenodd" fill="#fff"/><path d="M38.3-.7c.8.5 1.3 3 1.3 5.8 0 3-5.6 21-14.5 36.3-4 7-6.8 8.6-11.5 10.2l9.8 5.7L52.3 7.4l-14-8.1z" opacity=".15" clip-path="url(#b)" fill-rule="evenodd" clip-rule="evenodd" fill="#73469c"/><path d="M47.3 15.7L19.6-.3l4-7 27.7 16-4 7zm-.5 8.9l-34.5-20-4 7 34.6 20 3.9-7zm-6.1 15L2.8 17.7l-4 6.9 37.8 22 4.1-7zm-8 13.9l-37.8-22-4 6.9 37.8 21.9 4-6.8z" opacity=".15" clip-path="url(#b)" fill-rule="evenodd" clip-rule="evenodd" fill="#fff"/><g><defs><path id="c" d="M13.5 42.1V4S7.3 14.7 4.1 20.3C-1.8 30.5.1 36.4 1 39.4c1.4 4.6 5.5 8 8.5 9.8 3 1.8 8 3.6 12.7 2.5 3-.7 9.1-2.1 14.9-12.3 5.9-10.2 9.4-16.3 9.4-16.3s-27.4 15.8-33 19z"/></defs><use xlink:href="#c" overflow="visible" fill-rule="evenodd" clip-rule="evenodd" fill="#81b44f"/><clipPath id="d"><use xlink:href="#c" overflow="visible"/></clipPath><path opacity=".3" clip-path="url(#d)" fill-rule="evenodd" clip-rule="evenodd" fill="#a3ce4f" d="M-4.5-1.7h18v54h-18z"/></g></svg>