<svg xmlns="http://www.w3.org/2000/svg" xmlns:xlink="http://www.w3.org/1999/xlink" width="48" height="50.9" viewBox="0 0 48 50.9"><g fill-rule="evenodd" clip-rule="evenodd"><path d="M46.1 8.2c.3-1 1.5-5.4 1.6-6 .1-.6-.4-1.4-1.2-1.9-.8-.5-1.8-.5-2.2-.1l-4.4 4.4c-.7.8 5.9 4.6 6.2 3.6z" fill="#80b34f"/><path d="M46.1 8.2c.3-1 1.5-5.4 1.6-6 .1-.6-.4-1.4-1.2-1.9-.8-.5-1.8-.5-2.2-.1l-4.4 4.4c-.7.8 5.9 4.6 6.2 3.6z" opacity=".5" fill="#47475e"/></g><defs><path id="a" d="M8 50.9c-2.8 0-5.4-1.4-6.9-4C-1.1 43.1.2 38.2 4 36c12.1-7 22.1-17 29.1-29.1C35.3 3.1 40.2 1.8 44 4c3.8 2.2 5.1 7.1 2.9 10.9C38.6 29.4 26.5 41.5 12 49.8c-1.3.8-2.6 1.1-4 1.1z"/></defs><use xlink:href="#a" overflow="visible" fill="#80b34f"/><clipPath id="b"><use xlink:href="#a" overflow="visible"/></clipPath><path clip-path="url(#b)" fill="#006838" fill-opacity=".3" d="M0 2.9h48v48H0z"/><path d="M48 50.9V7c-3.1-.4-6.3 1-8 3.9-7.7 13.3-18.7 24.3-32 32-6.9 4-6.9 3.8-6.9 3.8v4.2H48z" clip-path="url(#b)" fill="#231f20" fill-opacity=".3"/><path d="M8 39.4c0 .8-.7 1.5-1.5 1.5S5 40.2 5 39.4s.7-1.5 1.5-1.5 1.5.7 1.5 1.5zm6.5 2.5c-.8 0-1.5.7-1.5 1.5s.7 1.5 1.5 1.5 1.5-.7 1.5-1.5-.7-1.5-1.5-1.5zm9-6c-.8 0-1.5.7-1.5 1.5s.7 1.5 1.5 1.5 1.5-.7 1.5-1.5-.7-1.5-1.5-1.5zm10-10c-.8 0-1.5.7-1.5 1.5s.7 1.5 1.5 1.5 1.5-.7 1.5-1.5-.7-1.5-1.5-1.5zm7-10c-.8 0-1.5.7-1.5 1.5s.7 1.5 1.5 1.5 1.5-.7 1.5-1.5-.7-1.5-1.5-1.5zm-10 0c-.8 0-1.5.7-1.5 1.5s.7 1.5 1.5 1.5 1.5-.7 1.5-1.5-.7-1.5-1.5-1.5z" clip-path="url(#b)" fill="#9ce84d" fill-opacity=".3"/></svg>