<svg width="200" height="89" viewBox="0 0 200 89" xmlns="http://www.w3.org/2000/svg" xmlns:xlink="http://www.w3.org/1999/xlink"><title>Dates</title><defs><linearGradient x1="6.496%" y1="-32.661%" x2="67.898%" y2="114.636%" id="b"><stop stop-color="#C24826" offset="0%"/><stop stop-color="#6A2021" offset="100%"/></linearGradient><ellipse id="a" cx="37.604" cy="83.378" rx="37.501" ry="83.275"/><linearGradient x1="6.496%" y1="-32.661%" x2="67.898%" y2="114.636%" id="e"><stop stop-color="#8D2F23" offset="0%"/><stop stop-color="#772B16" offset="100%"/></linearGradient><ellipse id="d" cx="33.809" cy="74.964" rx="33.717" ry="74.871"/><linearGradient x1="50%" y1="0%" x2="50%" y2="100%" id="h"><stop stop-color="#B46150" offset="0%"/><stop stop-color="#9D5148" offset="100%"/></linearGradient><path id="g" d="M32.115 135.615C46.98 134.56 56.94 103.362 54.36 65.932 51.78 28.502 37.64-.987 22.774.068 7.909 1.123-2.051 32.321.528 69.751c2.58 37.43 16.722 66.918 31.587 65.864z"/></defs><g fill="none" fill-rule="evenodd"><g transform="rotate(76 102.363 112.859)"><mask id="c" fill="#fff"><use xlink:href="#a"/></mask><use stroke="#832D1D" fill="url(#b)" xlink:href="#a"/></g><path d="M192.77 24.075c1.031 4.138 1.626 7.552 3.99 6.962 2.365-.59 3.445-4.421 2.413-8.559-1.031-4.137-3.784-7.013-6.148-6.424-2.365.59-1.287 3.884-.256 8.021z" fill="#CC7D54"/><g><g transform="rotate(-79 41.074 36.707)"><mask id="f" fill="#fff"><use xlink:href="#d"/></mask><use stroke="#832D1D" stroke-width="3" fill="url(#e)" xlink:href="#d"/><use fill-opacity=".4" fill="url(#h)" xlink:href="#g" transform="rotate(-23 99.076 108.368)" mask="url(#f)"/></g><path d="M4.667 37.42c.732-3.764 3.475-6.397 1.325-6.815-2.15-.418-4.487 2.294-5.219 6.058-.731 3.763.42 7.153 2.57 7.57 2.15.419.593-3.05 1.324-6.814z" fill="#CC7D54"/></g></g></svg>