<svg xmlns="http://www.w3.org/2000/svg" viewBox="0 0 48 48" width="48" height="48">
  <path fill="#8BC34A" d="M31 10.8s-3.4-.5-4 2.2c-.5 2-5.4 2.3-6 0-.7-2.7-4-2.2-4-2.2s3-3.2 3-7.8c1.4 1.3 3 4.7 4 6s2-4 4-6c0 4.7 3 7.8 3 7.8zM36 36s-4.4 4-1 4c5 0 6-6 6-6-1.6 1.4-3 1-3 1l-2 1zm4-10c4.3-4.3 0-11 0-11s.4 4-1 4c-.8 0-2-1-2-1s-1 12 3 8zM9 14s-4 4.7-1 11c2 4.5 3-8 3-8s-2.2 3.6-2-3zm3 24s-1.4-10.3-3-8-3 0-3 0c.3 7.8 6 8 6 8z"/>
  <path fill="#F50057" d="M24 9C15.2 9 8 17 8 27s7.2 18 16 18 16-8 16-18S32.8 9 24 9z"/>
  <path fill="#EEE" d="M27.2 12.5S24.5 11.3 24 9c0 0 .2 1.8-3.2 3.5C15 14.2 11 20 11 27c0 8.3 5.8 15 13 15s13-6.7 13-15c0-7-4.2-13-9.8-14.5z"/>
  <path fill="#455A64" d="M24 15c0 .6-.4 1-1 1s-1-.4-1-1 .4-1 1-1 1 .4 1 1zm6 2c-.6 0-1 .4-1 1s.4 1 1 1 1-.4 1-1-.4-1-1-1zm-3 1c-.6 0-1 .4-1 1s.4 1 1 1 1-.4 1-1-.4-1-1-1zm2 4c0 .6.4 1 1 1s1-.4 1-1-.4-1-1-1-1 .4-1 1zm-12-3c-.6 0-1 .4-1 1s.4 1 1 1 1-.4 1-1-.4-1-1-1zm-3 7c-.6 0-1 .4-1 1s.4 1 1 1 1-.4 1-1-.4-1-1-1zm7-3c-.6 0-1 .4-1 1s.4 1 1 1 1-.4 1-1-.4-1-1-1zm4 1c-.6 0-1 .4-1 1s.4 1 1 1 1-.4 1-1-.4-1-1-1zm9 0c-.6 0-1 .4-1 1s.4 1 1 1 1-.4 1-1-.4-1-1-1zm-3 2c-.6 0-1 .4-1 1s.4 1 1 1 1-.4 1-1-.4-1-1-1zm1 6c0 .6.4 1 1 1s1-.4 1-1-.4-1-1-1-1 .4-1 1zm-3 3c0 .6.4 1 1 1s1-.4 1-1-.4-1-1-1-1 .4-1 1zm-6 2c-.6 0-1 .4-1 1s.4 1 1 1 1-.4 1-1-.4-1-1-1zm-4-2c-.6 0-1 .4-1 1s.4 1 1 1 1-.4 1-1-.4-1-1-1zm-2-6c-.6 0-1 .4-1 1s.4 1 1 1 1-.4 1-1-.4-1-1-1zm6 0c-.6 0-1 .4-1 1s.4 1 1 1 1-.4 1-1-.4-1-1-1z"/>
</svg>