<svg xmlns="http://www.w3.org/2000/svg" width="239" height="222" viewBox="0 0 239 222"><defs><linearGradient id="a" x1="59.4%" x2="70.3%" y1="144.6%" y2="10.5%"><stop stop-color="#747725" offset="0%"/><stop stop-color="#938426" offset="100%"/></linearGradient></defs><g fill="none" fill-rule="evenodd"><ellipse cx="89" cy="196.5" fill="#7F7F7F" rx="56" ry="22.5"/><path fill="#422A14" d="M226.3 1L191 36.7l5.5 9L239 12.2s.4-6.8-1.7-9c-2.6-2.7-11-2.3-11-2.3z"/><path fill="url(#a)" d="M202 35.6l13.5-2-2 4.7 15.2 4.3-3 11.2 6-.4-1 7.7 5-3.7-5 11.2 5 4L231 75l4.7 4.3-4.7 2.3 4.3 3.3-3 2.6 3.5 5.7-6.5 1.5 1 2.5 5.2 2.7-6 2 5.6 6-8-.4 4 5-3-.4 3.4 3.3-6.8-.6 3.3 3.6-6.7-.8 2.2 4.7-.4 2 1.2 2-3.3 1v3l-1.6 1.3-6.2 2.7 3 4.4-4.2 1-1 2.4-4-1.2 4 8.2h-3.8l3 3.5-5.3-1.3-.5 5.6-5.8-.8-1.2 3 5.6 7-7.8-2.2-.8 2.3 3.3 3.7-9.6-3.3-1.5 5.4-.4 6.2 4.6 3.5-13.4-2.6 2.7 6-3.6.4 1 3-5-1.3 3 7.2-6-1.8.5 7.7-5.4-2.6v5.2l-4.6-6.4-2 12.2-12.7-6.8-.8 10.6-.8 4-8.3-5 .6 8.4-4.8-6-.6 5.6-2.7-5.2-.5 6.4-9.7-8.2-6.6-.3-5.2 9.2-6.4-11.2-7-2.5-9.4 13.6-1.2-16-7.5 1-4.5 3.3-4-3-8.4 3-2.5-3-8.2 5.7-4.3-4.5-4 3-6.6-9-5.7-5-3.5-1.8-2.7-3.8-4.8-1.6 1-3.5-4-3.6.7-4.8-4.5-2 4.6-5.7-7.6-2.2 3-9-2.4-3.2 3-1.6-6.3-3.3 5-4-6.4-2 8-4-6.6-1.5 6-5-6.2-5 8.3-5-9.5-6.5 11.8 1-6.5-4.7 5.8-1.7L6 110l3.8-1.3L6 104h7l-3.4-6 4.7-.5L12 93l6.3 2-4.2-8 11 .5-2-4.3 5 .6L25 72l8.6 1.3-4.6-7.7 12.8 5.2-3-12.2 4 .6s13.3 1.2 12.3 1c-1-.2-.5-15-.5-15l5.8 4.5 1.2-5.4 4.3 3c.7.3 1-9.4 1-9.4l9.6 8.2L77 35l3.5 1.4 2.5-1 .4-3.5 6.7 7.5v-8.7l4.2-1.6 5.2 2.3 1.4-10.2 6 9 .8-7s2-.3 2.3-1c.3-.8.6-3.4.6-3.4l4.5 3.6 2-7 3.7 2V15l8 4.3 2-9 3.7 3 2.2-5.2 1.3 6 3.6-4 4 4 6-5.7.3 2.7 5-2 2.4 5.5 5.4-6.4-.2 6.5 3.5-4.3.5 4.7 4-4.8v9l6-6.3 3.7 7.7.2 5.2 10.7-4.3.7 6 8.3 8z"/><path fill="#000" d="M201 33.6l13.5-2-2 4.7 15.2 4.3-3 11.2 6-.4-1 7.7 5-3.7-5 11.2 5 4L230 73l4.7 4.3-4.7 2.3 4.3 3.3-3 2.6 3.5 5.7-6.5 1.5 1 2.5 5.2 2.7-6 2 5.6 6-8-.4 4 5-3-.4 3.4 3.3-6.8-.6 3.3 3.6-6.7-.8 2.2 4.7-.4 2 1.2 2-3.3 1v3l-1.6 1.3-6.2 2.7 3 4.4-4.2 1-1 2.4-4-1.2 4 8.2h-3.8l3 3.5-5.3-1.3-.5 5.6-5.8-.8-1.2 3 5.6 7-7.8-2.2-.8 2.3 3.3 3.7-9.6-3.3-1.5 5.4-.4 6.2 4.6 3.5-13.4-2.6 2.7 6-3.6.4 1 3-5-1.3 3 7.2-6-1.8.5 7.7-5.4-2.6v5.2l-4.6-6.4-2 12.2-12.7-6.8-.8 10.6-.8 4-8.3-5 .6 8.4-4.8-6-.6 5.6-2.7-5.2-.5 6.4-9.7-8.2-6.6-.3-5.2 9.2-6.4-11.2-7-2.5-9.4 13.6-1.2-16-7.5 1-4.5 3.3-4-3-8.4 3-2.5-3-8.2 5.7-4.3-4.5-4 3-6.6-9-5.7-5-3.5-1.8-2.7-3.8-4.8-1.6 1-3.5-4-3.6.7-4.8-4.5-2 4.6-5.7-7.6-2.2 3-9-2.4-3.2 3-1.6-6.3-3.3 5-4-6.4-2 8-4-6.6-1.5 6-5-6.2-5 8.3-5L.3 116l11.8 1-6.5-4.7 5.8-1.7L5 108l3.8-1.3L5 102h7l-3.4-6 4.7-.5L11 91l6.3 2-4.2-8 11 .5-2-4.3 5 .6L24 70l8.6 1.3-4.6-7.7 12.8 5.2-3-12.2 4 .6s13.3 1.2 12.3 1c-1-.2-.5-15-.5-15l5.8 4.5 1.2-5.4 4.3 3c.7.3 1-9.4 1-9.4l9.6 8.2L76 33l3.5 1.4 2.5-1 .4-3.5 6.7 7.5v-8.7l4.2-1.6 5.2 2.3 1.4-10.2 6 9 .8-7s2-.3 2.3-1c.3-.8.6-3.4.6-3.4l4.5 3.6 2-7 3.7 2V13l8 4.3 2-9 3.7 3 2.2-5.2 1.3 6 3.6-4 4 4 6-5.7.3 2.7 5-2 2.4 5.5 5.4-6.4-.2 6.5 3.5-4.3.5 4.7 4-4.8v9l6-6.3 3.7 7.7.2 5.2 10.7-4.3.7 6 8.3 8z" opacity=".2"/><path fill="#FBF4C6" d="M40.8 186.6l7-7.7 3.4 1.8 11.2-12 .5 3.2 11.7-10 6.6-5 3-.5 9-7.4 7-1 9.2-5.8-.6-2.7 4.6-5.2 3.8 1 4.4-2.7 8.7-10.6 16-14 8.4-7 1.5-4.5 10.4-8.2 2.7-4.6 9.3-4 3.5-6.4 10.2-4.4-.3-4 9.3-2.7-.5-5.7 7.6-4L206 51l7.7-5.7-3.2-1.3-.3-3.3-3.6-1.6-19.7-8-6.6-15.6-7 11.3-3.4-6-4.2 5.7-11-13.2-4.3 12.4H146l-1 3-4.3-2.2-4 4.6-12-9.3.4 16-6.5-4-2.7 2.8.5 8.2-6.3-5.7-3 .2-3.3 10.2-15-.6L80 59.8l-10 .6L70 68l-9.3-.2-2 2.7v11.2l-5-1.3-9.7-7.4 7.4 14-14.5-1L39 103l-11.4 8.8 1.7 5.7-13.4-.8 7.3 8.2-8.2 3-.5 5 5.5 6.8-.3 7-8.5 5.3 1.4 3.3 7 1.7 1 6.6-10 2.5 7.2 2.7-2.5 3 2.5 2.7h3.6l-4 3 1.5 3.3 2.4 1.7 3.5 3.3 2.6 3.2h6l3.6-4.3.8 4"/><path fill="#C5931D" d="M54.3 173c4-.6 6.8-4.7 9.7-7.6 4-4 6.2-9.4 10.4-12.8 3.5-2.8 8-4.2 12-6.2 5.4-2.6 11.2-4.3 16.3-7.4 8-4.7 15-10.6 22-16.6 7.7-6.5 15-13.4 21.7-21 2.5-2.7 4.2-6.3 7-8.8 3.4-3 8-4.6 11.6-7.4 5.6-4.2 10.7-9.2 16-14 3.7-3.3 7.6-6.6 11-10.3 3.4-3.7 6.6-7.3 9.2-11.4 1-1.7 2.3-3.4 2.7-5.4.3-2 0-4.4-.6-6.3-.8-2.2-2.2-4.2-4-5.6-2-2-5-3-7.8-3.8-5.2-1.6-10.7-2-16.2-2.2-5-.3-10.3-.6-15.3.5-5.7 1.2-11.2 3.8-16.3 6.8-2.7 1.5-4.7 4-7.4 5.7-5.6 3.4-12 5.4-17.8 8.2-2.5 1.2-5.3 1.7-7.4 3.6-1 1-1 2.6-2 3.5-7.2 6.4-18 7-26 12-4.8 3-9.3 6.5-13 10.7-3.2 4-5.6 8.5-7.6 13.2-1.3 3.2-1 7-2.7 10-3.8 6.3-11.4 9.3-16.2 15-4 4.6-7.8 9.8-10.4 15.5-2 4.4-3.5 9-3.7 14-.2 4 .8 8 2.2 11.7 1.2 3.2 2.7 6.5 5.2 9 2 2 4.8 2.7 7.4 3.8 3.4 1.4 6.8 4 10.3 3.3z"/><path fill="#F5CD3D" d="M55.3 171c4-1.2 6.8-4.7 9.7-7.6 4-4 6.2-9.4 10.4-12.8 3.5-2.8 8-4.2 12-6.2 5.4-2.6 11.2-4.3 16.3-7.4 8-4.7 15-10.6 22-16.6 7.7-6.5 15-13.4 21.7-21 2.5-2.7 4.2-6.3 7-8.8 3.4-3 8-4.6 11.6-7.4 5.6-4.2 10.7-9.2 16-14 3.7-3.3 7.6-6.6 11-10.3 3.4-3.7 6.6-7.3 9.2-11.4 1-1.7 2.3-3.4 2.7-5.4.3-2 0-4.4-.6-6.3-.8-2.2-2.2-4.2-4-5.6-2-2-5-3-7.8-3.8-5.2-1.6-10.7-2-16.2-2.2-5-.3-10.3-.6-15.3.5-5.7 1.2-11.2 3.8-16.3 6.8-2.7 1.5-4.7 4-7.4 5.7-5.6 3.4-12 5.4-17.8 8.2-2.5 1.2-5.3 1.7-7.4 3.6-1 1-1 2.6-2 3.5-7.2 6.4-18 7-26 12-4.8 3-9.3 6.5-13 10.7-3.2 4-5.6 8.5-7.6 13.2-1.3 3.2-1 7-2.7 10-3.8 6.3-11.4 9.3-16.2 15-4 4.6-7.8 9.8-10.4 15.5-2 4.4-3 9.2-3.7 14-.7 3.8-1.7 8-.8 11.7.8 3.3 2.8 6.4 5.2 9 2.8 3 6.4 5.5 10.4 6.8 3.3 1 7 1.4 10.3.3z"/><path fill="#FFF" fill-opacity=".7" d="M187.7 32c-1.5 0-2.5 0-3.2.2-2.4.5-6 2-9.6 4 1.6-1-.2 1-6.7 5-8 4.5-14.6 6.5-18.6 8.3l-1.6.7c-.6 1-1.5 1.8-2.5 2.7-13.7 11.5-25.6 11.7-27 12.5-3.4 2-6 4.2-7.6 6-1.3 1.2-2.7 3.6-4 6.7 1.4-3.5 2.5 1.5-4 11.7-8.2 12.8-17 15.7-17 15.6-3 3.5-5.5 6.8-6.8 9.6-.6 1.3-1.4 4-2 7.8.7-1.6 3-5.5 10.3-11.2 7.2-5.5 13-7 15-8 7-3 12-4.6 14-5.7 5.5-3 11.3-7.7 17.8-13 6.7-5.4 13-11 18.5-17-.4.4 1.3-3.6 8-9.4C168 52.4 173 51 173 51c4-2.8 8.2-7 13.5-11.5 3.6-3 6.2-5.3 8.3-7.3h-1l-6-.3z" opacity=".6"/><path fill="#E4B832" d="M113 48.6L111 51l-1.4 2.4c-.3.8-.4 1.6 0 2.4 0 .5.5.8 1 1l1.4.4c1 0 2 0 2.8.2 1.8.4 3.7.4 5.2 1 3 1.3 5.4 3.7 8.2 5.4 2.8 1.8 5.8 3 8.2 5 3.2 2.7 5.7 6.2 8 9.7 1.8 2.5 2.6 5.8 4.7 8.3.6 1 2 2 3 2.8l2 1.4.5-.8-2-1.4-2.8-2.6c-2-2.3-2.7-5.5-4.5-8.2-2.5-3.6-5-7.2-8.4-10-2.5-2.2-5.6-3.3-8.3-5-2.7-1.7-5-4.2-8.3-5.5-1.8-.7-3.7-.7-5.4-1-1-.3-2-.2-3-.3-.4 0-.8 0-1-.3l-.6-.6c-.2-.4 0-1 .2-1.6.2-.7.7-1.4 1.2-2 1-1.4 2.2-2.4 2.2-2.4l-.7-.8z"/></g></svg>