<svg xmlns="http://www.w3.org/2000/svg" xmlns:xlink="http://www.w3.org/1999/xlink" width="52" height="52" viewBox="0 0 52 52"><defs><circle id="a" cx="26" cy="26" r="26"/></defs><use xlink:href="#a" overflow="visible" fill="#75a2d9"/><clipPath id="b"><use xlink:href="#a" overflow="visible"/></clipPath><g><path d="M30 42c0 2.2-1.8 4-4 4s-4-1.8-4-4 1.8-4 4-4 4 1.8 4 4zm5.5-27.3c-1.5-2.5-3.8-4.4-6.7-5.1-2.8-.8-5.8-.4-8.3 1.1-1 .6-2.2 1.3-3.5 2v6.9c2.2-1.3 5.5-3.2 6.5-3.8 1.2-.7 2.5-.8 3.8-.5 1.3.3 2.4 1.2 3 2.3.7 1.2.8 2.5.5 3.8-.3 1.3-1.2 2.4-2.3 3L23 27.7V36h6v-4.8l2.5-1.4c2.5-1.5 4.4-3.8 5.1-6.7.8-2.9.4-5.8-1.1-8.4z" fill="#dedcd9"/><path d="M30 42c0 2.2-1.8 4-4 4s-4-1.8-4-4 1.8-4 4-4 4 1.8 4 4zm5.5-27.3c-1.5-2.5-3.8-4.4-6.7-5.1-2.8-.8-5.8-.4-8.3 1.1-1 .6-2.2 1.3-3.5 2v6.9c2.2-1.3 5.5-3.2 6.5-3.8 1.2-.7 2.5-.8 3.8-.5 1.3.3 2.4 1.2 3 2.3.7 1.2.8 2.5.5 3.8-.3 1.3-1.2 2.4-2.3 3L23 27.7V36h6v-4.8l2.5-1.4c2.5-1.5 4.4-3.8 5.1-6.7.8-2.9.4-5.8-1.1-8.4z" fill="#fff" opacity=".5"/></g></svg>