<svg xmlns="http://www.w3.org/2000/svg" xmlns:xlink="http://www.w3.org/1999/xlink" width="60" height="43" viewBox="0 0 60 43"><path d="M34.7 0c-2 0-3.7 1-4.7 2.4C29 1 27.3 0 25.3 0c-3.2 0-5.7 2.6-5.7 5.7 0 5.7 10.4 13.7 10.4 13.7s10.4-8 10.4-13.7c0-3.1-2.6-5.7-5.7-5.7z" fill-rule="evenodd" clip-rule="evenodd" fill="#80b34f"/><g fill-rule="evenodd" clip-rule="evenodd"><path d="M21.6 32L51 18.1V10c0-3.2-2.2-6-6-6-4.5 0-10.4 4.4-15 12.3-2.8 5-8.4 15.7-8.4 15.7z" fill="#bcd676"/><path d="M21.6 32L51 18.1V10c0-3.2-2.2-6-6-6-4.5 0-10.4 4.4-15 12.3-2.8 5-8.4 15.7-8.4 15.7z" opacity=".3" fill="#80b34f"/></g><g fill-rule="evenodd" clip-rule="evenodd"><path d="M38.4 32L9 18.1V10c0-3.2 2.2-6 6-6 4.5 0 10.4 4.4 15 12.3 2.8 5 8.4 15.7 8.4 15.7z" fill="#bcd676"/><path d="M38.4 32L9 18.1V10c0-3.2 2.2-6 6-6 4.5 0 10.4 4.4 15 12.3 2.8 5 8.4 15.7 8.4 15.7z" opacity=".3" fill="#80b34f"/></g><path d="M20 19S22 4 30 4s10 15 10 15L30 30 20 19z" fill-rule="evenodd" clip-rule="evenodd" fill="#bcd676"/><defs><path id="a" d="M30 27.1C35.5 17.7 38.2 14 43 14c1.7 0 3.3.6 4.3 1.3 1.8-1 5.1-3.3 7.7-3.3 2.8 0 5 2.2 5 5 0 4-3.8 11.8-5 13.8C49.7 39.9 41.2 43 30 43S10.3 39.9 5 30.8C3.8 28.8 0 21 0 17c0-2.8 2.2-5 5-5 2.6 0 5.9 2.2 7.7 3.3 1.1-.6 2.6-1.3 4.3-1.3 4.8 0 7.6 3.7 13 13.1z"/></defs><use xlink:href="#a" overflow="visible" fill-rule="evenodd" clip-rule="evenodd" fill="#80b34f"/><clipPath id="b"><use xlink:href="#a" overflow="visible"/></clipPath><path d="M30 43c1.3-2.4 2.2-5 2.2-7.9 0-2.9-.8-5.6-2.2-7.9V12H0v31h30z" opacity=".3" clip-path="url(#b)" fill-rule="evenodd" clip-rule="evenodd" fill="#9ce84d"/></svg>