<svg xmlns="http://www.w3.org/2000/svg" width="294" height="281" viewBox="0 0 294 281"><defs><radialGradient id="a" r="50.4%" fx="50%" fy="50%"><stop stop-color="#350000" offset="0%"/><stop stop-color="#6B0000" offset="91.2%"/><stop stop-color="#810000" offset="100%"/></radialGradient></defs><g fill="none" fill-rule="evenodd" stroke="#000"><path fill="url(#a)" stroke-width="3" d="M19.7 65.2c21-37 65-63 122.4-65 57.4-2 123 26.6 138.5 79 19.6 66.4 8 129-37.7 163-58.6 43.2-133.6 38.3-165 25.6-31.6-12.4-75-55-77-101.2-2-46 5-81 18.8-101.4z" transform="translate(2 2)"/><path fill="#ECECEC" d="M147.6 166.2c0 2.8 33.8 73.4 37 73.8 3 .3 15.2-3 15.2-3 10.2-2.4 25.3-9.5 33.6-16l5.5-4c1.7-1.5 16.7-20.8 19-26.4 2.5-5.6 5.6-14.6 6-20.6.3-6-.4-13-2-19-2-5.8-.8-9.3-3-11-2-1.8-1.3-4.3-3.4-1.8-2 2.4-4.2 5.6-11.2 10.5-7 4.8-40.2 13.5-50.3 14.2-10 .6-27.6 1.7-32.5 1.7-5 0-12.2-2.5-12-2.8 0 0-2 1.3-2 4v.2z"/><path fill="#ECECEC" d="M148.7 162.8h-49s-52.8-39.6-55-40.3c-2-.7-4.4 2-4.8 4.5-.4 2.4-7.5 27.6-3 49 3.3 15.6 6.2 19.4 6.2 19.4C47 204 55.7 216 63 222c0 0 17.8 17 28.7 17.6 10.8.7 27.8 3 27.8 3 15.3 2 27.3-9.2 26.8-24.6 0 0-1.7-29.8 1-38.2 3-8.4 5.3-14 4.3-13.6 0 0-1-3.5-2.8-3.5z"/><path fill="#ECECEC" d="M118.7 166.4c-16 1.3-38.4-6.6-50-17.7 0 0-18.6-17-23.2-25.6-4.5-8.7-.8-15-.8-15C48.2 88.2 64 63 80 51h.2c8.4-6.3 23.7-12.7 34-14.4l9.8-1.6c19-3 34 10 33 29.2 0 0-3.8 100-5.2 99.3l-33 2.6z"/><path fill="#ECECEC" d="M169.2 159.8c5.4-3.4 36-34.6 41-40.8 5-6.3 13.7-16.8 16-25 2.6-8 4.3-30-9-44.3-13.2-14.4-30-17-37.7-17-7.7 0-27.6 2.8-27.6 2.8-12.8 1.7-22.8 13.3-22.8 26v.8c0 5.2 15 87.8 17 92 2 4.2 8 9 8.4 8.7 0 0 9.5.4 14.7-3v-.2z"/><path fill="#ECECEC" d="M188.6 224.2c1.8 3 10 13.3 3 17.5-6.7 4-16.3 6.4-16.3 6.4-11.5 3.6-30.4 4-42.2 1-15.3-4-21.2-18.5-13-32.2l33.3-54.5c3.5 7 33.3 58.4 35.4 62zM200 107.5L219.2 83c6.3-7.7 16-7.5 22 .5l8 11.2c6.5 9 12.5 25 13.4 36l.5 6.2c.8 9.3-6.2 17.3-15.6 18 0 0-13.5.2-30.3 4-16.7 4-53.4 5.3-57.6 5.3-4.2 0-6.3-2.8-6.3-2.8s4 2.8 11.7-1c7.7-4 35.2-53 35.2-53z"/></g></svg>