<svg xmlns="http://www.w3.org/2000/svg" xmlns:xlink="http://www.w3.org/1999/xlink" width="54" height="54" viewBox="0 0 54 54"><defs><path id="a" d="M15 53C6.7 53 1 47.3 1 39V27.1C1 20 4.8 13.4 11 9.8 17.2 6.2 31 1 38 1c5 0 7.8 1.4 10.7 4.3C51.6 8.2 53 11 53 16c0 7-5.2 20.8-8.8 27-3.6 6.2-10.2 10-17.3 10H15z"/></defs><use xlink:href="#a" overflow="visible" fill-rule="evenodd" clip-rule="evenodd" fill="#80b34f"/><clipPath id="b"><use xlink:href="#a" overflow="visible"/></clipPath><path opacity=".3" clip-path="url(#b)" fill-rule="evenodd" clip-rule="evenodd" fill="#ea7a2f" d="M0 0h54v54H0z"/><path d="M7 47c-2-2-3-4.7-3-8V27.1c0-6.1 3.3-11.7 8.5-14.7C18.7 8.8 32 4 38 4c4.4 0 6.3 1.2 8.6 3.4C48.8 9.7 50 11.6 50 16c0 6-4.8 19.3-8.4 25.5-3 5.2-8.7 8.5-14.7 8.5H15c-3.3 0-6-1-8-3z" clip-path="url(#b)" fill-rule="evenodd" clip-rule="evenodd" fill="#ea7a2f"/><path opacity=".3" clip-path="url(#b)" fill-rule="evenodd" clip-rule="evenodd" fill="#f7d11a" d="M54 0H0v54z"/><path d="M43 16c0-2.8-2.2-5-5-5-2.6 0-18 5-23 10s-4 9-4 17c0 2.8 2.2 5 5 5 8 0 12 0 16.5-4.5S43 18.6 43 16z" opacity=".3" clip-path="url(#b)" fill-rule="evenodd" clip-rule="evenodd" fill="#fff"/><path d="M14.7 32.3c1.1 0 2 .9 2 2s-.9 2-2 2-2-.9-2-2 .9-2 2-2zm5 5c1.1 0 2 .9 2 2s-.9 2-2 2-2-.9-2-2 .9-2 2-2zm1.6-6.7c1.1 0 2 .9 2 2s-.9 2-2 2-2-.9-2-2 .9-2 2-2zm-5-5c1.1 0 2 .9 2 2s-.9 2-2 2-2-.9-2-2 .9-2 2-2zm10.1 10.1c1.1 0 2 .9 2 2s-.9 2-2 2-2-.9-2-2c-.1-1.2.8-2 2-2zM23 24c1.1 0 2 .9 2 2s-.9 2-2 2-2-.9-2-2 .9-2 2-2zm5 5c1.1 0 2 .9 2 2s-.9 2-2 2-2-.9-2-2 .9-2 2-2zm1.7-6.7c1.1 0 2 .9 2 2s-.9 2-2 2-2-.9-2-2 .9-2 2-2zm1.7-6.7c1.1 0 2 .9 2 2s-.9 2-2 2-2-.9-2-2c-.1-1.1.8-2 2-2zm5 5c1.1 0 2 .9 2 2s-.9 2-2 2-2-.9-2-2c-.1-1.1.8-2 2-2zM38 14c1.1 0 2 .9 2 2s-.9 2-2 2-2-.9-2-2 .9-2 2-2zm-13.3 3.3c1.1 0 2 .9 2 2s-.9 2-2 2-2-.9-2-2 .9-2 2-2zm10 10c1.1 0 2 .9 2 2s-.9 2-2 2-2-.9-2-2 .9-2 2-2z" clip-path="url(#b)" fill-rule="evenodd" clip-rule="evenodd" fill="#47475e"/></svg>