<svg xmlns="http://www.w3.org/2000/svg" width="290" height="299" viewBox="0 0 290 299"><g fill="none" fill-rule="evenodd"><path fill="#453748" d="M289.4 149c0 68.7-43.8 124.4-97.7 124.4-54 0-97.8-55.7-97.8-124.4s43.7-124.4 97.7-124.4 97.7 55.7 97.7 124.4z"/><path fill="#3C3350" d="M257.7 162c0 53.5-29.6 97-66 97-36.5 0-66-43.5-66-97 0-53.6 29.5-97 66-97 36.4 0 66 43.4 66 97z"/><path fill="#453748" d="M10.8 228.5s11.8 29 28 41.7c6.8 5.2 14.6 9 22.3 12.5 11.3 5.2 23 9.6 34.8 13 6 1.5 11.8 3.3 17.8 3 8.3 0 16.6-2.2 24.2-5.5 9.8-4.3 18.6-10.8 26.7-17.8 11.8-10.2 23-21.5 31.5-34.7 6.6-10.4 11-22 14.3-34 3.6-13 6.2-26.5 5.5-40-.7-12.5-9.3-36.7-9.3-36.7L10.8 228.5z"/><path fill="#91473E" stroke="#673751" stroke-width="3" d="M5.5 208.5c3.2 12 6.2 25.2 14.3 34.8 7.5 9 18.4 15.6 29.7 19 17 4.8 36 4.7 53 0 24.4-7 46-23 64.6-40 14-13 26.3-28.3 33.3-45.8 5.3-13.2 9.8-28.6 5.7-42.3-3.8-12.3-14.3-23-25.7-29-16-8.7-36-8-54.3-7.5-20 .6-40.7 3.5-58.8 12-21 9.8-40.6 24.7-54.3 43.4-6 8.3-9.7 18.5-11 28.6-1 9 1.2 18.2 3.5 27z"/><path fill="#FFF4F4" d="M140 103.8c-4.6 0-9.2 0-13.7.3-19.6.7-39.5 3.5-56.4 11.5-20.2 9.4-39 23.7-52 41.3-5 7.2-8.5 16.5-9.6 25.6-.8 7.4 1 16 3.3 24.5C15 219 18 231 24.7 239c6.6 8 16.5 14 26.6 17 15.7 4.4 33.7 4.3 49.5-.2 23-6.5 43.8-21.6 62-38.5 13.3-12.3 25-27 31.5-43.4 5-12.6 9-26.8 5.5-38-3-10-12.4-19.8-22.5-25.3-10.6-5.6-23.7-7-37.4-7z"/><path fill="#DEBC00" d="M22.5 186.7c3-2 7 6 9.7 4 2.8-2.2-3.6-7.6-1.6-10.5 1.4-2 7 .8 7.2-1.6.8-5-12.8-2.4-13-7.3 0-3.7 7-3.2 9.8-5.6 3.3-3 5.7-6.8 8-10.5 3-4.4 4-9.8 7.4-13.8 2.6-3 7-4 9.7-7.2 1.6-2 1-5.8 3.2-7.3 3.2-2.4 8 0 12-1s7.4-3.5 11.3-4.8c4.5-1.4 9.2-2.2 13.7-3.2 3.8-.8 7.8-4 11.3-2.4 4.4 2 3.3 9.6 7.3 12 3 2 7.4 2.6 10.5 1 2.6-1.4 1.6-6.2 4.2-7.4 4.5-2 9.7 4.6 14.5 3.3 4.4-1.3 5-9.4 9.7-9.7 4-.3 6.2 5.2 9.7 7.2 2.4 1.4 5.2 1.8 7.3 3.3 2.6 1.7 5.3 3.6 6.5 6.4.3.8-.5 1.8 0 2.5 1.6 2 5 .5 7.3 1.6 1.3.5 2.7 1.2 3.3 2.4 2.3 4.3 1.5 9.7.8 14.5-.3 3.4-1.5 6.7-3 9.7-1.6 2.7-4.8 4.4-5.8 7.3-1 3.3 2.3 7.8 0 10.5-1 1.2-3.3 1.3-4.8.8-4.4-1.4-5.6-11.7-9.7-9.7-4.4 2 3.7 10.2 1.6 14.5-1 2.3-5 2-6.5 4-2 2.5-.7 7-3.2 9-1.7 1.3-4.3 1-6.4.8-4.8-.4-10.8-7.8-13.8-4-1.3 1.6 2 3.8 3.3 5.6 1 1.4 2.6 2.4 3.2 4 .8 2.6 1 5.6 0 8-1.7 3.8-6 5.5-9 8.2-3.4 3-6.8 6-10.5 9-3 2.2-6.6 4-9.7 6.3-4.2 3.3-7 9-12 10.5-3 1-6-.4-9-.8-3.5-.4-7.2-3-10.5-1.6-2 1-1.8 5-4 5.7-7.4 2.2-16.7-2.3-21.8-8-1.7-2 .5-6.2-1.7-7.4-1.2-.6-2.7 1-4 1.7-1.6.8-3 2.6-4.8 2.5-7.7-.7-15.6-6.7-18.6-13.8-1.5-3.5-1.4-9 1.6-11.3 3-2.4 10.5 4.7 12 1 1.5-3.4-4.7-5.8-8-7.3-3.2-1.6-7.4 0-10.5-1.7-2-1.2-4-3.3-4.8-5.6-1.5-4.4-3-11.3.8-13.7z"/><path fill="#FF0" d="M153.3 192.3L138 186l-3.3 8.8-5.6 6.4-4.8-24.2 25 2.4 9.8-3.2M181.6 156l-13.7-3.2-6.6 10.5h11.3L171 160"/><path fill="#FF0" d="M74.5 130.6l-4.2-.3-4 2-3.2 3.4 1 3.7 3 2.3 3-.6 3.4-2.2 1-2.2-.4-2.6" opacity=".8"/><path fill="#4A4815" d="M115 171.8c3 1 6 1.7 9 1.2 2.6-.4 4.7-2.4 7-3.4 2.6-1.3 6-1.4 8-3.5 1.6-1.5.8-5 2.8-6 2-1.3 5.2-1 7 .4 2.7 2.5 4 7.6 2.2 11-2.2 4-8.7 3.8-13.2 5.6-5 2-10.2 4-15.4 5.7C119 184 115 184 112 186c-1.8 1.7-2 4.8-4 6.4-3 2.7-7.7 7.8-10.7 5-3.2-2.6 5.3-8 4-11.8-1-2.6-4.7-3-7-4.6-4-3.4-8-7.3-11.3-11.4-3-3.8-3.4-10.6-8-12-7.7-2.4-15.6 13.6-22.3 9-1.7-1-1-4.4 0-6.2 2.8-4 9.6-3 13.7-5.7 2.5-1.6 3.5-5.3 6.3-6.3 4-1.2 8.3.2 12 1.7 4.4 2 6.8 7.7 11.4 8.7 4 1 11.6-2.3 11.6-2.3l3.4 9.2c.6 1.7.5 3.7 1.7 5 .6.7 1.5 1 2.3 1.2z" opacity=".9"/><path fill="#2D4B18" d="M131.4 151c-1.6 3.2-4.7 5-7 3.8-2.3-1-3-4.7-1.3-8 1.7-3 5-5 7-3.7 2.4 1.2 3 4.7 1.4 8zM113.8 145.6c-1 3.8-4.2 6.4-7 5.6-2.7-.8-4-4.5-3-8.4 1.2-4 4.3-6.4 7-5.7 2.8 1 4 4.7 3 8.6zM91.3 144.4c-1.4 3-4.2 4.4-6.2 3.4-2-1-2.4-4-1-7 1.4-2.8 4.2-4.3 6.2-3.3s2.5 4 1 7zM155.4 147c-1.6 3.2-4.7 5-7 3.8-2.3-1-3-4.7-1.3-8 1.7-3 5-5 7-3.7 2.4 1.2 3 4.7 1.4 8z"/><path fill="#294416" d="M83 225c-1.5-3.3-1-6.8 1.4-8 2.3-1 5.4.7 7 4 1.6 3 1 6.7-1.3 7.8-2 1-5.3-.6-7-4zM70.8 209.6c-1 3.8-4.2 6.4-7 5.6-2.7-.8-4-4.5-3-8.4 1.2-4 4.3-6.4 7-5.7 2.8 1 4 4.7 3 8.6zM47 200.4c-1.4-2.8-1-6 1-7s5 .6 6.3 3.5c1.4 2.7 1 5.8-1 6.8s-5-.5-6.3-3.4zM133.4 210c-1.6 3.2-4.7 5-7 3.8-2.3-1-3-4.7-1.3-8 1.7-3 5-5 7-3.7 2.4 1.2 3 4.7 1.4 8zM106 218c-1.5-3.3-1-6.8 1.4-8 2.3-1 5.4.7 7 4 1.6 3 1 6.7-1.3 7.8-2 1-5.3-.6-7-4z"/><path fill="#FFF" fill-opacity=".2" d="M137.2 47.3c5-5 10.5-10.2 17-13.7 8.6-4.7 18.4-7.4 28.2-9 7.7-1 15.8-1.5 23.4 0 12.4 2.7 24.5 8 34.7 15.5 7.2 5.2 12.3 12.6 17.8 19.5 6 7.4 12.5 14.6 16.2 23.4 1.6 3.7 6.4 11 2.4 12-3 .6-14-19-22.7-26.7-9.7-8.6-20.6-16.2-32.3-21.8-4.4-2-9.5-6-13.8-4-6.7 3.3-5.6 14-8 21-1.5 4.3-1.8 16.8-4 13 0 0-1.6-15.8-5-22.7-2.7-5.7-6.3-12-12-14.5-4.7-2.2-10.5-1.6-15.4 0-5.7 1.8-9.7 7-14.5 10.5-11.4 8.3-31.7 25-34 25 0 0 13.6-19.2 22-27.5z" opacity=".3"/><path fill="#312640" d="M180.6 25.6l2.6-1.5 5-2s-.3-6.4.5-9.3c1.2-4.5 6-12.4 6-12.4l4.7 1.2s-4 7.2-5 11.2c-.8 2.8-.5 8.8-.5 8.8s3.8 2 5.8 2.8l2.2 1s-1.3 3.4-4.2 4.8c-3 1.5-10.2 2-13.2.7-3-1.4-4-5-4-5"/></g></svg>