<svg xmlns="http://www.w3.org/2000/svg" xmlns:xlink="http://www.w3.org/1999/xlink" width="43.1" height="55" viewBox="0 0 43.1 55"><defs><path id="a" d="M15 53c2.5 0 4.2-.8 6-1.6 1.8.8 3.5 1.6 6 1.6 8 0 13-5.5 13-12.9 0-5.7-1.9-9-7.8-19.3-2-3.4-4.4-9.8-11.2-9.8s-9.2 6.3-11.2 9.8C3.9 31.1 2 34.3 2 40.1 2 47.5 7.8 53 15 53z"/></defs><use xlink:href="#a" overflow="visible" fill="#BCD676"/><clipPath id="b"><use xlink:href="#a" overflow="visible"/></clipPath><path opacity=".15" clip-path="url(#b)" fill="#DEDCD9" d="M0 11h42v42H0z"/><g clip-path="url(#b)"><path fill="#FFF" d="M27 50c-1.8 0-3-.5-4.6-1.2l-1.4-.6-1.4.6C18 49.5 16.8 50 15 50c-5.7 0-10-4.3-10-9.9 0-4.9 1.6-7.7 7.4-17.8.3-.5.5-1 .8-1.5 2.1-4 3.9-6.8 7.7-6.8 3.8 0 5.6 2.8 7.7 6.8.3.5.6 1.1.8 1.5 6 10.1 7.6 12.8 7.6 17.8 0 6-3.9 9.9-10 9.9z"/><path opacity=".15" fill="#F7D11A" d="M27 50c-1.8 0-3-.5-4.6-1.2l-1.4-.6-1.4.6C18 49.5 16.8 50 15 50c-5.7 0-10-4.3-10-9.9 0-4.9 1.6-7.7 7.4-17.8.3-.5.5-1 .8-1.5 2.1-4 3.9-6.8 7.7-6.8 3.8 0 5.6 2.8 7.7 6.8.3.5.6 1.1.8 1.5 6 10.1 7.6 12.8 7.6 17.8 0 6-3.9 9.9-10 9.9z"/></g><path clip-path="url(#b)" fill="#231F20" fill-opacity=".2" d="M43.1 55L21 54.3V9.8l22.1-.3z"/><path fill="#80B34F" d="M40 0h-7.9c-3.1 0-5.8 1.7-7.3 4.3L21 11h7.9c3.1 0 5.8-1.7 7.3-4.3L40 0z"/><path fill="#93684E" d="M15 35c0-2 2.1-3.9 4-5v5c0 1.1-.9 2-2 2s-2-.9-2-2zm12 0c0-2-2.1-3.9-4-5v5c0 1.1.9 2 2 2s2-.9 2-2z"/></svg>