<svg width="195" height="209" viewBox="0 0 195 209" xmlns="http://www.w3.org/2000/svg"><title>Perssimon</title><g fill="none" fill-rule="evenodd"><path d="M97.5 206C158 206 192 157.87 192 98.5S140 15 97.5 15 3 39.13 3 98.5C3 157.87 37 206 97.5 206z" stroke="#CA4A00" stroke-width="5" fill="#F35900"/><path d="M35.681 54.245c20.2-24.454 58.42-26.154 39.073-24.461C35.356 33.23 13.861 60.43 17.308 99.829c1.754 20.05-2.56-20.24 18.373-45.584z" fill-opacity=".4" fill="#FFF"/><g stroke="#816712" stroke-width="3" fill="#B89326"><path d="M100.027 13.056S91.01-2.288 78.547 6.158C71.395 11.003 49 33 59.606 27.588c11.624-5.93 19.446-12.14 33.223-1.108 5.628 4.508 7.197-13.424 7.197-13.424z"/><path d="M101.177 10.753c-27.681 16.959-12 13-12 13s6.972-1.655 15 0c7.905 1.63 19.376-11.496 37.682-3.958 17 7-13-26-40.682-9.042z"/><path d="M90.559 10.927c23-4 27 6 29 10 0 0 7 11-12 24-1.466-1.14-.47-5.476-5-9-6.364-4.95-22-8.156-22-12 0-3-2-8 10-13z"/></g></g></svg>