<svg xmlns="http://www.w3.org/2000/svg" xmlns:xlink="http://www.w3.org/1999/xlink" width="41.6" height="64" viewBox="0 0 41.6 64"><g fill="#80B34F"><path d="M23.8 27h-6V11.1c0-7 3.1-11.1 3.1-11.1s2.9 4.1 2.9 11.1V27z"/><path d="M7.1 4l12.3 21.5 5.7-1.6-6.5-11.5C15.2 6.4 9.7 4 7.1 4z"/><path d="M34.5 4L23 24.1h-6.6l6.5-11.5c3.5-6 9-8.6 11.6-8.6z"/><path d="M40.7 16.3L20.8 28 15 24.6l11.6-6.8c6-3.4 11.9-2.8 14.1-1.5z"/><path d="M.8 16.3l20 11.7 5.7-3.3L15 17.9C9.1 14.5 3.1 15 .8 16.3z"/></g><defs><path id="a" d="M20.8 64c-12.2 0-17-8-17-14 0-8 2.2-20 6-23 2.7-2.2 7.2-3 11-3s8.2 1 11 3c2.8 2 6 15 6 23 0 6-4.8 14-17 14z"/></defs><use xlink:href="#a" overflow="visible" fill="#E0A30A"/><clipPath id="b"><use xlink:href="#a" overflow="visible"/></clipPath><path opacity=".5" clip-path="url(#b)" fill="#EA7A2F" d="M20.8 64L10.4 46 0 64zM41.6 64L31.2 46 20.8 64z"/><path opacity=".5" clip-path="url(#b)" fill="#F7C90B" d="M41.6 24H0v4l10.4 18 10.4-18 10.4 18 10.4-18z"/><path opacity=".3" clip-path="url(#b)" fill="#FFF" d="M38.2 64h-7L8.1 24h30.1z"/></svg>