<svg xmlns="http://www.w3.org/2000/svg" xmlns:xlink="http://www.w3.org/1999/xlink" width="48" height="53" viewBox="0 0 48 53"><defs><path id="a" d="M47.6 24.5L42.1 15l2.4-1.4C45.4 13 46 12 46 11c0-1.1-.6-2.1-1.5-2.6-.9-.6-9.3-5.4-9.3-5.4-2.4-1.4-6.4-3-11.2-3s-8.7 1.6-11.1 3c0 0-8.4 4.9-9.4 5.4C2.6 8.9 2 9.9 2 11s.6 2.1 1.5 2.6L5.9 15 .4 24.5c-.5.9-.5 2.1 0 3C.9 28.4 1.9 29 3 29h3v12.5c0 1.1.6 2.1 1.5 2.6s2.1.5 3 0l2.7-1.6 5.2 8.9c.5.9 1.5 1.5 2.6 1.5s2.1-.6 2.6-1.5l.4-.7.4.7c.5.9 1.5 1.5 2.6 1.5s2.1-.6 2.6-1.5l5.2-8.9 2.7 1.6c.9.5 2.1.5 3 0 .9-.5 1.5-1.5 1.5-2.6V29h3c1.1 0 2.1-.6 2.6-1.5s.5-2.1 0-3z"/></defs><use xlink:href="#a" overflow="visible" fill="#F7C90B"/><clipPath id="b"><use xlink:href="#a" overflow="visible"/></clipPath><path opacity=".3" clip-path="url(#b)" fill="#EA7A2F" d="M48 53H6V29h11.8l24.3-14H48z"/><path opacity=".15" clip-path="url(#b)" fill="#7D1CC7" d="M24 0h24v53H24z"/><g clip-path="url(#b)"><ellipse fill="#DEDCD9" cx="24" cy="23.5" rx="16" ry="20.5"/><path opacity=".6" fill="#47475E" d="M22 38c0 1.1-.7 2-1.5 2s-1.5-.9-1.5-2 .7-2 1.5-2 1.5.9 1.5 2zm7 0c0 1.1-.7 2-1.5 2s-1.5-.9-1.5-2 .7-2 1.5-2 1.5.9 1.5 2zm6-23c0 1.1-.7 2-1.5 2s-1.5-.9-1.5-2 .7-2 1.5-2 1.5.9 1.5 2zM23 31c0 1.1-.7 2-1.5 2s-1.5-.9-1.5-2 .7-2 1.5-2 1.5.9 1.5 2zm6-2c0 1.1-.7 2-1.5 2s-1.5-.9-1.5-2 .7-2 1.5-2 1.5.9 1.5 2zm2-7c0 1.1-.7 2-1.5 2s-1.5-.9-1.5-2 .7-2 1.5-2 1.5.9 1.5 2zm-3-6c0 1.1-.7 2-1.5 2s-1.5-.9-1.5-2 .7-2 1.5-2 1.5.9 1.5 2zm9 8c0 1.1-.7 2-1.5 2s-1.5-.9-1.5-2 .7-2 1.5-2 1.5.9 1.5 2zm-2 8c0 1.1-.7 2-1.5 2s-1.5-.9-1.5-2 .7-2 1.5-2 1.5.9 1.5 2zm-22 0c0-1.1.7-2 1.5-2s1.5.9 1.5 2-.7 2-1.5 2-1.5-.9-1.5-2zm6-14c0-1.1.7-2 1.5-2s1.5.9 1.5 2-.7 2-1.5 2-1.5-.9-1.5-2zm-2 7c0-1.1.7-2 1.5-2s1.5.9 1.5 2-.7 2-1.5 2-1.5-.9-1.5-2zm-6-2c0-1.1.7-2 1.5-2s1.5.9 1.5 2-.7 2-1.5 2-1.5-.9-1.5-2zm2-8c0-1.1.7-2 1.5-2s1.5.9 1.5 2-.7 2-1.5 2-1.5-.9-1.5-2zm9-6c0 1.1-.7 2-1.5 2S19 10.1 19 9s.7-2 1.5-2 1.5.9 1.5 2zm7 0c0 1.1-.7 2-1.5 2S26 10.1 26 9s.7-2 1.5-2 1.5.9 1.5 2z"/><path opacity=".3" fill="#FFF" d="M24 44c-8.8 0-16-9.2-16-20.5S15.2 3 24 3v41z"/></g></svg>