<svg xmlns="http://www.w3.org/2000/svg" width="655.1" height="729.3" viewBox="0 0 655.1 729.3"><path fill="#6D1211" d="M413.3 173.3l130.3-125L488 220.7"/><path fill="#6D1211" d="M500.4 229.7s81.3-73.2 154.7-57.2c0 0-103.5-87.8-183.8 8.3s29.1 48.9 29.1 48.9zM397.2 164.3S428.7 59.5 382.9 0c0 0 123.6 56.1 71 169.7s-56.7-5.4-56.7-5.4z"/><circle fill="#B92026" stroke="#6D1211" stroke-width="16" stroke-miterlimit="10" cx="305.9" cy="423.4" r="297.8"/><path fill="#C91B27" d="M449.3 179.3c137.9 87.4 180.9 264 95.6 398.6S283.9 745.4 146 658c0 0 76.5-60.6 180.4-218.6C442.5 263 449.3 179.3 449.3 179.3z"/><path fill="#DD3636" d="M144.1 232.2s.9-1 2.6-3c1.7-1.9 4.1-4.7 7.8-8.2 3.6-3.6 8.1-7.5 13.4-11.9 2.7-2.1 5.6-4.4 8.8-6.7 1.6-1.1 3.2-2.3 4.9-3.4.8-.6 1.7-1.2 2.6-1.7.9-.6 1.8-1.1 2.7-1.7 1.8-1.1 3.7-2.3 5.6-3.4 1.9-1.2 3.9-2.2 5.9-3.3 4-2.3 8.3-4.3 12.8-6.5 1.1-.6 2.2-1 3.4-1.5 1.1-.5 2.3-1 3.5-1.5 2.3-1 4.7-2 7.1-2.9 2.4-.9 4.9-1.8 7.4-2.7 2.5-.8 5.1-1.6 7.6-2.4 10.3-3.1 21.2-5.7 32.5-7.4 11.3-1.7 22.8-2.5 34.4-2.6 11.6-.1 23.1.9 34.4 2.6 2.8.5 5.6.8 8.4 1.4 2.8.6 5.5 1.1 8.2 1.7 2.7.6 5.4 1.3 8.1 2 2.7.7 5.3 1.5 7.9 2.3 5.2 1.5 10.2 3.4 15 5.2 2.4 1 4.8 2 7.1 3 1.2.5 2.3 1 3.5 1.5 1.1.5 2.3 1.1 3.4 1.6 9 4.1 17 8.9 24.2 13.5 3.6 2.4 6.9 4.7 10.1 7 3.1 2.4 6 4.6 8.7 6.8 2.6 2.3 5.1 4.4 7.3 6.4.3.3.6.5.8.7.3.2.5.5.8.7l1.5 1.5c1 .9 1.9 1.9 2.8 2.7 3.5 3.5 6.1 6.4 7.8 8.4.9 1 1.5 1.8 1.9 2.3.4.5.7.8.7.8 2.1 2.6 1.8 6.4-.9 8.6-2 1.6-4.7 1.8-6.8.6l-.1-.1s-1.2-.7-3.4-1.9-5.4-3-9.4-5.2c-1-.5-2.1-1.1-3.2-1.7-.6-.3-1.1-.6-1.7-.9-.3-.2-.6-.3-.9-.5-.3-.1-.6-.3-.9-.4-2.5-1.2-5.1-2.6-8-4-2.9-1.3-5.9-2.8-9.1-4.3-3.2-1.4-6.6-2.9-10.2-4.4-1.8-.7-3.6-1.4-5.5-2.2-.9-.4-1.9-.7-2.8-1.1-1-.3-1.9-.7-2.9-1-1.9-.7-3.9-1.4-5.9-2.1-2-.6-4.1-1.3-6.2-2-1-.3-2.1-.7-3.1-1-1.1-.3-2.1-.6-3.2-.9-2.1-.6-4.3-1.3-6.5-1.8-4.4-1.1-8.9-2.3-13.5-3.3-4.6-1.1-9.3-1.8-14.1-2.7-2.4-.3-4.8-.7-7.2-1.1-1.2-.2-2.4-.3-3.6-.5-1.2-.1-2.4-.3-3.7-.4-1.2-.1-2.4-.3-3.7-.4-1.2-.1-2.5-.2-3.7-.3-2.5-.2-4.9-.5-7.4-.6-2.5-.1-5-.3-7.5-.4l-7.5-.1c-10 0-20 .5-29.8 1.4-9.8 1-19.4 2.6-28.7 4.5-9.3 1.8-18.1 4.3-26.5 6.8-4.1 1.4-8.2 2.6-12.1 4.1-1.9.7-3.9 1.3-5.7 2.1-1.8.8-3.7 1.5-5.5 2.2-.9.4-1.8.7-2.7 1-.9.4-1.7.8-2.6 1.1-1.7.8-3.4 1.5-5 2.1-3.2 1.4-6.2 2.9-9.1 4.2-2.9 1.4-5.5 2.8-8 4l-1.8.9c-.6.3-1.1.6-1.7.9-1.1.6-2.2 1.2-3.1 1.7-4 2-7.3 4.1-9.5 5.3-2.2 1.2-3.4 1.9-3.4 1.9-2.9 1.6-6.6.6-8.3-2.4-1.5-2.3-1.2-5.1.5-7z"/></svg>