<svg xmlns="http://www.w3.org/2000/svg" xmlns:xlink="http://www.w3.org/1999/xlink" width="51" height="37" viewBox="0 0 51 37"><defs><path id="a" d="M51 21.4C51 30.5 40.4 37 26 37S0 29.6 0 18C0 7.6 8.8 0 21 0c7 0 14.9 4.8 18 10.2 6.8.8 12 5.3 12 11.2z"/></defs><use xlink:href="#a" overflow="visible" fill="#93684e"/><clipPath id="b"><use xlink:href="#a" overflow="visible"/></clipPath><path d="M0 22.5C0 15.2 6.1 10 14.6 10c4.9 0 10.4 3.3 12.5 7 2.2 3.7 11.5 20 11.5 20H51V0H0v22.5z" opacity=".3" clip-path="url(#b)" fill="#fff"/><path opacity=".5" clip-path="url(#b)" fill="#d99a57" d="M0 0h51v37H0z"/><path d="M18 29c0 1.1-.9 2-2 2s-2-.9-2-2 .9-2 2-2 2 .9 2 2zm8-2c-1.1 0-2 .9-2 2s.9 2 2 2 2-.9 2-2-.9-2-2-2zm-5.1-8.5c-1.1 0-2 .9-2 2s.9 2 2 2 2-.9 2-2-.9-2-2-2zm20 0c-1.1 0-2 .9-2 2s.9 2 2 2 2-.9 2-2-.9-2-2-2z" opacity=".5" clip-path="url(#b)" fill="#47475e"/></svg>