<svg xmlns="http://www.w3.org/2000/svg" xmlns:xlink="http://www.w3.org/1999/xlink" width="56" height="50" viewBox="0 0 56 50"><g fill-rule="evenodd" clip-rule="evenodd"><path fill="#BCD676" d="M31.1 5c-.3-1-.9-3.4-1.1-4-.1-.6-1.1-1-2-1s-1.8.4-1.9 1c-.1.6-.8 3-1.1 4-.3 1-1.1 2-2.8 3-1.7 1-3.5 2-5.2 3h22c-1.7-1-3.5-2-5.2-3-1.7-1-2.5-2-2.7-3z"/><path opacity=".5" fill="#93684E" d="M31.1 5c-.3-1-.9-3.4-1.1-4-.1-.6-1.1-1-2-1s-1.8.4-1.9 1c-.1.6-.8 3-1.1 4-.3 1-1.1 2-2.8 3-1.7 1-3.5 2-5.2 3h22c-1.7-1-3.5-2-5.2-3-1.7-1-2.5-2-2.7-3z"/></g><defs><path id="a" d="M56 29c0 16.1-12 21-28 21S0 45.1 0 29 12 8 28 8s28 4.9 28 21z"/></defs><use xlink:href="#a" overflow="visible" fill="#EA7A2F"/><clipPath id="b"><use xlink:href="#a" overflow="visible"/></clipPath><path clip-path="url(#b)" fill="#231F20" fill-opacity=".15" d="M34 8l.3.3C41.1 12.2 48 16.5 48 29s-6.9 16.8-13.7 20.7l-.3.3h22V8H34z"/><path clip-path="url(#b)" fill="#F7C90B" fill-opacity=".3" d="M25.7 50c-2-3.4-5.7-8.5-5.7-21s3.7-17.6 5.7-21H22l-.3.3C14.9 12.2 8 16.5 8 29s6.9 16.8 13.7 20.7l.3.3h3.7z"/><path clip-path="url(#b)" fill="#F7C90B" fill-opacity=".3" d="M30.3 8c2 3.4 5.7 8.5 5.7 21s-3.7 17.6-5.7 21H0V8h30.3z"/></svg>