<svg xmlns="http://www.w3.org/2000/svg" xmlns:xlink="http://www.w3.org/1999/xlink" width="53.3" height="48.4" viewBox="0 0 53.3 48.4"><path fill="#80B34F" d="M46.7 19.4H28v4h20c-.4-1.3-.8-2.7-1.3-4z"/><defs><path id="a" d="M45.6 8l-12.4 7.1 7.1-12.4c-1.2-1-2.5-1.9-3.9-2.8L20.2 28.2l28.2-16.3c-.8-1.3-1.7-2.6-2.8-3.9z"/></defs><use xlink:href="#a" overflow="visible" fill-rule="evenodd" clip-rule="evenodd" fill="#BCD676"/><clipPath id="b"><use xlink:href="#a" overflow="visible"/></clipPath><path opacity=".3" clip-path="url(#b)" fill-rule="evenodd" clip-rule="evenodd" fill="#80B34F" d="M28.3 23.8h25v-22H41c-1.3 2.3-7.5 12.9-12.7 22z"/><g><defs><path id="c" d="M26.9 21.5c-5.5-5.5-14.3-5.5-19.8 0C3 25.6 2 31.6 4 36.6c.4 1 1.5 2.8.8 4-.7 1.2-4.1 7.1-4.1 7.1s5.8-3.4 7.1-4.1c1.2-.7 3 .4 4 .8 5 2 11 1 15.1-3.1 5.5-5.4 5.5-14.3 0-19.8z"/></defs><use xlink:href="#c" overflow="visible" fill="#DE7047"/><clipPath id="d"><use xlink:href="#c" overflow="visible"/></clipPath><path clip-path="url(#d)" fill-rule="evenodd" clip-rule="evenodd" fill="#231F20" fill-opacity=".3" d="M7.8 43.6c8.9-5.1 13-6.9 20.7-20.2H31v24.3H7.8v-4.1z"/><path opacity=".5" clip-path="url(#d)" fill-rule="evenodd" clip-rule="evenodd" fill="#FFF" d="M4.3 25.4L23 44.2v4.2H0v-23z"/></g></svg>