<svg xmlns="http://www.w3.org/2000/svg" xmlns:xlink="http://www.w3.org/1999/xlink" width="39" height="40" viewBox="0 0 39 40"><defs><path id="a" d="M39 17.5c0-2.1-1.2-4-3-4.9.6-.9 1-2 1-3.1 0-3-2.5-5.5-5.5-5.5-.9 0-1.8.2-2.6.6C28.5 2 26.2 0 23.5 0c-1.6 0-3 .7-4 1.7-1-1.1-2.4-1.7-4-1.7-2.7 0-5 2-5.4 4.6-.8-.4-1.7-.6-2.6-.6C4.5 4 2 6.5 2 9.5c0 1.2.4 2.2 1 3.1-1.8.9-3 2.8-3 4.9s1.2 4 3 4.9c-.6.9-1 2-1 3.1 0 2.6 1.8 4.8 4.3 5.4-.2.5-.3 1-.3 1.6 0 3 2.5 5.5 5.5 5.5 1.2 0 2.2-.4 3.1-1 .9 1.8 2.8 3 4.9 3 2.1 0 4-1.2 4.9-3 .9.6 2 1 3.1 1 3 0 5.5-2.5 5.5-5.5 0-.6-.1-1.1-.3-1.6 2.4-.6 4.3-2.7 4.3-5.4 0-1.2-.4-2.2-1-3.1 1.8-.9 3-2.8 3-4.9z"/></defs><use xlink:href="#a" overflow="visible" fill-rule="evenodd" clip-rule="evenodd" fill="#de7047"/><clipPath id="b"><use xlink:href="#a" overflow="visible"/></clipPath><path d="M39 6v34H0v-9s3.8-.7 6.2-.1c.5.1.9.1 1.3.1 2.2 0 4.1-1.3 5-3.2.9 1.9 2.8 3.2 5 3.2 3 0 5.5-2.5 5.5-5.5 0-1.1-.3-2.2-.9-3.1.7.4 1.6.6 2.4.6 3 0 5.5-2.5 5.5-5.5 0-1.1-.3-2.2-.9-3.1.7.4 1.6.6 2.4.6 3 0 5.5-2.5 5.5-5.5S39 6 39 6z" opacity=".5" clip-path="url(#b)" fill-rule="evenodd" clip-rule="evenodd" fill="#47475e"/><g opacity=".5"><path d="M18 5.5c0-3 2.5-5.5 5.5-5.5S29 2.5 29 5.5 26.5 11 23.5 11 18 8.5 18 5.5zM12.5 23c3 0 5.5-2.5 5.5-5.5S15.5 12 12.5 12 7 14.5 7 17.5 9.5 23 12.5 23z" fill-rule="evenodd" clip-rule="evenodd" fill="#d993ad"/><path d="M18 5.5c0-3 2.5-5.5 5.5-5.5S29 2.5 29 5.5 26.5 11 23.5 11 18 8.5 18 5.5zM12.5 23c3 0 5.5-2.5 5.5-5.5S15.5 12 12.5 12 7 14.5 7 17.5 9.5 23 12.5 23z" fill-rule="evenodd" clip-rule="evenodd" fill="#fff" opacity=".3"/></g></svg>