<svg xmlns="http://www.w3.org/2000/svg" xmlns:xlink="http://www.w3.org/1999/xlink" width="40" height="51.9" viewBox="0 0 40 51.9"><g fill-rule="evenodd" clip-rule="evenodd"><path fill="#BCD676" d="M37.1 8.2c.3-1 1.5-5.4 1.6-6 .1-.6-.4-1.4-1.2-1.9-.8-.5-1.8-.5-2.2-.1l-4.4 4.4c-.7.8 5.9 4.6 6.2 3.6z"/><path opacity=".5" fill="#93684E" d="M37.1 8.2c.3-1 1.5-5.4 1.6-6 .1-.6-.4-1.4-1.2-1.9-.8-.5-1.8-.5-2.2-.1l-4.4 4.4c-.7.8 5.9 4.6 6.2 3.6z"/></g><defs><path id="a" d="M33.8 28.6c.9-1.6 2.4-4.1 4.7-8.2 3-5.2 1.2-11.9-4-14.9s-11.9-1.2-14.9 4c-2.4 4.1-3.8 6.6-4.7 8.2-.9 1.6-3 3.1-6.4 5.1-2.5 1.4-5.4 3.9-6.9 6.4-4.1 7-.2 15.2 7.7 19.8 7.9 4.6 17 3.8 21-3.2 1.5-2.6 2.2-6.3 2.2-9.2.1-3.9.3-6.4 1.3-8z"/></defs><use xlink:href="#a" overflow="visible" fill="#EA7A2F"/><clipPath id="b"><use xlink:href="#a" overflow="visible"/></clipPath><path clip-path="url(#b)" fill="#F7C90B" fill-opacity=".3" d="M0 4.2h40v47.7H0z"/><path clip-path="url(#b)" fill-rule="evenodd" clip-rule="evenodd" fill="#EA7A2F" d="M24.3 41.3c-2.5 4.3-7.5 4.9-11.8 2.4-4.3-2.5-6.3-7.1-3.8-11.4 2.5-4.3 9.4-7.6 13.4-5.3s4.7 10 2.2 14.3z"/><path clip-path="url(#b)" fill="#E9BF54" d="M16.6 32.3c.7-.4.9-1.5.3-2.5-.6-1-1.6-1.4-2.3-1-.7.4-.9 1.5-.3 2.5.6 1 1.6 1.4 2.3 1zm-2.4 2.2c.4-.7 0-1.7-1-2.3-1-.6-2.1-.4-2.5.3-.4.7 0 1.7 1 2.3 1 .6 2.1.4 2.5-.3zm-.7 3.8c0-.8-.9-1.5-2-1.5s-2 .7-2 1.5.9 1.5 2 1.5 2-.7 2-1.5zm8.8-2.4c1.1 0 2-.7 2-1.5s-.9-1.5-2-1.5-2 .7-2 1.5.8 1.5 2 1.5zm-1.8 4c1 .6 2.1.4 2.5-.3.4-.7 0-1.7-1-2.3-1-.6-2.1-.4-2.5.3-.4.7 0 1.7 1 2.3zm-4.2 2.7c.6 1 1.6 1.4 2.3 1 .7-.4.9-1.5.3-2.5-.6-1-1.6-1.4-2.3-1-.7.4-.8 1.5-.3 2.5z"/><path clip-path="url(#b)" fill="#FFF" fill-opacity=".3" d="M37.3 7.7c-2.7 0-4.7 1.2-6.2 3.7C29.4 14.3 10 47.9 9.4 49H0V4h37.2l.1 3.7z"/></svg>