<svg xmlns="http://www.w3.org/2000/svg" xmlns:xlink="http://www.w3.org/1999/xlink" width="37" height="49" viewBox="0 0 37 49"><path d="M29.124 2.697a8.076 8.076 0 0 1-4.044 7 8.073 8.073 0 0 1-8.08.001l12.124-7.001z" fill="#80b34f"/><path d="M29.124 2.697a8.076 8.076 0 0 1-4.044 7 8.073 8.073 0 0 1-8.08.001l12.124-7.001z" opacity=".3" fill="#006838"/><path d="M20 9.698a8.07 8.07 0 0 1-8.08-.001 8.076 8.076 0 0 1-4.044-7L20 9.698z" fill="#80b34f"/><path d="M20 9.698a8.07 8.07 0 0 1-8.08-.001 8.076 8.076 0 0 1-4.044-7L20 9.698z" fill="#006838" opacity=".3"/><path d="M20 12V1c0-.552-.671-1-1.5-1S17 .448 17 1v11h3z" fill="#80b34f"/><g><defs><path id="a" d="M18.499 49c-3.949 0-6.54-2.237-7.829-4.5 0 0-2.952-5.135-7.749-13.489-4.798-8.354-3.19-13.872 1.241-17.141C7.021 11.759 11.985 11 18.5 11c6.515 0 11.479.759 14.337 2.87 4.433 3.269 6.039 8.787 1.242 17.141L26.328 44.5c-1.287 2.263-3.881 4.5-7.829 4.5z"/></defs><use xlink:href="#a" overflow="visible" fill="#c7441c"/><clipPath id="b"><use xlink:href="#a" overflow="visible"/></clipPath><path d="M0 46V7s14.399.258 17.258 2.369c4.433 3.269 6.039 8.787 1.242 17.141L7.821 45.095 0 46z" opacity=".3" clip-path="url(#b)" fill="#d993ad"/><g opacity=".6" clip-path="url(#b)"><path d="M20 43.5a1.5 1.5 0 1 1-2.8-.75l1.3-2.24s1.24 2.139 1.3 2.24c.128.221.2.477.2.75zm-4.2-7.75l-1.3-2.24s-1.24 2.139-1.3 2.24a1.5 1.5 0 1 0 2.6 0zm8 0l-1.3-2.24s-1.24 2.139-1.3 2.24a1.5 1.5 0 1 0 2.6 0zm-8-14l-1.3-2.24s-1.24 2.139-1.3 2.24a1.5 1.5 0 1 0 2.6 0zm-8 0l-1.3-2.24s-1.24 2.139-1.3 2.24a1.5 1.5 0 1 0 2.6 0zm24 0l-1.3-2.24s-1.24 2.139-1.3 2.24a1.5 1.5 0 1 0 2.6 0zm-8 0l-1.3-2.24s-1.24 2.139-1.3 2.24a1.5 1.5 0 1 0 2.6 0zm-4 7l-1.3-2.24s-1.24 2.139-1.3 2.24a1.5 1.5 0 1 0 2.6 0zm8 0l-1.3-2.24s-1.24 2.139-1.3 2.24a1.5 1.5 0 1 0 2.6 0zm-16 0l-1.3-2.24s-1.24 2.139-1.3 2.24a1.5 1.5 0 1 0 2.6 0z" fill="#f7d11a"/><path d="M20 43.5a1.5 1.5 0 1 1-2.8-.75l1.3-2.24s1.24 2.139 1.3 2.24c.128.221.2.477.2.75zm-4.2-7.75l-1.3-2.24s-1.24 2.139-1.3 2.24a1.5 1.5 0 1 0 2.6 0zm8 0l-1.3-2.24s-1.24 2.139-1.3 2.24a1.5 1.5 0 1 0 2.6 0zm-8-14l-1.3-2.24s-1.24 2.139-1.3 2.24a1.5 1.5 0 1 0 2.6 0zm-8 0l-1.3-2.24s-1.24 2.139-1.3 2.24a1.5 1.5 0 1 0 2.6 0zm24 0l-1.3-2.24s-1.24 2.139-1.3 2.24a1.5 1.5 0 1 0 2.6 0zm-8 0l-1.3-2.24s-1.24 2.139-1.3 2.24a1.5 1.5 0 1 0 2.6 0zm-4 7l-1.3-2.24s-1.24 2.139-1.3 2.24a1.5 1.5 0 1 0 2.6 0zm8 0l-1.3-2.24s-1.24 2.139-1.3 2.24a1.5 1.5 0 1 0 2.6 0zm-16 0l-1.3-2.24s-1.24 2.139-1.3 2.24a1.5 1.5 0 1 0 2.6 0z" fill="#fff" opacity=".5"/></g></g><g fill="#80b34f"><path d="M4 9a9.23 9.23 0 0 0 8.002 4.618A9.223 9.223 0 0 0 20 9.001L4 9z"/><path d="M33 9a9.23 9.23 0 0 1-8.002 4.618A9.22 9.22 0 0 1 17 9.001L33 9z"/></g></svg>