<svg xmlns="http://www.w3.org/2000/svg" xmlns:xlink="http://www.w3.org/1999/xlink" width="44" height="45" viewBox="0 0 44 45"><path fill="#80B34F" d="M43.9 0l-4 6.8c-1.6 2.7-4.3 4.2-7.4 4.2h-8.7l4-6.8C29.3 1.5 32.1 0 35.2 0h8.7z"/><defs><path id="a" d="M44 29c0 12.1-8.5 16-22 16S0 41.1 0 29s8.5-16 22-16 22 3.9 22 16z"/></defs><use xlink:href="#a" overflow="visible" fill="#DE7047"/><clipPath id="b"><use xlink:href="#a" overflow="visible"/></clipPath><path opacity=".15" clip-path="url(#b)" fill="#F7D11A" d="M0 12.6h22V45H0z"/><path opacity=".3" clip-path="url(#b)" fill="#F7D11A" d="M31.9 20.8c.9-1.5 8-13.8 8-13.8H0v22h17.4c6.9 0 11.3-2.5 14.5-8.2z"/></svg>