<svg xmlns="http://www.w3.org/2000/svg" xmlns:xlink="http://www.w3.org/1999/xlink" width="42" height="42" viewBox="0 0 42 42"><path fill="#80b34f" d="M23 7.5L21 0l-2 7.5L9.5 2 21 22 32.5 2z"/><defs><path id="a" d="M29 9c-2.7 0-5.8 1.1-8 2.3-2.2-1.2-5.3-2.3-8-2.3C6.5 9 0 13.7 0 24s7.9 18 21 18 21-7.7 21-18S35.3 9 29 9z"/></defs><use xlink:href="#a" overflow="visible" fill="#de7047"/><clipPath id="b"><use xlink:href="#a" overflow="visible"/></clipPath><path clip-path="url(#b)" fill="#c7441c" fill-opacity=".3" d="M21 9h21v33H21z"/><g><path d="M13.4 24c0-4.3 2.2-6.6 4.4-7.9-1.3-1.5-3.1-2.1-4.8-2.1-5.4 0-8 5.4-8 10 0 4.3 1.8 7.8 5 10 1 .7 3.2 1.7 5.1 1.3 1.4-.3 2.4-1.3 3.3-3.5-3-1.7-5-4.6-5-7.8z" fill="#c7441c"/></g><g><path d="M28.6 24c0-4.3-2.2-6.6-4.4-7.9 1.3-1.5 3.1-2.1 4.8-2.1 5.4 0 8 5.4 8 10 0 4.3-1.8 7.8-5 10-1 .7-3.2 1.7-5.1 1.3-1.4-.3-2.4-1.3-3.3-3.5 3-1.7 5-4.6 5-7.8z" fill="#c7441c"/></g><path d="M31.6 29H29s1.2 2 1.3 2.3c.3.4.7.7 1.3.7.8 0 1.5-.7 1.5-1.5s-.7-1.5-1.5-1.5zm1.5-10.5c0-.8-.7-1.5-1.5-1.5-.6 0-1 .3-1.3.7C30.2 18 29 20 29 20h2.6c.8 0 1.5-.7 1.5-1.5zm-.3 4.7c-.3.2-2.3 1.3-2.3 1.3s2 1.2 2.3 1.3c.4.3 1 .3 1.5 0 .7-.4 1-1.3.5-2-.4-.8-1.3-1-2-.6zM8.9 30.5c0 .8.7 1.5 1.5 1.5.6 0 1-.3 1.3-.7C11.8 31 13 29 13 29h-2.6c-.8 0-1.5.7-1.5 1.5zM10.4 20H13s-1.2-2-1.3-2.3c-.3-.4-.7-.7-1.3-.7-.8 0-1.5.7-1.5 1.5s.7 1.5 1.5 1.5zm-3.2 3.8c-.4.7-.2 1.6.5 2 .5.3 1 .3 1.5 0 .2-.1 2.3-1.3 2.3-1.3s-2-1.1-2.3-1.3c-.7-.4-1.6-.2-2 .6z" opacity=".7" fill="#e9bf54"/></svg>