<?xml version="1.0" encoding="utf-8"?>
<!-- Generator: Adobe Illustrator 19.0.0, SVG Export Plug-In . SVG Version: 6.00 Build 0)  -->
<svg version="1.1" id="Layer_1" xmlns="http://www.w3.org/2000/svg" xmlns:xlink="http://www.w3.org/1999/xlink" x="0px" y="0px"
	 width="48px" height="38px" viewBox="0 0 48 38" style="enable-background:new 0 0 48 38;" xml:space="preserve">
<g>
	<defs>
		<path id="SVGID_1_" d="M21.7,2.1c1.8,3.1-3.8,11.7-8.9,14.6c-4.7,2.7-9.6,1-11.7-2.7C-1,10.2-0.2,5.2,4.6,2.4
			C9.6-0.5,19.9-1,21.7,2.1z M47.7,2.1c1.8,3.1-3.8,11.7-8.9,14.6c-4.7,2.7-9.6,1-11.7-2.7c-2.1-3.7-1.3-8.8,3.5-11.5
			C35.6-0.5,45.9-1,47.7,2.1z M30.7,22.1c1.8,3.1-3.8,11.7-8.9,14.6c-4.7,2.7-9.6,1-11.7-2.7c-2.1-3.7-1.3-8.8,3.5-11.5
			C18.6,19.5,28.9,19,30.7,22.1z"/>
	</defs>
	<use xlink:href="#SVGID_1_"  style="overflow:visible;fill-rule:evenodd;clip-rule:evenodd;fill:#D99A57;"/>
	<clipPath id="SVGID_2_">
		<use xlink:href="#SVGID_1_"  style="overflow:visible;"/>
	</clipPath>
	
		<rect x="0" style="opacity:0.3;clip-path:url(#SVGID_2_);fill-rule:evenodd;clip-rule:evenodd;fill:#EA7A2F;" width="48" height="38"/>
	
		<rect x="9" y="19.9" style="opacity:0.3;clip-path:url(#SVGID_2_);fill-rule:evenodd;clip-rule:evenodd;fill:#93684E;" width="22" height="18.1"/>
	<path style="opacity:0.5;clip-path:url(#SVGID_2_);fill-rule:evenodd;clip-rule:evenodd;fill:#93684E;" d="M31,38V21.9L9,34.6V38
		H31z M22,18V1.9L0,14.6V18H22z M48,18V1.9L26,14.6V18H48z"/>
</g>
</svg>
