<?xml version="1.0" encoding="utf-8"?>
<!-- Generator: Adobe Illustrator 19.0.0, SVG Export Plug-In . SVG Version: 6.00 Build 0)  -->
<svg version="1.1" id="Layer_1" xmlns="http://www.w3.org/2000/svg" xmlns:xlink="http://www.w3.org/1999/xlink" x="0px" y="0px"
	 width="59.4px" height="49px" viewBox="0 0 59.4 49" enable-background="new 0 0 59.4 49" xml:space="preserve">
<g>
	<defs>
		<path id="SVGID_1_" d="M50.8,16.6c0.6-1.1,0.9-2.3,0.9-3.6c0-4.4-3.6-8-8-8c-0.5,0-1,0.1-1.5,0.2C41,2.1,38.1,0,34.7,0
			c-1.9,0-3.6,0.7-5,1.8c-1.4-1.1-3.1-1.8-5-1.8c-3.4,0-6.3,2.1-7.5,5.2c-0.5-0.1-1-0.2-1.5-0.2c-4.4,0-8,3.6-8,8
			c0,1.3,0.3,2.5,0.9,3.6c-2.9,1.2-4.9,4.1-4.9,7.4c0,4.4,3.6,8,8,8c2.5,0,4.4,13.1,18,13.1S45.2,32,47.7,32c4.4,0,8-3.6,8-8
			C55.7,20.7,53.7,17.8,50.8,16.6z"/>
	</defs>
	<use xlink:href="#SVGID_1_"  overflow="visible" fill-rule="evenodd" clip-rule="evenodd" fill="#DEDCD9"/>
	<clipPath id="SVGID_2_">
		<use xlink:href="#SVGID_1_"  overflow="visible"/>
	</clipPath>
	<path opacity="0.3" clip-path="url(#SVGID_2_)" fill="#FFFFFF" d="M47.7,16c-1.2,0-2.3,0.3-3.3,0.7c-1-3.3-4-5.7-7.7-5.7
		c-3.3,0-6.2,2-7.4,4.9C28.2,15.3,27,15,25.7,15c-4.4,0-8,3.6-8,8c0,1.3,0.3,2.5,0.9,3.6c-2.9,1.2-4.9,4.1-4.9,7.4h-10V0h52v24
		C55.7,19.6,52.1,16,47.7,16z"/>
</g>
<g>
	<defs>
		<path id="SVGID_3_" d="M54.1,27c-3.2,0-6.1,1.8-7.6,4.5C46.2,32,45.6,33,45,34c-1.5,0-3.3,0-4.6,0c-3,0-5.7,1.7-7.1,4.2
			c-0.3,0.6-2.2,3.8-3.6,6.2c-1.4-2.4-3.2-5.6-3.6-6.2C24.7,35.7,22,34,19,34c-1.3,0-3.1,0-4.6,0c-0.6-1-1.2-2-1.5-2.5
			C11.4,28.8,8.5,27,5.3,27H0c0,0,2,3.5,4.4,7.7C9.4,43.2,18.6,49,29.2,49c0.2,0,0.8,0,1,0C40.8,49,50,43.2,55,34.7
			c2.4-4.2,4.4-7.7,4.4-7.7H54.1z"/>
	</defs>
	<use xlink:href="#SVGID_3_"  overflow="visible" fill-rule="evenodd" clip-rule="evenodd" fill="#80B34F"/>
	<clipPath id="SVGID_4_">
		<use xlink:href="#SVGID_3_"  overflow="visible"/>
	</clipPath>
	<polygon opacity="0.3" clip-path="url(#SVGID_4_)" fill-rule="evenodd" clip-rule="evenodd" fill="#9CE84D" points="32.4,49 0,49 
		0,27 19.7,27 	"/>
</g>
</svg>
