<?xml version="1.0" encoding="utf-8"?>
<!-- Generator: Adobe Illustrator 19.0.0, SVG Export Plug-In . SVG Version: 6.00 Build 0)  -->
<svg version="1.1" id="Layer_1" xmlns="http://www.w3.org/2000/svg" xmlns:xlink="http://www.w3.org/1999/xlink" x="0px" y="0px"
	 width="50.7px" height="52.7px" viewBox="0 0 50.7 52.7" style="enable-background:new 0 0 50.7 52.7;" xml:space="preserve">
<polygon style="fill:#80B34F;" points="13.6,12.5 23.7,6.7 17,6.7 17,0 13.6,5.8 7.8,2.5 "/>
<polygon style="fill:#80B34F;" points="40.6,12.5 50.7,6.7 44,6.7 44,0 40.6,5.8 34.8,2.5 "/>
<polygon style="fill:#80B34F;" points="26.6,35.5 36.7,29.7 30,29.7 30,23 26.6,28.8 21.3,25.7 26.3,34.4 "/>
<g>
	<defs>
		<path id="SVGID_1_" d="M11.5,28.7C5.7,28.7,1,24,1,18.2S5.7,7.7,11.5,7.7S22,12.4,22,18.2S17.3,28.7,11.5,28.7z M36,41.2
			c0-5.8-4.7-10.5-10.5-10.5S15,35.4,15,41.2s4.7,10.5,10.5,10.5S36,47,36,41.2z M50,18.2c0-5.8-4.7-10.5-10.5-10.5S29,12.4,29,18.2
			s4.7,10.5,10.5,10.5S50,24,50,18.2z"/>
	</defs>
	<use xlink:href="#SVGID_1_"  style="overflow:visible;fill:#DE7047;"/>
	<clipPath id="SVGID_2_">
		<use xlink:href="#SVGID_1_"  style="overflow:visible;"/>
	</clipPath>
	<path style="opacity:0.5;clip-path:url(#SVGID_2_);fill:#C7441C;" d="M32.5,32.1L14.1,42.8c0.8,5.6,5.6,10,11.4,10
		c6.4,0,11.5-5.1,11.5-11.5C37,37.5,35.2,34.2,32.5,32.1z"/>
	<path style="clip-path:url(#SVGID_2_);fill:#EA7A2F;" d="M20.8,24.9L10.3,6.8C4.5,7.4,0,12.3,0,18.2c0,6.4,5.1,11.5,11.5,11.5
		C15.3,29.7,18.7,27.8,20.8,24.9z"/>
</g>
</svg>
