<?xml version="1.0" encoding="utf-8"?>
<!-- Generator: Adobe Illustrator 19.0.0, SVG Export Plug-In . SVG Version: 6.00 Build 0)  -->
<svg version="1.1" id="Layer_1" xmlns="http://www.w3.org/2000/svg" xmlns:xlink="http://www.w3.org/1999/xlink" x="0px" y="0px"
	 width="48px" height="53px" viewBox="0 0 48 53" enable-background="new 0 0 48 53" xml:space="preserve">
<g>
	<defs>
		<path id="SVGID_1_" d="M47.6,24.5L42.1,15l2.4-1.4C45.4,13,46,12,46,11c0-1.1-0.6-2.1-1.5-2.6C43.6,7.8,35.2,3,35.2,3
			C32.8,1.6,28.8,0,24,0s-8.7,1.6-11.1,3c0,0-8.4,4.9-9.4,5.4C2.6,8.9,2,9.9,2,11c0,1.1,0.6,2.1,1.5,2.6L5.9,15l-5.5,9.5
			c-0.5,0.9-0.5,2.1,0,3C0.9,28.4,1.9,29,3,29h3v12.5c0,1.1,0.6,2.1,1.5,2.6c0.9,0.5,2.1,0.5,3,0l2.7-1.6l5.2,8.9
			c0.5,0.9,1.5,1.5,2.6,1.5s2.1-0.6,2.6-1.5l0.4-0.7l0.4,0.7c0.5,0.9,1.5,1.5,2.6,1.5s2.1-0.6,2.6-1.5l5.2-8.9l2.7,1.6
			c0.9,0.5,2.1,0.5,3,0c0.9-0.5,1.5-1.5,1.5-2.6V29h3c1.1,0,2.1-0.6,2.6-1.5C48.1,26.6,48.1,25.4,47.6,24.5z"/>
	</defs>
	<use xlink:href="#SVGID_1_"  overflow="visible" fill="#F7C90B"/>
	<clipPath id="SVGID_2_">
		<use xlink:href="#SVGID_1_"  overflow="visible"/>
	</clipPath>
	<polygon opacity="0.3" clip-path="url(#SVGID_2_)" fill="#EA7A2F" points="48,53 6,53 6,29 17.8,29 42.1,15 48,15 	"/>
	<rect x="24" opacity="0.15" clip-path="url(#SVGID_2_)" fill="#7D1CC7" width="24" height="53"/>
	<g clip-path="url(#SVGID_2_)">
		<ellipse fill="#DEDCD9" cx="24" cy="23.5" rx="16" ry="20.5"/>
		<path opacity="0.6" fill="#47475E" d="M22,38c0,1.1-0.7,2-1.5,2c-0.8,0-1.5-0.9-1.5-2s0.7-2,1.5-2C21.3,36,22,36.9,22,38z M29,38
			c0,1.1-0.7,2-1.5,2c-0.8,0-1.5-0.9-1.5-2s0.7-2,1.5-2C28.3,36,29,36.9,29,38z M35,15c0,1.1-0.7,2-1.5,2c-0.8,0-1.5-0.9-1.5-2
			s0.7-2,1.5-2C34.3,13,35,13.9,35,15z M23,31c0,1.1-0.7,2-1.5,2c-0.8,0-1.5-0.9-1.5-2s0.7-2,1.5-2C22.3,29,23,29.9,23,31z M29,29
			c0,1.1-0.7,2-1.5,2c-0.8,0-1.5-0.9-1.5-2s0.7-2,1.5-2C28.3,27,29,27.9,29,29z M31,22c0,1.1-0.7,2-1.5,2c-0.8,0-1.5-0.9-1.5-2
			s0.7-2,1.5-2C30.3,20,31,20.9,31,22z M28,16c0,1.1-0.7,2-1.5,2c-0.8,0-1.5-0.9-1.5-2s0.7-2,1.5-2C27.3,14,28,14.9,28,16z M37,24
			c0,1.1-0.7,2-1.5,2c-0.8,0-1.5-0.9-1.5-2s0.7-2,1.5-2C36.3,22,37,22.9,37,24z M35,32c0,1.1-0.7,2-1.5,2c-0.8,0-1.5-0.9-1.5-2
			s0.7-2,1.5-2C34.3,30,35,30.9,35,32z M13,32c0-1.1,0.7-2,1.5-2s1.5,0.9,1.5,2s-0.7,2-1.5,2S13,33.1,13,32z M19,18
			c0-1.1,0.7-2,1.5-2c0.8,0,1.5,0.9,1.5,2s-0.7,2-1.5,2C19.7,20,19,19.1,19,18z M17,25c0-1.1,0.7-2,1.5-2c0.8,0,1.5,0.9,1.5,2
			s-0.7,2-1.5,2C17.7,27,17,26.1,17,25z M11,23c0-1.1,0.7-2,1.5-2s1.5,0.9,1.5,2s-0.7,2-1.5,2S11,24.1,11,23z M13,15
			c0-1.1,0.7-2,1.5-2s1.5,0.9,1.5,2s-0.7,2-1.5,2S13,16.1,13,15z M22,9c0,1.1-0.7,2-1.5,2c-0.8,0-1.5-0.9-1.5-2s0.7-2,1.5-2
			C21.3,7,22,7.9,22,9z M29,9c0,1.1-0.7,2-1.5,2c-0.8,0-1.5-0.9-1.5-2s0.7-2,1.5-2C28.3,7,29,7.9,29,9z"/>
		<path opacity="0.3" fill="#FFFFFF" d="M24,44c-8.8,0-16-9.2-16-20.5C8,12.2,15.2,3,24,3V44z"/>
	</g>
</g>
</svg>
