<?xml version="1.0" encoding="utf-8"?>
<!-- Generator: Adobe Illustrator 19.0.0, SVG Export Plug-In . SVG Version: 6.00 Build 0)  -->
<svg version="1.1" id="Layer_1" xmlns="http://www.w3.org/2000/svg" xmlns:xlink="http://www.w3.org/1999/xlink" x="0px" y="0px"
	 width="56px" height="50px" viewBox="0 0 56 50" enable-background="new 0 0 56 50" xml:space="preserve">
<g>
	<path fill-rule="evenodd" clip-rule="evenodd" fill="#BCD676" d="M31.1,5c-0.3-1-0.9-3.4-1.1-4c-0.1-0.6-1.1-1-2-1s-1.8,0.4-1.9,1
		c-0.1,0.6-0.8,3-1.1,4c-0.3,1-1.1,2-2.8,3c-1.7,1-3.5,2-5.2,3h22c-1.7-1-3.5-2-5.2-3C32.1,7,31.3,6,31.1,5z"/>
	<path opacity="0.5" fill-rule="evenodd" clip-rule="evenodd" fill="#93684E" d="M31.1,5c-0.3-1-0.9-3.4-1.1-4c-0.1-0.6-1.1-1-2-1
		s-1.8,0.4-1.9,1c-0.1,0.6-0.8,3-1.1,4c-0.3,1-1.1,2-2.8,3c-1.7,1-3.5,2-5.2,3h22c-1.7-1-3.5-2-5.2-3C32.1,7,31.3,6,31.1,5z"/>
</g>
<g>
	<defs>
		<path id="SVGID_1_" d="M56,29c0,16.1-12,21-28,21C12,50,0,45.1,0,29C0,12.9,12,8,28,8C44,8,56,12.9,56,29z"/>
	</defs>
	<use xlink:href="#SVGID_1_"  overflow="visible" fill="#EA7A2F"/>
	<clipPath id="SVGID_2_">
		<use xlink:href="#SVGID_1_"  overflow="visible"/>
	</clipPath>
	<path clip-path="url(#SVGID_2_)" fill="#231F20" fill-opacity="0.15" d="M34,8l0.3,0.3C41.1,12.2,48,16.5,48,29
		c0,12.5-6.9,16.8-13.7,20.7L34,50h22V8H34z"/>
	<path clip-path="url(#SVGID_2_)" fill="#F7C90B" fill-opacity="0.3" d="M25.7,50c-2-3.4-5.7-8.5-5.7-21c0-12.5,3.7-17.6,5.7-21H22
		l-0.3,0.3C14.9,12.2,8,16.5,8,29c0,12.5,6.9,16.8,13.7,20.7L22,50H25.7z"/>
	<path clip-path="url(#SVGID_2_)" fill="#F7C90B" fill-opacity="0.3" d="M30.3,8c2,3.4,5.7,8.5,5.7,21c0,12.5-3.7,17.6-5.7,21H0V8
		H30.3z"/>
</g>
</svg>
