<?xml version="1.0" encoding="utf-8"?>
<!-- Generator: Adobe Illustrator 19.0.0, SVG Export Plug-In . SVG Version: 6.00 Build 0)  -->
<svg version="1.1" id="Layer_1" xmlns="http://www.w3.org/2000/svg" xmlns:xlink="http://www.w3.org/1999/xlink" x="0px" y="0px"
	 width="53.3px" height="48.4px" viewBox="0 0 53.3 48.4" enable-background="new 0 0 53.3 48.4" xml:space="preserve">
<path fill="#80B34F" d="M46.7,19.4H28v4h20C47.6,22.1,47.2,20.7,46.7,19.4z"/>
<g>
	<defs>
		<path id="SVGID_1_" d="M45.6,8l-12.4,7.1l7.1-12.4c-1.2-1-2.5-1.9-3.9-2.8L20.2,28.2l28.2-16.3C47.6,10.6,46.7,9.3,45.6,8z"/>
	</defs>
	<use xlink:href="#SVGID_1_"  overflow="visible" fill-rule="evenodd" clip-rule="evenodd" fill="#BCD676"/>
	<clipPath id="SVGID_2_">
		<use xlink:href="#SVGID_1_"  overflow="visible"/>
	</clipPath>
	<path opacity="0.3" clip-path="url(#SVGID_2_)" fill-rule="evenodd" clip-rule="evenodd" fill="#80B34F" d="M28.3,23.8h25v-22H41
		C39.7,4.1,33.5,14.7,28.3,23.8z"/>
</g>
<g>
	<defs>
		<path id="SVGID_3_" d="M26.9,21.5c-5.5-5.5-14.3-5.5-19.8,0C3,25.6,2,31.6,4,36.6c0.4,1,1.5,2.8,0.8,4c-0.7,1.2-4.1,7.1-4.1,7.1
			s5.8-3.4,7.1-4.1c1.2-0.7,3,0.4,4,0.8c5,2,11,1,15.1-3.1C32.4,35.9,32.4,27,26.9,21.5z"/>
	</defs>
	<use xlink:href="#SVGID_3_"  overflow="visible" fill="#DE7047"/>
	<clipPath id="SVGID_4_">
		<use xlink:href="#SVGID_3_"  overflow="visible"/>
	</clipPath>
	<path clip-path="url(#SVGID_4_)" fill-rule="evenodd" clip-rule="evenodd" fill="#231F20" fill-opacity="0.3" d="M7.8,43.6
		c8.9-5.1,13-6.9,20.7-20.2H31v24.3H7.8V43.6z"/>
	<polygon opacity="0.5" clip-path="url(#SVGID_4_)" fill-rule="evenodd" clip-rule="evenodd" fill="#FFFFFF" points="4.3,25.4 
		23,44.2 23,48.4 0,48.4 0,25.4 	"/>
</g>
</svg>
