<svg xmlns="http://www.w3.org/2000/svg" xmlns:xlink="http://www.w3.org/1999/xlink" width="48" height="38" viewBox="0 0 48 38"><defs><path id="a" d="M21.7 2.1c1.8 3.1-3.8 11.7-8.9 14.6-4.7 2.7-9.6 1-11.7-2.7C-1 10.2-.2 5.2 4.6 2.4c5-2.9 15.3-3.4 17.1-.3zm26 0c1.8 3.1-3.8 11.7-8.9 14.6-4.7 2.7-9.6 1-11.7-2.7-2.1-3.7-1.3-8.8 3.5-11.5 5-3 15.3-3.5 17.1-.4zm-17 20c1.8 3.1-3.8 11.7-8.9 14.6-4.7 2.7-9.6 1-11.7-2.7-2.1-3.7-1.3-8.8 3.5-11.5 5-3 15.3-3.5 17.1-.4z"/></defs><use xlink:href="#a" overflow="visible" fill-rule="evenodd" clip-rule="evenodd" fill="#d99a57"/><clipPath id="b"><use xlink:href="#a" overflow="visible"/></clipPath><path opacity=".3" clip-path="url(#b)" fill-rule="evenodd" clip-rule="evenodd" fill="#ea7a2f" d="M0 0h48v38H0z"/><path opacity=".3" clip-path="url(#b)" fill-rule="evenodd" clip-rule="evenodd" fill="#93684e" d="M9 19.9h22V38H9z"/><path d="M31 38V21.9L9 34.6V38h22zm-9-20V1.9L0 14.6V18h22zm26 0V1.9L26 14.6V18h22z" opacity=".5" clip-path="url(#b)" fill-rule="evenodd" clip-rule="evenodd" fill="#93684e"/></svg>