<svg xmlns="http://www.w3.org/2000/svg" xmlns:xlink="http://www.w3.org/1999/xlink" width="37" height="50" viewBox="0 0 37 50"><path d="M7 2c3.7 6.4 4.9 8.6 7.9 10.3 3 1.7 5.8.8 8.6-.8L7 2z" fill="#bcd676"/><path d="M7 2c3.7 6.4 4.9 8.6 7.9 10.3 3 1.7 5.8.8 8.6-.8L7 2z" opacity=".3" fill="#93684e"/><path d="M30 2c-3.7 6.4-4.9 8.6-7.9 10.3-3 1.7-5.8.8-8.6-.8L30 2z" fill="#bcd676"/><path d="M30 2c-3.7 6.4-4.9 8.6-7.9 10.3-3 1.7-5.8.8-8.6-.8L30 2z" opacity=".3" fill="#93684e"/><path d="M20 12V1c0-.6-.7-1-1.5-1S17 .4 17 1v11h3z" fill="#bcd676"/><g><defs><path id="a" d="M37 26.5c0-2.4-1.5-4.4-3.6-5.1 1-1 1.6-2.4 1.6-3.9 0-3-2.5-5.5-5.5-5.5-1.2 0-2.2.4-3.1 1-.9-1.8-2.8-3-4.9-3-1.1 0-2.1.3-3 .9-.9-.6-1.9-.9-3-.9-2.1 0-4 1.2-4.9 3-.9-.6-2-1-3.1-1-3 0-5.5 2.5-5.5 5.5 0 1.5.6 2.9 1.6 3.9-2.1.7-3.6 2.7-3.6 5.1 0 2.1 1.2 4 3 4.9-.6.9-1 2-1 3.1 0 2.6 1.8 4.8 4.3 5.4-.2.5-.3 1-.3 1.6 0 3 2.5 5.5 5.5 5.5.7 0 1.3-.1 1.9-.4.8 2 2.8 3.4 5.1 3.4s4.2-1.4 5.1-3.4c.6.2 1.3.4 1.9.4 3 0 5.5-2.5 5.5-5.5 0-.6-.1-1.1-.3-1.6 2.4-.6 4.3-2.7 4.3-5.4 0-1.2-.4-2.2-1-3.1 1.8-.9 3-2.8 3-4.9z"/></defs><use xlink:href="#a" overflow="visible" fill-rule="evenodd" clip-rule="evenodd" fill="#47475e"/><clipPath id="b"><use xlink:href="#a" overflow="visible"/></clipPath><path d="M25 26.5c0-2.1-1.2-3.9-2.9-4.8 1.2-1 1.9-2.5 1.9-4.2 0-1.9-1-3.6-2.4-4.6L37 9v41H11.5v-3c3 0 5.5-2.5 5.5-5.5 0-.5-.1-1-.2-1.5 2.9-.1 5.2-2.5 5.2-5.5 0-1-.3-2-.8-2.8 2.2-.7 3.8-2.8 3.8-5.2z" opacity=".3" clip-path="url(#b)" fill-rule="evenodd" clip-rule="evenodd" fill="#231f20"/><path d="M14 26.5c0-3 2.5-5.5 5.5-5.5s5.5 2.5 5.5 5.5-2.5 5.5-5.5 5.5-5.5-2.5-5.5-5.5zM7.5 23c3 0 5.5-2.5 5.5-5.5S10.5 12 7.5 12 2 14.5 2 17.5 4.5 23 7.5 23z" opacity=".3" clip-path="url(#b)" fill-rule="evenodd" clip-rule="evenodd" fill="#9487a3"/></g><g fill="#bcd676"><path d="M1 9c6.4 3.7 8.6 5 12 5 3.4 0 5.4-2.2 7-5H1z"/><path d="M36 9c-6.4 3.7-8.6 5-12 5-3.4 0-5.4-2.2-7-5h19z"/></g></svg>