<svg xmlns="http://www.w3.org/2000/svg" xmlns:xlink="http://www.w3.org/1999/xlink" width="50" height="50" viewBox="0 0 50 50"><defs><path id="a" d="M35.3 34l-3.8-4.1L28 36l-3.5-6.1-9.8 4.1 4.3 7.4V50h12v-8.6z"/></defs><use xlink:href="#a" overflow="visible" fill="#bcd676"/><clipPath id="b"><use xlink:href="#a" overflow="visible"/></clipPath><path opacity=".3" clip-path="url(#b)" fill="#006838" d="M35.3 50H23.9l-9.2-16h20.6z"/><g><defs><path id="c" d="M46.7 21.9c.8-1.4 1.3-3.1 1.3-4.9 0-5.5-4.5-10-10-10-.5 0-1 0-1.4.1C34.4 2.9 30.1 0 25 0s-9.4 2.9-11.6 7.1C13 7 12.5 7 12 7 6.5 7 2 11.5 2 17c0 1.8.5 3.4 1.3 4.9C1.3 23 0 25.1 0 27.5 0 31.1 2.9 34 6.5 34h37c3.6 0 6.5-2.9 6.5-6.5 0-2.4-1.3-4.5-3.3-5.6z"/></defs><use xlink:href="#c" overflow="visible" fill="#80b34f"/><clipPath id="d"><use xlink:href="#c" overflow="visible"/></clipPath><path d="M50 7H38c-4.7 0-8.6 3.2-9.7 7.6-1.7-1-3.7-1.6-5.8-1.6C16.1 13 11 18.1 11 24.5c0 2.1.6 4.1 1.5 5.8.9 1.6 3.3 5.7 3.3 5.7H50V7z" opacity=".3" clip-path="url(#d)" fill="#231f20"/><path opacity=".5" clip-path="url(#d)" fill="#006838" d="M0 0h50v34H0z"/></g></svg>