<svg xmlns="http://www.w3.org/2000/svg" xmlns:xlink="http://www.w3.org/1999/xlink" width="50.5" height="50" viewBox="0 0 50.5 50"><path fill="#80B34F" d="M36 30h-3c0-5-1-8.6-3.9-13.5l-4.6-8-4.6 8C17 21.4 16 25 16 30h-3c0-5.6 1.2-9.6 4.3-15L23 5.1V0h3v5.1l5.7 9.9c3.1 5.4 4.3 9.4 4.3 15z"/><defs><path id="a" d="M18 28c-1.9 0-3.6.6-5 1.7-1.4-1.1-3.1-1.7-5-1.7-3.7 0-8 1.8-8 8.6C0 44.6 5.3 50 13 50s13-5.4 13-13.4c0-6.8-4.3-8.6-8-8.6z"/></defs><use xlink:href="#a" overflow="visible" fill="#C7441C"/><clipPath id="b"><use xlink:href="#a" overflow="visible"/></clipPath><path clip-path="url(#b)" fill="#7D1CC7" fill-opacity=".2" d="M0 28h26v22H0z"/><path clip-path="url(#b)" fill="#231F20" fill-opacity=".2" d="M18 50h8V28H13v8.6c0 9.6 5 13.4 5 13.4z"/><g><defs><path id="c" d="M41 28c-1.9 0-3.6.6-5 1.7-1.4-1.1-3.1-1.7-5-1.7-3.7 0-8 1.8-8 8.6 0 8 5.3 13.4 13 13.4s13-5.4 13-13.4c0-6.8-4.3-8.6-8-8.6z"/></defs><use xlink:href="#c" overflow="visible" fill="#C7441C"/><clipPath id="d"><use xlink:href="#c" overflow="visible"/></clipPath><path clip-path="url(#d)" fill="#7D1CC7" fill-opacity=".2" d="M23 28h26v22H23z"/><path clip-path="url(#d)" fill="#D993AD" fill-opacity=".2" d="M23 28h13v22H23z"/></g><path fill="#80B34F" d="M28 5h9.3c3.7 0 6.8 2 8.6 5.1l4.5 7.9h-9.3c-3.7 0-6.8-2-8.6-5.1L28 5z"/></svg>