<svg xmlns="http://www.w3.org/2000/svg" xmlns:xlink="http://www.w3.org/1999/xlink" width="42" height="49" viewBox="0 0 42 49"><defs><path id="a" d="M27 49c8.9 0 15-7.1 15-15S38.5 16.8 25 9c-.6-.3-1-.5-1-2V1c0-.4-1.4-1-3-1s-3 .6-3 1v6c0 1.5-.4 1.7-1 2C3.5 16.8 0 26.1 0 34s6.1 15 15 15c2.8 0 6-.9 6-.9s3.3.9 6 .9z"/></defs><use xlink:href="#a" overflow="visible" fill-rule="evenodd" clip-rule="evenodd" fill="#47475E"/><clipPath id="b"><use xlink:href="#a" overflow="visible"/></clipPath><path opacity=".3" clip-path="url(#b)" fill-rule="evenodd" clip-rule="evenodd" fill="#DE7047" d="M0 0h24v27c0 9.6-7 13-13 13-5 0-11-4.1-11-12V0z"/><path opacity=".6" clip-path="url(#b)" fill-rule="evenodd" clip-rule="evenodd" fill="#BCD676" d="M18 0h6v5h-6z"/><path opacity=".3" fill-rule="evenodd" clip-rule="evenodd" fill="#BCD676" d="M26.2 43.6c-.3-.4-.3-1 .1-1.3 0 0 2.7-2.9 2.7-9.3 0-10.4-4.8-17.4-4.8-17.4-.3-.4-.2-1 .2-1.3.2-.2.4-.2.6-.2.3 0 .5.1.7.3.3.2 7.3 7.2 7.3 18.6 0 7.5-5.3 10.7-5.5 10.9-.1.1-.3.1-.5.1-.3 0-.6-.1-.8-.4zm-10.4 0c.3-.4.3-1-.1-1.3 0 0-2.7-2.9-2.7-9.3 0-10.4 4.8-17.4 4.8-17.4.3-.4.2-1-.2-1.3-.1-.2-.4-.3-.6-.3-.3 0-.5.1-.7.3C16 14.6 9 21.6 9 33c0 7.5 5.3 10.7 5.5 10.9.1.1.3.1.5.1.3 0 .6-.1.8-.4z"/></svg>