<svg xmlns="http://www.w3.org/2000/svg" xmlns:xlink="http://www.w3.org/1999/xlink" width="44" height="41.016" viewBox="0 0 44 41.016"><defs><path id="a" d="M44 20.508c0 10.23-8.534 18-22 18s-22-7.772-22-18c0-10.23 8.535-18 22-18 13.466 0 22 7.77 22 18z"/></defs><use xlink:href="#a" overflow="visible" fill="#93684e"/><clipPath id="b"><use xlink:href="#a" overflow="visible"/></clipPath><g clip-path="url(#b)"><defs><path id="c" d="M22 5.508c11.365 0 19 6.028 19 15s-7.636 15-19 15c-11.365 0-19-6.028-19-15s7.636-15 19-15z"/></defs><use xlink:href="#c" overflow="visible" fill="#80b34f"/><clipPath id="d"><use xlink:href="#c" overflow="visible"/></clipPath><path d="M22 11.512c6.592 0 11 3.618 11 8.992 0 5.39-4.408 9.008-11 9.008-6.583 0-11-3.62-11-9.008 0-5.374 4.417-8.992 11-8.992z" opacity=".3" clip-path="url(#d)" fill="#006838"/><path d="M22 16.514c2.994 0 5 1.606 5 3.996 0 2.396-2.006 4.004-5 4.004-2.99 0-5-1.608-5-4.004 0-2.39 2.01-3.996 5-3.996z" clip-path="url(#d)" fill="#bcd676"/><path opacity=".3" clip-path="url(#d)" fill="#9ce84d" d="M3 35.508h10.34l17.32-30H3z"/></g><path d="M11 17.008a1.5 1.5 0 0 1 2.8-.75l1.305 2.25H12.5a1.5 1.5 0 0 1-1.5-1.5zm22 0a1.5 1.5 0 0 0-2.8-.75l-1.305 2.25H31.5c.828 0 1.5-.672 1.5-1.5zm-22 7a1.5 1.5 0 0 0 2.8.75l1.305-2.25H12.5a1.5 1.5 0 0 0-1.5 1.5zm20.5-1.5h-2.604l1.306 2.25a1.5 1.5 0 1 0 1.298-2.25zm-11.5 5.5v-2.604l-2.25 1.306A1.5 1.5 0 1 0 20 28.008zm-1.5-16.5a1.5 1.5 0 0 0-.75 2.8L20 15.61v-2.604a1.5 1.5 0 0 0-1.5-1.5zm7 18a1.5 1.5 0 0 0 .75-2.8L24 25.404v2.604c0 .83.672 1.5 1.5 1.5zm-1.5-16.5v2.604l2.25-1.306A1.5 1.5 0 1 0 24 13.008z" clip-path="url(#b)" fill="#47475e"/></svg>