<svg xmlns="http://www.w3.org/2000/svg" xmlns:xlink="http://www.w3.org/1999/xlink" width="49.998" height="42" viewBox="0 0 49.998 42"><defs><path id="a" d="M33.584 13c-.513-.89-1.268-2.2-2.046-3.545A5.537 5.537 0 0 0 22.086 4h-4.093c-6.213.01-12.25 3.236-15.58 9.002C-.916 18.77-.69 25.616 2.414 31c.51.89 1.266 2.197 2.042 3.542a5.54 5.54 0 0 0 2.423 6.717A5.542 5.542 0 0 0 13.906 40h4.097c6.214-.008 12.247-3.235 15.578-9.002 3.332-5.768 3.103-12.613.004-17.997z"/></defs><use xlink:href="#a" overflow="visible" fill="#f7c90b"/><clipPath id="b"><use xlink:href="#a" overflow="visible"/></clipPath><path clip-path="url(#b)" fill="#006838" fill-opacity=".2" d="M36.02 2h-6.475L6.45 42h29.57z"/><path d="M49.998 11l-3.952-6.845C44.494 1.465 41.734 0 38.63 0h-7.684l3.952 6.845C36.448 9.533 39.208 11 42.313 11h7.685z" fill="#80b34f"/></svg>