<svg xmlns="http://www.w3.org/2000/svg" xmlns:xlink="http://www.w3.org/1999/xlink" width="42" height="49" viewBox="0 0 42 49"><defs><path id="a" d="M29 13c-3 0-5.8 1-8 2.8-2.2-1.8-5-2.8-8-2.8-6 0-13 3-13 14 0 13 8.5 21.7 21 21.7S42 40 42 27c0-11-7-14-13-14z"/></defs><use xlink:href="#a" overflow="visible" fill="#47475E"/><clipPath id="b"><use xlink:href="#a" overflow="visible"/></clipPath><path clip-path="url(#b)" fill="#C7441C" fill-opacity=".5" d="M0 13h42v36H0z"/><path clip-path="url(#b)" fill="#D993AD" fill-opacity=".3" d="M0 13h21v36H0z"/><path fill="#80B34F" d="M40.1 0l-4 6.8c-1.6 2.7-4.3 4.2-7.4 4.2H21l4-6.8C26.5 1.5 29.3 0 32.4 0h7.7z"/><g><defs><path id="c" d="M21 45.6c-11 0-18-8-18-18.6 0-9.1 5.4-11 10-11 2.2 0 4.4.7 6.2 2.1l1.8 1.4 1.8-1.4c1.8-1.4 3.9-2.1 6.2-2.1 4.6 0 10 1.9 10 11 0 10.6-7 18.6-18 18.6z"/></defs><use xlink:href="#c" overflow="visible" fill="#F7C90B"/><clipPath id="d"><use xlink:href="#c" overflow="visible"/></clipPath><path clip-path="url(#d)" fill="#7D1CC7" fill-opacity=".15" d="M21 15.8h18v30.8H21z"/></g><g><path fill="#EA7A2F" d="M26 31c0 4.1-1.9 5.7-5 7.5-3.1-1.8-5-3.4-5-7.5s1.9-5.7 5-7.5c3.1 1.8 5 3.4 5 7.5z"/><path opacity=".5" fill="#93684E" d="M26 31c0 4.1-1.9 5.7-5 7.5-3.1-1.8-5-3.4-5-7.5s1.9-5.7 5-7.5c3.1 1.8 5 3.4 5 7.5z"/></g></svg>