<svg xmlns="http://www.w3.org/2000/svg" xmlns:xlink="http://www.w3.org/1999/xlink" width="37" height="49" viewBox="0 0 37 49"><path d="M29.124 2.697a8.076 8.076 0 0 1-4.044 7 8.073 8.073 0 0 1-8.08 0l12.124-7z" fill="#80b34f"/><path d="M29.124 2.697a8.076 8.076 0 0 1-4.044 7 8.073 8.073 0 0 1-8.08 0l12.124-7z" opacity=".3" fill="#006838"/><path d="M20 9.698a8.07 8.07 0 0 1-8.08 0 8.076 8.076 0 0 1-4.044-7l12.124 7z" fill="#80b34f"/><path d="M20 9.698a8.07 8.07 0 0 1-8.08 0 8.076 8.076 0 0 1-4.044-7l12.124 7z" fill="#006838" opacity=".3"/><path d="M20 12V1c0-.552-.67-1-1.5-1S17 .448 17 1v11h3z" fill="#80b34f"/><g><defs><path id="a" d="M18.5 49c-3.95 0-6.54-2.237-7.83-4.5 0 0-2.952-5.135-7.75-13.49-4.797-8.353-3.19-13.87 1.242-17.14C7.022 11.76 11.985 11 18.5 11c6.515 0 11.48.76 14.337 2.87 4.433 3.27 6.04 8.787 1.242 17.14L26.327 44.5c-1.287 2.263-3.88 4.5-7.83 4.5z"/></defs><use xlink:href="#a" overflow="visible" fill="#c7441c"/><clipPath id="b"><use xlink:href="#a" overflow="visible"/></clipPath><path d="M0 46V7s14.4.258 17.258 2.37c4.433 3.268 6.04 8.786 1.242 17.14L7.82 45.095 0 46z" opacity=".3" clip-path="url(#b)" fill="#d993ad"/><g opacity=".6" clip-path="url(#b)"><path d="M20 43.5a1.5 1.5 0 1 1-2.8-.75l1.3-2.24s1.24 2.14 1.3 2.24c.128.22.2.477.2.75zm-4.2-7.75l-1.3-2.24s-1.24 2.14-1.3 2.24a1.5 1.5 0 1 0 2.6 0zm8 0l-1.3-2.24s-1.24 2.14-1.3 2.24a1.5 1.5 0 1 0 2.6 0zm-8-14l-1.3-2.24s-1.24 2.14-1.3 2.24a1.5 1.5 0 1 0 2.6 0zm-8 0l-1.3-2.24s-1.24 2.14-1.3 2.24a1.5 1.5 0 1 0 2.6 0zm24 0l-1.3-2.24s-1.24 2.14-1.3 2.24a1.5 1.5 0 1 0 2.6 0zm-8 0l-1.3-2.24s-1.24 2.14-1.3 2.24a1.5 1.5 0 1 0 2.6 0zm-4 7l-1.3-2.24s-1.24 2.14-1.3 2.24a1.5 1.5 0 1 0 2.6 0zm8 0l-1.3-2.24s-1.24 2.14-1.3 2.24a1.5 1.5 0 1 0 2.6 0zm-16 0l-1.3-2.24s-1.24 2.14-1.3 2.24a1.5 1.5 0 1 0 2.6 0z" fill="#f7d11a"/><path d="M20 43.5a1.5 1.5 0 1 1-2.8-.75l1.3-2.24s1.24 2.14 1.3 2.24c.128.22.2.477.2.75zm-4.2-7.75l-1.3-2.24s-1.24 2.14-1.3 2.24a1.5 1.5 0 1 0 2.6 0zm8 0l-1.3-2.24s-1.24 2.14-1.3 2.24a1.5 1.5 0 1 0 2.6 0zm-8-14l-1.3-2.24s-1.24 2.14-1.3 2.24a1.5 1.5 0 1 0 2.6 0zm-8 0l-1.3-2.24s-1.24 2.14-1.3 2.24a1.5 1.5 0 1 0 2.6 0zm24 0l-1.3-2.24s-1.24 2.14-1.3 2.24a1.5 1.5 0 1 0 2.6 0zm-8 0l-1.3-2.24s-1.24 2.14-1.3 2.24a1.5 1.5 0 1 0 2.6 0zm-4 7l-1.3-2.24s-1.24 2.14-1.3 2.24a1.5 1.5 0 1 0 2.6 0zm8 0l-1.3-2.24s-1.24 2.14-1.3 2.24a1.5 1.5 0 1 0 2.6 0zm-16 0l-1.3-2.24s-1.24 2.14-1.3 2.24a1.5 1.5 0 1 0 2.6 0z" fill="#FFF" opacity=".5"/></g></g><g fill="#80b34f"><path d="M4 9a9.23 9.23 0 0 0 8.002 4.618A9.223 9.223 0 0 0 20 9H4z"/><path d="M33 9a9.23 9.23 0 0 1-8.002 4.618A9.22 9.22 0 0 1 17 9h16z"/></g></svg>