<svg xmlns="http://www.w3.org/2000/svg" xmlns:xlink="http://www.w3.org/1999/xlink" width="54" height="62" viewBox="0 0 54 62"><defs><path id="a" d="M43.1 3.2c14.4 8.3 13.2 24.3 4.3 39.6-8.9 15.4-22.1 24.3-36.5 16.1-14.3-8.3-13.2-24.3-4.3-39.7 8.9-15.4 22.1-24.3 36.5-16z"/></defs><use xlink:href="#a" overflow="visible" fill="#80B34F"/><clipPath id="b"><use xlink:href="#a" overflow="visible"/></clipPath><path opacity=".7" clip-path="url(#b)" fill="#FFF" d="M44.8 41.3c4.4-7.6 12.8-26.2-3.2-35.5-16.1-9.3-28 7.4-32.4 15C4.8 28.3-3.7 47 12.4 56.2c16.1 9.3 28-7.3 32.4-14.9z"/><path clip-path="url(#b)" fill="#DE7047" d="M40.1 8.4C26.9.8 16.7 13.8 11.8 22.3 6.9 30.7.7 46 13.9 53.6c13.2 7.6 23.4-5.4 28.3-13.9 4.9-8.4 11.1-23.7-2.1-31.3z"/><path clip-path="url(#b)" fill="#47475E" d="M38.4 35.3c1 .6 1.3 1.8.7 2.7-.6 1-1.8 1.3-2.7.7-.3-.2-.6-.4-.7-.7-.1-.1-1.7-3-1.7-3h3.5c.2 0 .6.1.9.3zM43.1 23c1 .6 1.3 1.8.7 2.7-.6 1-1.8 1.3-2.7.7-.3-.2-.6-.4-.7-.7-.1-.1-1.7-3-1.7-3h3.5c.3 0 .6.1.9.3zm-13 22.5c1 .6 1.3 1.8.7 2.7-.6 1-1.8 1.3-2.7.7-.3-.2-.6-.4-.7-.7-.1-.1-1.7-3-1.7-3h3.5c.3.1.6.1.9.3zm.1-8c1 .5 1.3 1.8.7 2.7-.6 1-1.8 1.3-2.7.7-.3-.2-.6-.4-.7-.7-.1-.1-1.7-3-1.7-3h3.5c.2 0 .6.1.9.3zm6-10.4c1 .5 1.3 1.8.7 2.7-.6 1-1.8 1.3-2.7.7-.3-.2-.6-.4-.7-.7-.1-.1-1.7-3-1.7-3h3.5c.2 0 .6.1.9.3zm4-9.3c-.1-.1-3-1.7-3-1.7s2.9-1.7 3-1.7c.3-.2.6-.3 1-.3 1.1 0 2 .9 2 2s-.9 2-2 2c-.4 0-.7-.1-1-.3zM22.9 49.7c.6 1 .2 2.2-.7 2.7-1 .6-2.2.2-2.7-.7-.2-.3-.3-.7-.3-1v-3.5s2.9 1.6 3 1.7c.3.3.6.5.7.8zM18.3 24c.1.1 1.7 3 1.7 3h-3.5c-.3 0-.7-.1-1-.3-1-.6-1.3-1.8-.7-2.7.6-1 1.8-1.3 2.7-.7.4.2.7.4.8.7zm8.3-10.3c.1.1 1.7 3 1.7 3h-3.5c-.3 0-.7-.1-1-.3-1-.6-1.3-1.8-.7-2.7.6-1 1.8-1.3 2.7-.7.4.2.6.5.8.7zm-13 22.6c.1.1 1.7 3 1.7 3h-3.5c-.3 0-.7-.1-1-.3-1-.6-1.3-1.8-.7-2.7.6-1 1.8-1.3 2.7-.7.4.1.6.4.8.7zm6.9-4.1c.1.1 1.7 3 1.7 3h-3.5c-.3 0-.7-.1-1-.3-1-.6-1.3-1.8-.7-2.7.6-1 1.8-1.3 2.7-.7.4.2.7.4.8.7zm6-10.4c.1.1 1.7 3 1.7 3h-3.5c-.3 0-.7-.1-1-.3-1-.6-1.3-1.8-.7-2.7.6-1 1.8-1.3 2.7-.7.4.2.7.4.8.7zm4.6-9.6c-.6-1-.2-2.2.7-2.7 1-.6 2.2-.2 2.7.7.2.3.3.7.3 1v3.5s-2.9-1.6-3-1.7c-.3-.2-.6-.4-.7-.8zm-17.3 32c.1.1 3 1.7 3 1.7s-2.9 1.7-3 1.7c-.3.2-.6.3-1 .3-1.1 0-2-.9-2-2s.9-2 2-2c.4 0 .7.1 1 .3z"/><path opacity=".3" clip-path="url(#b)" fill="#FFF" d="M44.9 0H0v62h9.1z"/></svg>