<svg xmlns="http://www.w3.org/2000/svg" xmlns:xlink="http://www.w3.org/1999/xlink" width="42" height="58.1" viewBox="0 0 42 58.1"><defs><path id="a" d="M42 15.1C42 6.8 35.2 0 26.9 0c-5.6 0-10.5 3-13.1 7.6-1.3 2.2-7.3 12.7-11 19C1 29.7 0 33.2 0 37.1c0 11.6 9.4 21 21 21s21-9.4 21-21v-22z"/></defs><use xlink:href="#a" overflow="visible" fill="#80b34f"/><clipPath id="b"><use xlink:href="#a" overflow="visible"/></clipPath><path d="M21 55.1c-9.9 0-18-8.1-18-18 0-3.2.8-6.3 2.4-9 2.4-4.1 5.7-10 8.2-14.2l2.8-4.8C18.5 5.3 22.6 3 26.9 3 33.6 3 39 8.4 39 15.1V37c0 10-8.1 18.1-18 18.1z" clip-path="url(#b)" fill="#bcd676"/><path opacity=".15" clip-path="url(#b)" fill="#006838" d="M15.3 58.1H42V.1H30.8z"/><path d="M30.3 38.4c-1.3 5-6.4 7.7-11.4 6.3-5-1.3-8-6.2-6.7-11.2 1.3-5 7.4-10.2 12-8.9 4.7 1.3 7.4 8.8 6.1 13.8z" clip-path="url(#b)" fill-rule="evenodd" clip-rule="evenodd" fill="#d99a57"/><path d="M24.2 24.6c4.7 1.3 7.4 8.8 6 13.8-1.3 5-6.4 7.7-11.4 6.3l5.4-20.1z" opacity=".5" clip-path="url(#b)" fill-rule="evenodd" clip-rule="evenodd" fill="#93684e"/></svg>