<?xml version="1.0" encoding="utf-8"?>
<!-- Generator: Adobe Illustrator 19.0.0, SVG Export Plug-In . SVG Version: 6.00 Build 0)  -->
<svg version="1.1" id="Layer_1" xmlns="http://www.w3.org/2000/svg" xmlns:xlink="http://www.w3.org/1999/xlink" x="0px" y="0px"
	 width="43.1px" height="56.9px" viewBox="0 0 43.1 56.9" enable-background="new 0 0 43.1 56.9" xml:space="preserve">
<g>
	<defs>
		<path id="SVGID_1_" d="M29,18.3c-3,0-5.8,1.1-8,2.3c-2.2-1.3-5-2.3-8-2.3c-7.2,0-13,5.8-13,13c0,13,8,23,15,23c2.3,0,4.5-1,6-1.9
			c1.5,0.9,3.7,1.9,6,1.9c7,0,15-10,15-23C42,24.1,36.2,18.3,29,18.3z"/>
	</defs>
	<use xlink:href="#SVGID_1_"  overflow="visible" fill="#DE7047"/>
	<clipPath id="SVGID_2_">
		<use xlink:href="#SVGID_1_"  overflow="visible"/>
	</clipPath>
	<rect y="18.3" opacity="0.15" clip-path="url(#SVGID_2_)" fill="#DEDCD9" width="42" height="36"/>
	<g clip-path="url(#SVGID_2_)">
		<path fill="#FFFFFF" d="M27,51.3c-1.3,0-2.8-0.5-4.5-1.5L21,48.9l-1.5,0.9c-1.7,1-3.2,1.5-4.5,1.5c-4.8,0-12-8-12-20
			c0-5.5,4.5-10,10-10c2.6,0,5,1.1,6.5,1.9l1.5,0.9l1.5-0.9c1.5-0.9,3.9-1.9,6.5-1.9c5.5,0,10,4.5,10,10C39,43.3,31.8,51.3,27,51.3z
			"/>
		<path opacity="0.3" fill="#F7D11A" d="M27,51.3c-1.3,0-2.8-0.5-4.5-1.5L21,48.9l-1.5,0.9c-1.7,1-3.2,1.5-4.5,1.5
			c-4.8,0-12-8-12-20c0-5.5,4.5-10,10-10c2.6,0,5,1.1,6.5,1.9l1.5,0.9l1.5-0.9c1.5-0.9,3.9-1.9,6.5-1.9c5.5,0,10,4.5,10,10
			C39,43.3,31.8,51.3,27,51.3z"/>
	</g>
	<polygon clip-path="url(#SVGID_2_)" fill="#231F20" fill-opacity="0.2" points="43.1,56.9 21,56.1 21,17.1 43.1,16.8 	"/>
</g>
<path fill="#80B34F" d="M32,0l-6.8,4C22.5,5.5,21,8.3,21,11.4v7.7l6.8-4c2.7-1.6,4.2-4.3,4.2-7.4V0z"/>
<path fill="#93684E" d="M15,38.3c0-2,2.1-3.9,4-5c0,0,0,3.9,0,5c0,1.1-0.9,2-2,2S15,39.4,15,38.3z M27,38.3c0-2-2.1-3.9-4-5
	c0,0,0,3.9,0,5c0,1.1,0.9,2,2,2S27,39.4,27,38.3z"/>
</svg>
