<?xml version="1.0" encoding="utf-8"?>
<!-- Generator: Adobe Illustrator 19.0.0, SVG Export Plug-In . SVG Version: 6.00 Build 0)  -->
<svg version="1.1" id="Layer_1" xmlns="http://www.w3.org/2000/svg" xmlns:xlink="http://www.w3.org/1999/xlink" x="0px" y="0px"
	 width="51.1px" height="51.1px" viewBox="0 0 51.1 51.1" enable-background="new 0 0 51.1 51.1" xml:space="preserve">
<path fill-rule="evenodd" clip-rule="evenodd" fill="#80B34F" d="M44.6,6.5c-0.4-0.4-0.8-0.8-1.2-1.2l-6,3.4l-6.9,11.9l19.9-7.1
	C48.8,11,46.9,8.7,44.6,6.5z"/>
<g>
	<defs>
		<path id="SVGID_1_" d="M48.2,10.4L30.5,20.6L40.7,2.9c-1.3-1.1-2.7-2-4.1-2.9L16.8,34.3l34.3-19.8C50.2,13.1,49.2,11.7,48.2,10.4z
			"/>
	</defs>
	<use xlink:href="#SVGID_1_"  overflow="visible" fill-rule="evenodd" clip-rule="evenodd" fill="#DE7047"/>
	<clipPath id="SVGID_2_">
		<use xlink:href="#SVGID_1_"  overflow="visible"/>
	</clipPath>
	<polygon opacity="0.3" clip-path="url(#SVGID_2_)" fill-rule="evenodd" clip-rule="evenodd" fill="#231F20" points="27.7,25.5 
		51,25.5 51,9.3 37.1,9.3 	"/>
	
		<rect x="16.8" clip-path="url(#SVGID_2_)" fill-rule="evenodd" clip-rule="evenodd" fill="#7D1CC7" fill-opacity="0.3" width="34.3" height="34.3"/>
</g>
<g>
	<defs>
		<path id="SVGID_3_" d="M30.5,20.6c-4.1-4.1-8.5-6.5-14.5-6.5c-10,0-16,7.7-16,16c0,5,2,8,3,11c0.6,1.9,0.8,3.4-0.2,5.1
			C1.8,48,0,51.1,0,51.1s3.1-1.8,4.9-2.8s3.2-0.8,5.1-0.2c3,1,6,3,11,3c8.3,0,16-6,16-16C37,29.1,34.6,24.7,30.5,20.6z"/>
	</defs>
	<use xlink:href="#SVGID_3_"  overflow="visible" fill-rule="evenodd" clip-rule="evenodd" fill="#C7441C"/>
	<clipPath id="SVGID_4_">
		<use xlink:href="#SVGID_3_"  overflow="visible"/>
	</clipPath>
	
		<rect y="14.1" clip-path="url(#SVGID_4_)" fill-rule="evenodd" clip-rule="evenodd" fill="#7D1CC7" fill-opacity="0.3" width="37" height="37"/>
	<polygon opacity="0.3" clip-path="url(#SVGID_4_)" fill-rule="evenodd" clip-rule="evenodd" fill="#231F20" points="37,22.6 0,44 
		0,51.1 37,51.1 	"/>
</g>
</svg>
