<?xml version="1.0" encoding="utf-8"?>
<!-- Generator: Adobe Illustrator 19.0.0, SVG Export Plug-In . SVG Version: 6.00 Build 0)  -->
<svg version="1.1" id="Layer_1" xmlns="http://www.w3.org/2000/svg" xmlns:xlink="http://www.w3.org/1999/xlink" x="0px" y="0px"
	 width="42px" height="52px" viewBox="0 0 42 52" style="enable-background:new 0 0 42 52;" xml:space="preserve">
<g>
	<defs>
		<path id="SVGID_1_" d="M0,7.2c0,8.2,0.5,14.2,4.1,20.3C7.6,33.6,12.5,37,19.5,41c2.1,1.2,4.8,1.3,7,0c3.4-1.9,4.8-5.9,2.9-9.3
			C27.3,28,15.2,7,13,3.2C11-0.1,6.8-0.9,3.5,1.1C1.2,2.4,0,4.7,0,7.2z"/>
	</defs>
	<use xlink:href="#SVGID_1_"  style="overflow:visible;fill-rule:evenodd;clip-rule:evenodd;fill:#E9BF54;"/>
	<clipPath id="SVGID_2_">
		<use xlink:href="#SVGID_1_"  style="overflow:visible;"/>
	</clipPath>
	<rect style="opacity:0.3;clip-path:url(#SVGID_2_);fill-rule:evenodd;clip-rule:evenodd;fill:#FFFFFF;" width="31" height="42"/>
	<path style="opacity:0.8;clip-path:url(#SVGID_2_);fill-rule:evenodd;clip-rule:evenodd;fill:#93684E;" d="M0,11.8
		c3.3-1.6,7.1-0.8,9,2.4c2.1,3.6,13,22.5,16,27.8L0,42V11.8z"/>
	<polygon style="opacity:0.3;clip-path:url(#SVGID_2_);fill-rule:evenodd;clip-rule:evenodd;fill:#FFFFFF;" points="26.3,0 0,0 
		0,42 2.1,42 	"/>
</g>
<g>
	<defs>
		<path id="SVGID_3_" d="M22.4,51c7.1-4.1,12-7.5,15.5-13.7c3.5-6.1,4-12,4-20.1c0-2.4-1.2-4.8-3.5-6.1C35.2,9.1,31,9.8,29,13.2
			C26.8,17,14.7,38,12.5,41.8c-1.9,3.4-0.5,7.3,2.9,9.3C17.7,52.4,20.3,52.3,22.4,51z"/>
	</defs>
	<use xlink:href="#SVGID_3_"  style="overflow:visible;fill-rule:evenodd;clip-rule:evenodd;fill:#E9BF54;"/>
	<clipPath id="SVGID_4_">
		<use xlink:href="#SVGID_3_"  style="overflow:visible;"/>
	</clipPath>
	
		<rect x="11" y="10" style="opacity:0.3;clip-path:url(#SVGID_4_);fill-rule:evenodd;clip-rule:evenodd;fill:#FFFFFF;" width="31" height="42"/>
	<path style="opacity:0.3;clip-path:url(#SVGID_4_);fill-rule:evenodd;clip-rule:evenodd;fill:#FFFFFF;" d="M42,21.8
		c-3.3-1.6-7.1-0.8-9,2.4C31,27.8,20.1,46.7,17,52h-7V10h32V21.8z"/>
</g>
</svg>
