<?xml version="1.0" encoding="utf-8"?>
<!-- Generator: Adobe Illustrator 19.0.0, SVG Export Plug-In . SVG Version: 6.00 Build 0)  -->
<svg version="1.1" id="Layer_1" xmlns="http://www.w3.org/2000/svg" xmlns:xlink="http://www.w3.org/1999/xlink" x="0px" y="0px"
	 width="50px" height="53px" viewBox="0 0 50 53" style="enable-background:new 0 0 50 53;" xml:space="preserve">
<g>
	<defs>
		<ellipse id="SVGID_1_" transform="matrix(0.866 0.5 -0.5 0.866 16.6033 -8.9482)" cx="25" cy="26.5" rx="24.5" ry="26.5"/>
	</defs>
	<use xlink:href="#SVGID_1_"  style="overflow:visible;fill:#80B34F;"/>
	<clipPath id="SVGID_2_">
		<use xlink:href="#SVGID_1_"  style="overflow:visible;"/>
	</clipPath>
	<g style="clip-path:url(#SVGID_2_);">
		<path style="fill:#EA7A2F;" d="M36.8,6.1C26.5,0.2,12.9,4.5,6.4,15.8C-0.1,27,3,40.9,13.2,46.9c10.3,5.9,23.9,1.6,30.3-9.6
			C50.1,26,47,12.1,36.8,6.1z"/>
		<path style="opacity:0.5;fill:#F7C90B;" d="M36.8,6.1C26.5,0.2,12.9,4.5,6.4,15.8C-0.1,27,3,40.9,13.2,46.9
			c10.3,5.9,23.9,1.6,30.3-9.6C50.1,26,47,12.1,36.8,6.1z"/>
	</g>
	<path style="clip-path:url(#SVGID_2_);fill:#EA7A2F;" d="M16.5,41.2c5.3,3,13.3-1.1,18-9.2c4.7-8.1,4.2-17.2-1-20.2
		c-5.3-3-13.3,1.1-18,9.2C10.8,29.1,11.2,38.2,16.5,41.2z"/>
	<polygon style="opacity:0.3;clip-path:url(#SVGID_2_);fill:#FFFFFF;" points="0.5,53 9.7,53 40.3,0 0.5,0 	"/>
	<path style="opacity:0.5;clip-path:url(#SVGID_2_);fill:#FFFFFF;" d="M31,34c-0.4,0.7-1.7,0.7-2.9,0c-1.2-0.7-1.8-1.8-1.4-2.5
		c0.4-0.7,1.7-0.7,2.9,0C30.8,32.2,31.5,33.3,31,34z M33.1,25.4c-1.2-0.7-2.5-0.7-2.9,0c-0.4,0.7,0.2,1.9,1.4,2.5
		c1.2,0.7,2.5,0.7,2.9,0C35,27.3,34.3,26.1,33.1,25.4z M33.6,18.7c-1.4,0-2.5,0.7-2.5,1.5c0,0.8,1.1,1.5,2.5,1.5
		c1.4,0,2.5-0.7,2.5-1.5S35,18.7,33.6,18.7z M22.6,35c-0.7,0.4-0.7,1.7,0,2.9c0.7,1.2,1.8,1.8,2.5,1.4c0.7-0.4,0.7-1.7,0-2.9
		C24.4,35.2,23.3,34.6,22.6,35z M15.5,25c-0.4,0.7,0.2,1.9,1.4,2.5c1.2,0.7,2.5,0.7,2.9,0c0.4-0.7-0.2-1.9-1.4-2.5
		C17.2,24.3,15.9,24.3,15.5,25z M19,19c-0.4,0.7,0.2,1.9,1.4,2.5c1.2,0.7,2.5,0.7,2.9,0c0.4-0.7-0.2-1.9-1.4-2.5
		C20.7,18.2,19.4,18.3,19,19z M24.9,13.7c-0.7,0.4-0.7,1.7,0,2.9c0.7,1.2,1.8,1.8,2.5,1.4c0.7-0.4,0.7-1.7,0-2.9
		C26.8,13.9,25.7,13.3,24.9,13.7z M16.4,31.4c-1.4,0-2.5,0.7-2.5,1.5c0,0.8,1.1,1.5,2.5,1.5c1.4,0,2.5-0.7,2.5-1.5
		C18.9,32,17.8,31.4,16.4,31.4z"/>
</g>
</svg>
