<?xml version="1.0" encoding="utf-8"?>
<!-- Generator: Adobe Illustrator 19.0.0, SVG Export Plug-In . SVG Version: 6.00 Build 0)  -->
<svg version="1.1" id="Layer_1" xmlns="http://www.w3.org/2000/svg" xmlns:xlink="http://www.w3.org/1999/xlink" x="0px" y="0px"
	 width="53.8px" height="51.1px" viewBox="0 0 53.8 51.1" style="enable-background:new 0 0 53.8 51.1;" xml:space="preserve">
<g>
	<defs>
		<path id="SVGID_1_" d="M39.6,0L23.9,27.2l27.3-15.7c-1.1-1.9-2.4-3.7-3.9-5.4l-5.4,3.1L45,3.9C43.4,2.4,41.5,1.1,39.6,0z"/>
	</defs>
	<use xlink:href="#SVGID_1_"  style="overflow:visible;fill-rule:evenodd;clip-rule:evenodd;fill:#80B34F;"/>
	<clipPath id="SVGID_2_">
		<use xlink:href="#SVGID_1_"  style="overflow:visible;"/>
	</clipPath>
	<polygon style="opacity:0.3;clip-path:url(#SVGID_2_);fill-rule:evenodd;clip-rule:evenodd;fill:#006838;" points="49.3,16.8 
		31.7,26.9 45,3.9 53.8,8.9 	"/>
</g>
<g>
	<defs>
		<path id="SVGID_3_" d="M37.9,13.2c-3.1-3.1-6.5-5.1-10.2-5.1c-3.8,0-7.1,1.2-10.4,6.9C13.3,21.9,2.1,41.4,0.6,44
			c-1,1.8-0.7,4.2,0.8,5.7c1.5,1.5,3.9,1.9,5.7,0.8C9.7,49,29.2,37.8,36.1,33.8c5.8-3.3,6.9-6.6,6.9-10.4C43,19.7,41,16.3,37.9,13.2
			z"/>
	</defs>
	<use xlink:href="#SVGID_3_"  style="overflow:visible;fill-rule:evenodd;clip-rule:evenodd;fill:#EA7A2F;"/>
	<clipPath id="SVGID_4_">
		<use xlink:href="#SVGID_3_"  style="overflow:visible;"/>
	</clipPath>
	<path style="opacity:0.15;clip-path:url(#SVGID_4_);fill-rule:evenodd;clip-rule:evenodd;fill:#7D1CC7;" d="M12.6,47.4
		c0,0,15.5-26.9,21.4-37.1h9v19.6L12.6,47.4z"/>
</g>
</svg>
