<?xml version="1.0" encoding="utf-8"?>
<!-- Generator: Adobe Illustrator 19.0.0, SVG Export Plug-In . SVG Version: 6.00 Build 0)  -->
<svg version="1.1" id="Layer_1" xmlns="http://www.w3.org/2000/svg" xmlns:xlink="http://www.w3.org/1999/xlink" x="0px" y="0px"
	 width="48px" height="50.9px" viewBox="0 0 48 50.9" style="enable-background:new 0 0 48 50.9;" xml:space="preserve">
<g>
	<path style="fill-rule:evenodd;clip-rule:evenodd;fill:#80B34F;" d="M46.1,8.2c0.3-1,1.5-5.4,1.6-6c0.1-0.6-0.4-1.4-1.2-1.9
		c-0.8-0.5-1.8-0.5-2.2-0.1c-0.4,0.4-3.7,3.7-4.4,4.4C39.2,5.4,45.8,9.2,46.1,8.2z"/>
	<path style="opacity:0.5;fill-rule:evenodd;clip-rule:evenodd;fill:#47475E;" d="M46.1,8.2c0.3-1,1.5-5.4,1.6-6
		c0.1-0.6-0.4-1.4-1.2-1.9c-0.8-0.5-1.8-0.5-2.2-0.1c-0.4,0.4-3.7,3.7-4.4,4.4C39.2,5.4,45.8,9.2,46.1,8.2z"/>
</g>
<g>
	<defs>
		<path id="SVGID_1_" d="M8,50.9c-2.8,0-5.4-1.4-6.9-4C-1.1,43.1,0.2,38.2,4,36c12.1-7,22.1-17,29.1-29.1C35.3,3.1,40.2,1.8,44,4
			c3.8,2.2,5.1,7.1,2.9,10.9C38.6,29.4,26.5,41.5,12,49.8C10.7,50.6,9.4,50.9,8,50.9z"/>
	</defs>
	<use xlink:href="#SVGID_1_"  style="overflow:visible;fill:#80B34F;"/>
	<clipPath id="SVGID_2_">
		<use xlink:href="#SVGID_1_"  style="overflow:visible;"/>
	</clipPath>
	<rect y="2.9" style="clip-path:url(#SVGID_2_);fill:#006838;fill-opacity:0.3;" width="48" height="48"/>
	<path style="clip-path:url(#SVGID_2_);fill:#231F20;fill-opacity:0.3;" d="M48,50.9V7c-3.1-0.4-6.3,1-8,3.9
		c-7.7,13.3-18.7,24.3-32,32c-6.9,4-6.9,3.8-6.9,3.8v4.2H48z"/>
	<path style="clip-path:url(#SVGID_2_);fill:#9CE84D;fill-opacity:0.3;" d="M8,39.4c0,0.8-0.7,1.5-1.5,1.5S5,40.2,5,39.4
		c0-0.8,0.7-1.5,1.5-1.5S8,38.6,8,39.4z M14.5,41.9c-0.8,0-1.5,0.7-1.5,1.5c0,0.8,0.7,1.5,1.5,1.5s1.5-0.7,1.5-1.5
		C16,42.6,15.3,41.9,14.5,41.9z M23.5,35.9c-0.8,0-1.5,0.7-1.5,1.5c0,0.8,0.7,1.5,1.5,1.5c0.8,0,1.5-0.7,1.5-1.5
		C25,36.6,24.3,35.9,23.5,35.9z M33.5,25.9c-0.8,0-1.5,0.7-1.5,1.5c0,0.8,0.7,1.5,1.5,1.5c0.8,0,1.5-0.7,1.5-1.5
		C35,26.6,34.3,25.9,33.5,25.9z M40.5,15.9c-0.8,0-1.5,0.7-1.5,1.5c0,0.8,0.7,1.5,1.5,1.5c0.8,0,1.5-0.7,1.5-1.5
		C42,16.6,41.3,15.9,40.5,15.9z M30.5,15.9c-0.8,0-1.5,0.7-1.5,1.5c0,0.8,0.7,1.5,1.5,1.5c0.8,0,1.5-0.7,1.5-1.5
		C32,16.6,31.3,15.9,30.5,15.9z"/>
</g>
</svg>
