<?xml version="1.0" encoding="UTF-8" standalone="no"?>
<svg width="200px" height="89px" viewBox="0 0 200 89" version="1.1" xmlns="http://www.w3.org/2000/svg" xmlns:xlink="http://www.w3.org/1999/xlink" xmlns:sketch="http://www.bohemiancoding.com/sketch/ns">
    <!-- Generator: Sketch 3.3.1 (12005) - http://www.bohemiancoding.com/sketch -->
    <title>Dates</title>
    <desc>Created with Sketch.</desc>
    <defs>
        <linearGradient x1="6.49565009%" y1="-32.6605427%" x2="67.8983125%" y2="114.636211%" id="linearGradient-1">
            <stop stop-color="#C24826" offset="0%"></stop>
            <stop stop-color="#6A2021" offset="100%"></stop>
        </linearGradient>
        <ellipse id="path-2" cx="37.604148" cy="83.3776378" rx="37.5011724" ry="83.2746621"></ellipse>
        <linearGradient x1="6.49565009%" y1="-32.6605427%" x2="67.8983125%" y2="114.636211%" id="linearGradient-4">
            <stop stop-color="#8D2F23" offset="0%"></stop>
            <stop stop-color="#772B16" offset="100%"></stop>
        </linearGradient>
        <ellipse id="path-5" cx="33.8094825" cy="74.9639317" rx="33.7168982" ry="74.8713474"></ellipse>
        <linearGradient x1="50%" y1="0%" x2="50%" y2="100%" id="linearGradient-7">
            <stop stop-color="#B46150" offset="0%"></stop>
            <stop stop-color="#9D5148" offset="100%"></stop>
        </linearGradient>
        <path id="path-8" d="M32.1148859,135.614647 C46.9801831,134.559885 56.9398241,103.361679 54.3603666,65.9315041 C51.7809092,28.501329 37.6391414,-0.986769523 22.7738442,0.0679926563 C7.90854704,1.12275484 -2.05109395,32.3209607 0.528363473,69.7511358 C3.10782089,107.181311 17.2495887,136.669409 32.1148859,135.614647 L32.1148859,135.614647 Z"></path>
    </defs>
    <g id="Page-1" stroke="none" stroke-width="1" fill="none" fill-rule="evenodd" sketch:type="MSPage">
        <g id="Dates" sketch:type="MSLayerGroup" transform="translate(-6.000000, -16.000000)">
            <g id="Date-Copy-2" transform="translate(122.128380, 58.577919) rotate(76.000000) translate(-122.128380, -58.577919) translate(83.628380, -26.922081)">
                <g id="Path-1" transform="translate(1.000000, 3.000000)">
                    <mask id="mask-3" sketch:name="Mask" fill="white">
                        <use xlink:href="#path-2"></use>
                    </mask>
                    <use id="Mask" stroke="#832D1D" fill="url(#linearGradient-1)" sketch:type="MSShapeGroup" xlink:href="#path-2"></use>
                    <g mask="url(#mask-3)">
                        <g transform="translate(19.240486, 110.219491) rotate(-23.000000) translate(-19.240486, -110.219491) translate(-11.259514, 34.719491)"></g>
                    </g>
                </g>
                <path d="M39.0879917,6.65931261 C43.3520881,6.65931261 46.8088214,6.90793772 46.8088214,4.47131118 C46.8088214,2.03468464 43.3520883,0.0594085474 39.0879918,0.0594085474 C34.8238954,0.0594085474 31.3671622,2.03468464 31.3671622,4.47131118 C31.3671622,6.90793772 34.8238952,6.65931261 39.0879917,6.65931261 Z" id="Oval-3" fill="#CC7D54" sketch:type="MSShapeGroup"></path>
            </g>
            <g id="Date-Forward" transform="translate(82.036307, 66.199974) rotate(281.000000) translate(-82.036307, -66.199974) translate(47.536307, -10.300026)">
                <g id="Path-1" transform="translate(0.000000, 2.899089)">
                    <mask id="mask-6" sketch:name="Mask" fill="white">
                        <use xlink:href="#path-5"></use>
                    </mask>
                    <use id="Mask" stroke="#832D1D" stroke-width="3" fill="url(#linearGradient-4)" sketch:type="MSShapeGroup" xlink:href="#path-5"></use>
                    <g mask="url(#mask-6)">
                        <g transform="translate(17.635065, 99.007043) rotate(-23.000000) translate(-17.635065, -99.007043) translate(-10.131792, 31.077410)">
                            <mask id="mask-9" sketch:name="Mask" fill="white">
                                <use xlink:href="#path-8"></use>
                            </mask>
                            <use id="Mask" stroke="none" fill-opacity="0.400000006" fill="url(#linearGradient-7)" fill-rule="evenodd" sketch:type="MSShapeGroup" xlink:href="#path-8"></use>
                        </g>
                    </g>
                </g>
                <path d="M33.4278644,4.00343951 C37.2616674,4.00343951 40.3695788,6.19418408 40.3695788,4.00343953 C40.3695788,1.81269499 37.2616674,0.0367456331 33.4278645,0.0367456331 C29.5940615,0.0367456331 26.4861501,1.81269499 26.4861501,4.00343953 C26.4861501,6.19418408 29.5940615,4.00343951 33.4278644,4.00343951 Z" id="Oval-3" fill="#CC7D54" sketch:type="MSShapeGroup"></path>
            </g>
        </g>
    </g>
</svg>