<?xml version="1.0" encoding="utf-8"?>
<!-- Generator: Adobe Illustrator 19.0.0, SVG Export Plug-In . SVG Version: 6.00 Build 0)  -->
<svg version="1.1" id="Layer_1" xmlns="http://www.w3.org/2000/svg" xmlns:xlink="http://www.w3.org/1999/xlink" x="0px" y="0px"
	 width="42px" height="49px" viewBox="0 0 42 49" enable-background="new 0 0 42 49" xml:space="preserve">
<g>
	<defs>
		<path id="SVGID_1_" d="M27,49c8.9,0,15-7.1,15-15S38.5,16.8,25,9c-0.6-0.3-1-0.5-1-2c0-4.4,0-5.6,0-6s-1.4-1-3-1s-3,0.6-3,1
			s0,3.1,0,6c0,1.5-0.4,1.7-1,2C3.5,16.8,0,26.1,0,34s6.1,15,15,15c2.8,0,6-0.9,6-0.9S24.3,49,27,49z"/>
	</defs>
	<use xlink:href="#SVGID_1_"  overflow="visible" fill-rule="evenodd" clip-rule="evenodd" fill="#47475E"/>
	<clipPath id="SVGID_2_">
		<use xlink:href="#SVGID_1_"  overflow="visible"/>
	</clipPath>
	<path opacity="0.3" clip-path="url(#SVGID_2_)" fill-rule="evenodd" clip-rule="evenodd" fill="#DE7047" d="M0,0h24
		c0,0,0,25.7,0,27c0,9.6-7,13-13,13C6,40,0,35.9,0,28C0,17.6,0,0,0,0z"/>
	
		<rect x="18" opacity="0.6" clip-path="url(#SVGID_2_)" fill-rule="evenodd" clip-rule="evenodd" fill="#BCD676" width="6" height="5"/>
</g>
<path opacity="0.3" fill-rule="evenodd" clip-rule="evenodd" fill="#BCD676" d="M26.2,43.6c-0.3-0.4-0.3-1,0.1-1.3
	c0,0,2.7-2.9,2.7-9.3c0-10.4-4.8-17.4-4.8-17.4c-0.3-0.4-0.2-1,0.2-1.3c0.2-0.2,0.4-0.2,0.6-0.2c0.3,0,0.5,0.1,0.7,0.3
	C26,14.6,33,21.6,33,33c0,7.5-5.3,10.7-5.5,10.9C27.4,44,27.2,44,27,44C26.7,44,26.4,43.9,26.2,43.6z M15.8,43.6
	c0.3-0.4,0.3-1-0.1-1.3c0,0-2.7-2.9-2.7-9.3c0-10.4,4.8-17.4,4.8-17.4c0.3-0.4,0.2-1-0.2-1.3C17.5,14.1,17.2,14,17,14
	c-0.3,0-0.5,0.1-0.7,0.3C16,14.6,9,21.6,9,33c0,7.5,5.3,10.7,5.5,10.9C14.6,44,14.8,44,15,44C15.3,44,15.6,43.9,15.8,43.6z"/>
</svg>
