<?xml version="1.0" encoding="utf-8"?>
<!-- Generator: Adobe Illustrator 19.0.0, SVG Export Plug-In . SVG Version: 6.00 Build 0)  -->
<svg version="1.1" id="Layer_1" xmlns="http://www.w3.org/2000/svg" xmlns:xlink="http://www.w3.org/1999/xlink" x="0px" y="0px"
	 width="52px" height="52px" viewBox="0 0 52 52" style="enable-background:new 0 0 52 52;" xml:space="preserve">
<g>
	<defs>
		<circle id="SVGID_1_" cx="26" cy="26" r="26"/>
	</defs>
	<use xlink:href="#SVGID_1_"  style="overflow:visible;fill:#75A2D9;"/>
	<clipPath id="SVGID_2_">
		<use xlink:href="#SVGID_1_"  style="overflow:visible;"/>
	</clipPath>
	
		<rect x="19.5" y="11.3" transform="matrix(0.5 0.866 -0.866 0.5 48.5224 -9.5183)" style="display:none;opacity:0.2;clip-path:url(#SVGID_2_);fill:#020200;" width="26" height="52"/>
</g>
<g>
	<path style="fill:#DEDCD9;" d="M30,42c0,2.2-1.8,4-4,4s-4-1.8-4-4s1.8-4,4-4S30,39.8,30,42z M35.5,14.7c-1.5-2.5-3.8-4.4-6.7-5.1
		C26,8.8,23,9.2,20.5,10.7c-1,0.6-2.2,1.3-3.5,2v6.9c2.2-1.3,5.5-3.2,6.5-3.8c1.2-0.7,2.5-0.8,3.8-0.5c1.3,0.3,2.4,1.2,3,2.3
		c0.7,1.2,0.8,2.5,0.5,3.8c-0.3,1.3-1.2,2.4-2.3,3L23,27.7V36h6v-4.8l2.5-1.4c2.5-1.5,4.4-3.8,5.1-6.7C37.4,20.2,37,17.3,35.5,14.7z
		"/>
	<g style="opacity:0.5;">
		<path style="fill:#FFFFFF;" d="M30,42c0,2.2-1.8,4-4,4s-4-1.8-4-4s1.8-4,4-4S30,39.8,30,42z M35.5,14.7c-1.5-2.5-3.8-4.4-6.7-5.1
			C26,8.8,23,9.2,20.5,10.7c-1,0.6-2.2,1.3-3.5,2v6.9c2.2-1.3,5.5-3.2,6.5-3.8c1.2-0.7,2.5-0.8,3.8-0.5c1.3,0.3,2.4,1.2,3,2.3
			c0.7,1.2,0.8,2.5,0.5,3.8c-0.3,1.3-1.2,2.4-2.3,3L23,27.7V36h6v-4.8l2.5-1.4c2.5-1.5,4.4-3.8,5.1-6.7C37.4,20.2,37,17.3,35.5,14.7
			z"/>
	</g>
</g>
</svg>
