<svg width="465" height="433" viewBox="0 0 465 433" xmlns="http://www.w3.org/2000/svg" xmlns:xlink="http://www.w3.org/1999/xlink"><title>Mango</title><defs><path id="a" d="M49 287c-16 37-54 62-48 78 5.8 15.4 46.7 46.3 94 57 44 9.8 131.6-.2 161-12.6 7.5-3.2 40.7-17 64.8-34.4 21.8-15.8 34.4-34.6 46.4-51 35-48 47.8-116 47.8-156.6C415 75.4 340.5 1 248.5 1S77 75.4 77 167.3C77 198 65 250 49 287z"/><path id="c" d="M95 89L81 44.8C76 27.4 62 15 44.2 11L.2.8l14 44.2c5.4 17.6 19 29.7 36.6 33.8l44 10.2z"/></defs><g fill="none" fill-rule="evenodd"><g transform="rotate(8 118.144 354.657)"><mask id="b" fill="#fff"><use xlink:href="#a"/></mask><use fill="#F4AB06" xlink:href="#a"/><ellipse fill="#FDD700" mask="url(#b)" cx="172.2" cy="120.4" rx="263" ry="222.5"/></g><use fill="#417505" xlink:href="#c" transform="rotate(26 130.737 907.717)"/><path d="M355.4 83.4s28.7-27 46.2-40c16-12 54.7-35.6 54.7-35.6" stroke="#845124" stroke-width="15" stroke-linecap="round" stroke-linejoin="bevel"/><path d="M179 90.3c57-54 155.6-48 107.7-49.7C189 37.2 128 97.4 124.7 195 123 244.7 120 146 179 90.3z" fill-opacity=".4" fill="#FFF"/></g></svg>