<?xml version="1.0" encoding="utf-8"?>
<!-- Generator: Adobe Illustrator 19.0.0, SVG Export Plug-In . SVG Version: 6.00 Build 0)  -->
<svg version="1.1" id="Layer_1" xmlns="http://www.w3.org/2000/svg" xmlns:xlink="http://www.w3.org/1999/xlink" x="0px" y="0px"
	 width="54px" height="54px" viewBox="0 0 54 54" style="enable-background:new 0 0 54 54;" xml:space="preserve">
<g>
	<defs>
		<path id="SVGID_1_" d="M15,53C6.7,53,1,47.3,1,39V27.1C1,20,4.8,13.4,11,9.8C17.2,6.2,31,1,38,1c5,0,7.8,1.4,10.7,4.3
			C51.6,8.2,53,11,53,16c0,7-5.2,20.8-8.8,27C40.6,49.2,34,53,26.9,53H15z"/>
	</defs>
	<use xlink:href="#SVGID_1_"  style="overflow:visible;fill-rule:evenodd;clip-rule:evenodd;fill:#80B34F;"/>
	<clipPath id="SVGID_2_">
		<use xlink:href="#SVGID_1_"  style="overflow:visible;"/>
	</clipPath>
	<rect style="opacity:0.3;clip-path:url(#SVGID_2_);fill-rule:evenodd;clip-rule:evenodd;fill:#EA7A2F;" width="54" height="54"/>
	<path style="clip-path:url(#SVGID_2_);fill-rule:evenodd;clip-rule:evenodd;fill:#EA7A2F;" d="M7,47c-2-2-3-4.7-3-8l0-11.9
		c0-6.1,3.3-11.7,8.5-14.7C18.7,8.8,32,4,38,4c4.4,0,6.3,1.2,8.6,3.4C48.8,9.7,50,11.6,50,16c0,6-4.8,19.3-8.4,25.5
		c-3,5.2-8.7,8.5-14.7,8.5H15C11.7,50,9,49,7,47z"/>
	<polygon style="opacity:0.3;clip-path:url(#SVGID_2_);fill-rule:evenodd;clip-rule:evenodd;fill:#F7D11A;" points="54,0 0,0 0,54 	
		"/>
	<path style="opacity:0.3;clip-path:url(#SVGID_2_);fill-rule:evenodd;clip-rule:evenodd;fill:#FFFFFF;" d="M43,16c0-2.8-2.2-5-5-5
		c-2.6,0-18,5-23,10s-4,9-4,17c0,2.8,2.2,5,5,5c8,0,12,0,16.5-4.5S43,18.6,43,16z"/>
	<path style="clip-path:url(#SVGID_2_);fill-rule:evenodd;clip-rule:evenodd;fill:#47475E;" d="M14.7,32.3c1.1,0,2,0.9,2,2
		c0,1.1-0.9,2-2,2c-1.1,0-2-0.9-2-2C12.7,33.2,13.6,32.3,14.7,32.3z M19.7,37.3c1.1,0,2,0.9,2,2c0,1.1-0.9,2-2,2c-1.1,0-2-0.9-2-2
		C17.7,38.2,18.6,37.3,19.7,37.3z M21.3,30.6c1.1,0,2,0.9,2,2c0,1.1-0.9,2-2,2c-1.1,0-2-0.9-2-2C19.3,31.5,20.2,30.6,21.3,30.6z
		 M16.3,25.6c1.1,0,2,0.9,2,2c0,1.1-0.9,2-2,2c-1.1,0-2-0.9-2-2C14.3,26.5,15.2,25.6,16.3,25.6z M26.4,35.7c1.1,0,2,0.9,2,2
		c0,1.1-0.9,2-2,2c-1.1,0-2-0.9-2-2C24.3,36.5,25.2,35.7,26.4,35.7z M23,24c1.1,0,2,0.9,2,2c0,1.1-0.9,2-2,2c-1.1,0-2-0.9-2-2
		C21,24.9,21.9,24,23,24z M28,29c1.1,0,2,0.9,2,2c0,1.1-0.9,2-2,2c-1.1,0-2-0.9-2-2C26,29.9,26.9,29,28,29z M29.7,22.3
		c1.1,0,2,0.9,2,2c0,1.1-0.9,2-2,2c-1.1,0-2-0.9-2-2C27.7,23.2,28.6,22.3,29.7,22.3z M31.4,15.6c1.1,0,2,0.9,2,2c0,1.1-0.9,2-2,2
		c-1.1,0-2-0.9-2-2C29.3,16.5,30.2,15.6,31.4,15.6z M36.4,20.6c1.1,0,2,0.9,2,2c0,1.1-0.9,2-2,2c-1.1,0-2-0.9-2-2
		C34.3,21.5,35.2,20.6,36.4,20.6z M38,14c1.1,0,2,0.9,2,2c0,1.1-0.9,2-2,2c-1.1,0-2-0.9-2-2C36,14.9,36.9,14,38,14z M24.7,17.3
		c1.1,0,2,0.9,2,2c0,1.1-0.9,2-2,2c-1.1,0-2-0.9-2-2C22.7,18.2,23.6,17.3,24.7,17.3z M34.7,27.3c1.1,0,2,0.9,2,2c0,1.1-0.9,2-2,2
		c-1.1,0-2-0.9-2-2C32.7,28.2,33.6,27.3,34.7,27.3z"/>
</g>
</svg>
