<?xml version="1.0" encoding="UTF-8" standalone="no"?>
<svg width="195px" height="209px" viewBox="0 0 195 209" version="1.1" xmlns="http://www.w3.org/2000/svg" xmlns:xlink="http://www.w3.org/1999/xlink" xmlns:sketch="http://www.bohemiancoding.com/sketch/ns">
    <!-- Generator: Sketch 3.3.1 (12005) - http://www.bohemiancoding.com/sketch -->
    <title>Perssimon</title>
    <desc>Created with Sketch.</desc>
    <defs></defs>
    <g id="Page-1" stroke="none" stroke-width="1" fill="none" fill-rule="evenodd" sketch:type="MSPage">
        <g id="Perssimon" sketch:type="MSLayerGroup" transform="translate(3.000000, 1.000000)">
            <path d="M94.5,205 C155,205 189,156.870611 189,97.5 C189,38.1293894 137,14 94.5,14 C52,14 0,38.1293894 0,97.5 C0,156.870611 34,205 94.5,205 Z" id="Body" stroke="#CA4A00" stroke-width="5" fill="#F35900" sketch:type="MSShapeGroup"></path>
            <path d="M33.8669682,52.1409004 C56.1213131,29.5398224 94.3444913,31.1778078 74.9232377,31.1778078 C35.3746587,31.1778078 11.5906222,56.4012219 11.5906222,95.949801 C11.5906222,116.077126 10.8035525,75.563655 33.8669682,52.1409004 Z" id="Shine" fill-opacity="0.400000006" fill="#FFFFFF" sketch:type="MSShapeGroup" transform="translate(45.921651, 66.269946) rotate(-5.000000) translate(-45.921651, -66.269946) "></path>
            <g id="Leaves" transform="translate(53.000000, 0.000000)" stroke="#816712" stroke-width="3" fill="#B89326" sketch:type="MSShapeGroup">
                <path d="M43.6344879,10.2162419 C43.6344879,10.2162419 33.3158965,-4.28375847 21.6344879,5.21624186 C14.9332931,10.6660429 -5.46005467,34.5311798 4.63448786,28.2162419 C15.697871,21.2952171 22.948867,14.4258246 37.6344879,24.2162419 C43.6344864,28.2162423 43.6344879,10.2162419 43.6344879,10.2162419 Z" id="Path-4" transform="translate(22.756763, 15.630319) rotate(5.000000) translate(-22.756763, -15.630319) "></path>
                <path d="M45.1771144,9.75326328 C17.4957027,26.7116424 33.1771144,22.7532633 33.1771144,22.7532633 C33.1771144,22.7532633 40.1487048,21.0978734 48.1771144,22.7532633 C56.0818517,24.3831529 67.5533012,11.2574392 85.8585256,18.7948841 C102.858526,25.7948836 72.8585261,-7.20511588 45.1771144,9.75326328 Z" id="Path-2"></path>
                <path d="M34.5587185,9.92679047 C57.5587185,5.92679047 61.5587185,15.9267906 63.5587185,19.9267905 C63.5587185,19.9267905 70.5587185,30.9267903 51.5587185,43.9267905 C50.093088,42.7868557 51.0892218,38.4505152 46.5587185,34.9267903 C40.1946138,29.9769311 24.5587185,26.7710305 24.5587185,22.9267903 C24.5587185,19.9267902 22.5587184,14.9267902 34.5587185,9.92679047 Z" id="Path-4"></path>
            </g>
        </g>
    </g>
</svg>