<?xml version="1.0" encoding="utf-8"?>
<!-- Generator: Adobe Illustrator 19.0.0, SVG Export Plug-In . SVG Version: 6.00 Build 0)  -->
<svg version="1.1" id="Layer_1" xmlns="http://www.w3.org/2000/svg" xmlns:xlink="http://www.w3.org/1999/xlink" x="0px" y="0px"
	 width="41.6px" height="64px" viewBox="0 0 41.6 64" enable-background="new 0 0 41.6 64" xml:space="preserve">
<g>
	<path fill="#80B34F" d="M23.8,27h-6c0,0,0-8.9,0-15.9c0-7,3.1-11.1,3.1-11.1s2.9,4.1,2.9,11.1S23.8,27,23.8,27z"/>
	<path fill="#80B34F" d="M7.1,4l12.3,21.5l5.7-1.6l-6.5-11.5C15.2,6.4,9.7,4,7.1,4z"/>
	<path fill="#80B34F" d="M34.5,4L23,24.1l-6.6,0l6.5-11.5C26.4,6.6,31.9,4,34.5,4z"/>
	<path fill="#80B34F" d="M40.7,16.3L20.8,28L15,24.6l11.6-6.8C32.6,14.4,38.5,15,40.7,16.3z"/>
	<path fill="#80B34F" d="M0.8,16.3l20,11.7l5.7-3.3L15,17.9C9.1,14.5,3.1,15,0.8,16.3z"/>
</g>
<g>
	<defs>
		<path id="SVGID_1_" d="M20.8,64c-12.2,0-17-8-17-14c0-8,2.2-20,6-23c2.7-2.2,7.2-3,11-3c3.8,0,8.2,1,11,3c2.8,2,6,15,6,23
			C37.8,56,33,64,20.8,64z"/>
	</defs>
	<use xlink:href="#SVGID_1_"  overflow="visible" fill="#E0A30A"/>
	<clipPath id="SVGID_2_">
		<use xlink:href="#SVGID_1_"  overflow="visible"/>
	</clipPath>
	<g display="none" clip-path="url(#SVGID_2_)">
		<path opacity="0.5" fill="#9CE84D" d="M38.5,30.7L41.3,41h-41L3,51.3L38.5,30.7z M20.8,61.5l-10.3-2.7L31,23.2l-10.3-2.7V61.5z
			 M38.5,51.3L31,58.8L10.5,23.2L3,30.8L38.5,51.3z"/>
	</g>
	<polygon opacity="0.5" clip-path="url(#SVGID_2_)" fill="#EA7A2F" points="20.8,64 10.4,46 0,64 	"/>
	<polygon opacity="0.5" clip-path="url(#SVGID_2_)" fill="#EA7A2F" points="41.6,64 31.2,46 20.8,64 	"/>
	<polygon display="none" opacity="0.5" clip-path="url(#SVGID_2_)" fill="#F7D11A" points="33.5,24 20.8,46 8.1,24 	"/>
	<polygon opacity="0.5" clip-path="url(#SVGID_2_)" fill="#F7C90B" points="41.6,24 0,24 0,28 10.4,46 20.8,28 31.2,46 41.6,28 	"/>
	<polygon opacity="0.3" clip-path="url(#SVGID_2_)" fill="#FFFFFF" points="38.2,64 31.2,64 8.1,24 38.2,24 	"/>
</g>
</svg>
