<?xml version="1.0" encoding="utf-8"?>
<!-- Generator: Adobe Illustrator 19.0.0, SVG Export Plug-In . SVG Version: 6.00 Build 0)  -->
<svg version="1.1" id="Layer_1" xmlns="http://www.w3.org/2000/svg" xmlns:xlink="http://www.w3.org/1999/xlink" x="0px" y="0px"
	 width="42px" height="49px" viewBox="0 0 42 49" enable-background="new 0 0 42 49" xml:space="preserve">
<g>
	<defs>
		<path id="SVGID_1_" d="M29,13c-3,0-5.8,1-8,2.8C18.8,14,16,13,13,13C7,13,0,16,0,27c0,13,8.5,21.7,21,21.7c12.5,0,21-8.7,21-21.7
			C42,16,35,13,29,13z"/>
	</defs>
	<use xlink:href="#SVGID_1_"  overflow="visible" fill="#47475E"/>
	<clipPath id="SVGID_2_">
		<use xlink:href="#SVGID_1_"  overflow="visible"/>
	</clipPath>
	<rect y="13" clip-path="url(#SVGID_2_)" fill="#C7441C" fill-opacity="0.5" width="42" height="36"/>
	<rect y="13" clip-path="url(#SVGID_2_)" fill="#D993AD" fill-opacity="0.3" width="21" height="36"/>
</g>
<path fill="#80B34F" d="M40.1,0l-4,6.8c-1.6,2.7-4.3,4.2-7.4,4.2H21l4-6.8C26.5,1.5,29.3,0,32.4,0H40.1z"/>
<g>
	<defs>
		<path id="SVGID_3_" d="M21,45.6c-11,0-18-8-18-18.6c0-9.1,5.4-11,10-11c2.2,0,4.4,0.7,6.2,2.1l1.8,1.4l1.8-1.4
			c1.8-1.4,3.9-2.1,6.2-2.1c4.6,0,10,1.9,10,11C39,37.6,32,45.6,21,45.6z"/>
	</defs>
	<use xlink:href="#SVGID_3_"  overflow="visible" fill="#F7C90B"/>
	<clipPath id="SVGID_4_">
		<use xlink:href="#SVGID_3_"  overflow="visible"/>
	</clipPath>
	<rect x="21" y="15.8" clip-path="url(#SVGID_4_)" fill="#7D1CC7" fill-opacity="0.15" width="18" height="30.8"/>
</g>
<g>
	<path fill="#EA7A2F" d="M26,31c0,4.1-1.9,5.7-5,7.5c-3.1-1.8-5-3.4-5-7.5s1.9-5.7,5-7.5C24.1,25.3,26,26.9,26,31z"/>
	<path opacity="0.5" fill="#93684E" d="M26,31c0,4.1-1.9,5.7-5,7.5c-3.1-1.8-5-3.4-5-7.5s1.9-5.7,5-7.5C24.1,25.3,26,26.9,26,31z"/>
</g>
</svg>
