<?xml version="1.0" encoding="utf-8"?>
<!-- Generator: Adobe Illustrator 19.0.0, SVG Export Plug-In . SVG Version: 6.00 Build 0)  -->
<svg version="1.1" id="Layer_1" xmlns="http://www.w3.org/2000/svg" xmlns:xlink="http://www.w3.org/1999/xlink" x="0px" y="0px"
	 width="655.1px" height="729.3px" viewBox="0 0 655.1 729.3" enable-background="new 0 0 655.1 729.3" xml:space="preserve">
<g id="XMLID_27_">
	<polyline id="XMLID_26_" fill="#6D1211" points="413.3,173.3 543.6,48.3 488,220.7 	"/>
	<path id="XMLID_25_" fill="#6D1211" d="M500.4,229.7c0,0,81.3-73.2,154.7-57.2c0,0-103.5-87.8-183.8,8.3S500.4,229.7,500.4,229.7z"
		/>
	<path id="XMLID_24_" fill="#6D1211" d="M397.2,164.3c0,0,31.5-104.8-14.3-164.3c0,0,123.6,56.1,71,169.7S397.2,164.3,397.2,164.3z"
		/>
	
		<circle id="XMLID_20_" fill="#B92026" stroke="#6D1211" stroke-width="16" stroke-miterlimit="10" cx="305.9" cy="423.4" r="297.8"/>
	<path id="XMLID_28_" fill="#C91B27" d="M449.3,179.3c137.9,87.4,180.9,264,95.6,398.6S283.9,745.4,146,658
		c0,0,76.5-60.6,180.4-218.6C442.5,263,449.3,179.3,449.3,179.3z"/>
	<g id="XMLID_23_">
		<path id="XMLID_33_" fill="#DD3636" d="M144.1,232.2c0,0,0.9-1,2.6-3c1.7-1.9,4.1-4.7,7.8-8.2c3.6-3.6,8.1-7.5,13.4-11.9
			c2.7-2.1,5.6-4.4,8.8-6.7c1.6-1.1,3.2-2.3,4.9-3.4c0.8-0.6,1.7-1.2,2.6-1.7c0.9-0.6,1.8-1.1,2.7-1.7c1.8-1.1,3.7-2.3,5.6-3.4
			c1.9-1.2,3.9-2.2,5.9-3.3c4-2.3,8.3-4.3,12.8-6.5c1.1-0.6,2.2-1,3.4-1.5c1.1-0.5,2.3-1,3.5-1.5c2.3-1,4.7-2,7.1-2.9
			c2.4-0.9,4.9-1.8,7.4-2.7c2.5-0.8,5.1-1.6,7.6-2.4c10.3-3.1,21.2-5.7,32.5-7.4c11.3-1.7,22.8-2.5,34.4-2.6
			c11.6-0.1,23.1,0.9,34.4,2.6c2.8,0.5,5.6,0.8,8.4,1.4c2.8,0.6,5.5,1.1,8.2,1.7c2.7,0.6,5.4,1.3,8.1,2c2.7,0.7,5.3,1.5,7.9,2.3
			c5.2,1.5,10.2,3.4,15,5.2c2.4,1,4.8,2,7.1,3c1.2,0.5,2.3,1,3.5,1.5c1.1,0.5,2.3,1.1,3.4,1.6c9,4.1,17,8.9,24.2,13.5
			c3.6,2.4,6.9,4.7,10.1,7c3.1,2.4,6,4.6,8.7,6.8c2.6,2.3,5.1,4.4,7.3,6.4c0.3,0.3,0.6,0.5,0.8,0.7c0.3,0.2,0.5,0.5,0.8,0.7
			c0.5,0.5,1,1,1.5,1.5c1,0.9,1.9,1.9,2.8,2.7c3.5,3.5,6.1,6.4,7.8,8.4c0.9,1,1.5,1.8,1.9,2.3c0.4,0.5,0.7,0.8,0.7,0.8
			c2.1,2.6,1.8,6.4-0.9,8.6c-2,1.6-4.7,1.8-6.8,0.6l-0.1-0.1c0,0-1.2-0.7-3.4-1.9c-2.2-1.2-5.4-3-9.4-5.2c-1-0.5-2.1-1.1-3.2-1.7
			c-0.6-0.3-1.1-0.6-1.7-0.9c-0.3-0.2-0.6-0.3-0.9-0.5c-0.3-0.1-0.6-0.3-0.9-0.4c-2.5-1.2-5.1-2.6-8-4c-2.9-1.3-5.9-2.8-9.1-4.3
			c-3.2-1.4-6.6-2.9-10.2-4.4c-1.8-0.7-3.6-1.4-5.5-2.2c-0.9-0.4-1.9-0.7-2.8-1.1c-1-0.3-1.9-0.7-2.9-1c-1.9-0.7-3.9-1.4-5.9-2.1
			c-2-0.6-4.1-1.3-6.2-2c-1-0.3-2.1-0.7-3.1-1c-1.1-0.3-2.1-0.6-3.2-0.9c-2.1-0.6-4.3-1.3-6.5-1.8c-4.4-1.1-8.9-2.3-13.5-3.3
			c-4.6-1.1-9.3-1.8-14.1-2.7c-2.4-0.3-4.8-0.7-7.2-1.1c-1.2-0.2-2.4-0.3-3.6-0.5c-1.2-0.1-2.4-0.3-3.7-0.4
			c-1.2-0.1-2.4-0.3-3.7-0.4c-1.2-0.1-2.5-0.2-3.7-0.3c-2.5-0.2-4.9-0.5-7.4-0.6c-2.5-0.1-5-0.3-7.5-0.4l-7.5-0.1
			c-10,0-20,0.5-29.8,1.4c-9.8,1-19.4,2.6-28.7,4.5c-9.3,1.8-18.1,4.3-26.5,6.8c-4.1,1.4-8.2,2.6-12.1,4.1c-1.9,0.7-3.9,1.3-5.7,2.1
			c-1.8,0.8-3.7,1.5-5.5,2.2c-0.9,0.4-1.8,0.7-2.7,1c-0.9,0.4-1.7,0.8-2.6,1.1c-1.7,0.8-3.4,1.5-5,2.1c-3.2,1.4-6.2,2.9-9.1,4.2
			c-2.9,1.4-5.5,2.8-8,4c-0.6,0.3-1.2,0.6-1.8,0.9c-0.6,0.3-1.1,0.6-1.7,0.9c-1.1,0.6-2.2,1.2-3.1,1.7c-4,2-7.3,4.1-9.5,5.3
			c-2.2,1.2-3.4,1.9-3.4,1.9c-2.9,1.6-6.6,0.6-8.3-2.4C142.1,236.9,142.4,234.1,144.1,232.2z"/>
	</g>
</g>
</svg>
