<?xml version="1.0" encoding="utf-8"?>
<!-- Generator: Adobe Illustrator 19.0.0, SVG Export Plug-In . SVG Version: 6.00 Build 0)  -->
<svg version="1.1" id="Layer_1" xmlns="http://www.w3.org/2000/svg" xmlns:xlink="http://www.w3.org/1999/xlink" x="0px" y="0px"
	 width="40px" height="51.9px" viewBox="0 0 40 51.9" enable-background="new 0 0 40 51.9" xml:space="preserve">
<g>
	<path fill-rule="evenodd" clip-rule="evenodd" fill="#BCD676" d="M37.1,8.2c0.3-1,1.5-5.4,1.6-6c0.1-0.6-0.4-1.4-1.2-1.9
		c-0.8-0.5-1.8-0.5-2.2-0.1c-0.4,0.4-3.7,3.7-4.4,4.4C30.2,5.4,36.8,9.2,37.1,8.2z"/>
	<path opacity="0.5" fill-rule="evenodd" clip-rule="evenodd" fill="#93684E" d="M37.1,8.2c0.3-1,1.5-5.4,1.6-6
		c0.1-0.6-0.4-1.4-1.2-1.9c-0.8-0.5-1.8-0.5-2.2-0.1c-0.4,0.4-3.7,3.7-4.4,4.4C30.2,5.4,36.8,9.2,37.1,8.2z"/>
</g>
<g>
	<defs>
		<path id="SVGID_1_" d="M33.8,28.6c0.9-1.6,2.4-4.1,4.7-8.2c3-5.2,1.2-11.9-4-14.9c-5.2-3-11.9-1.2-14.9,4
			c-2.4,4.1-3.8,6.6-4.7,8.2c-0.9,1.6-3,3.1-6.4,5.1c-2.5,1.4-5.4,3.9-6.9,6.4c-4.1,7-0.2,15.2,7.7,19.8c7.9,4.6,17,3.8,21-3.2
			c1.5-2.6,2.2-6.3,2.2-9.2C32.6,32.7,32.8,30.2,33.8,28.6z"/>
	</defs>
	<use xlink:href="#SVGID_1_"  overflow="visible" fill="#EA7A2F"/>
	<clipPath id="SVGID_2_">
		<use xlink:href="#SVGID_1_"  overflow="visible"/>
	</clipPath>
	<rect x="0" y="4.2" clip-path="url(#SVGID_2_)" fill="#F7C90B" fill-opacity="0.3" width="40" height="47.7"/>
	<path clip-path="url(#SVGID_2_)" fill-rule="evenodd" clip-rule="evenodd" fill="#EA7A2F" d="M24.3,41.3c-2.5,4.3-7.5,4.9-11.8,2.4
		c-4.3-2.5-6.3-7.1-3.8-11.4c2.5-4.3,9.4-7.6,13.4-5.3C26.1,29.3,26.8,37,24.3,41.3z"/>
	<path clip-path="url(#SVGID_2_)" fill="#E9BF54" d="M16.6,32.3c0.7-0.4,0.9-1.5,0.3-2.5c-0.6-1-1.6-1.4-2.3-1
		c-0.7,0.4-0.9,1.5-0.3,2.5C14.9,32.3,15.9,32.7,16.6,32.3z M14.2,34.5c0.4-0.7,0-1.7-1-2.3c-1-0.6-2.1-0.4-2.5,0.3
		c-0.4,0.7,0,1.7,1,2.3C12.7,35.4,13.8,35.2,14.2,34.5z M13.5,38.3c0-0.8-0.9-1.5-2-1.5c-1.1,0-2,0.7-2,1.5c0,0.8,0.9,1.5,2,1.5
		C12.6,39.8,13.5,39.1,13.5,38.3z M22.3,35.9c1.1,0,2-0.7,2-1.5c0-0.8-0.9-1.5-2-1.5c-1.1,0-2,0.7-2,1.5
		C20.3,35.2,21.1,35.9,22.3,35.9z M20.5,39.9c1,0.6,2.1,0.4,2.5-0.3c0.4-0.7,0-1.7-1-2.3c-1-0.6-2.1-0.4-2.5,0.3
		C19.1,38.3,19.5,39.3,20.5,39.9z M16.3,42.6c0.6,1,1.6,1.4,2.3,1c0.7-0.4,0.9-1.5,0.3-2.5c-0.6-1-1.6-1.4-2.3-1
		C15.9,40.5,15.8,41.6,16.3,42.6z"/>
	<path clip-path="url(#SVGID_2_)" fill="#FFFFFF" fill-opacity="0.3" d="M37.3,7.7c-2.7,0-4.7,1.2-6.2,3.7C29.4,14.3,10,47.9,9.4,49
		H0V4h37.2L37.3,7.7z"/>
</g>
</svg>
