<?xml version="1.0" encoding="iso-8859-1"?>
<!-- Generator: Adobe Illustrator 19.0.0, SVG Export Plug-In . SVG Version: 6.00 Build 0)  -->
<svg version="1.1" id="Layer_1" xmlns="http://www.w3.org/2000/svg" xmlns:xlink="http://www.w3.org/1999/xlink" x="0px" y="0px"
	 width="37px" height="49px" viewBox="0 0 37 49" style="enable-background:new 0 0 37 49;" xml:space="preserve">
<g>
	<path style="fill:#80B34F;" d="M29.124,2.697c-0.002,2.788-1.45,5.504-4.044,7c-2.586,1.494-5.663,1.396-8.08,0.001L29.124,2.697z"
		/>
	<path style="opacity:0.3;fill:#006838;" d="M29.124,2.697c-0.002,2.788-1.45,5.504-4.044,7c-2.586,1.494-5.663,1.396-8.08,0.001
		L29.124,2.697z"/>
</g>
<g>
	<path style="fill:#80B34F;" d="M20,9.698c-2.417,1.396-5.493,1.493-8.08-0.001c-2.594-1.496-4.042-4.212-4.044-7L20,9.698z"/>
	<g style="opacity:0.3;">
		<path style="fill:#006838;" d="M20,9.698c-2.417,1.396-5.493,1.493-8.08-0.001c-2.594-1.496-4.042-4.212-4.044-7L20,9.698z"/>
	</g>
</g>
<path style="fill:#80B34F;" d="M20,12c0,0,0-10.448,0-11s-0.671-1-1.5-1S17,0.448,17,1s0,11,0,11H20z"/>
<g>
	<defs>
		<path id="SVGID_1_" d="M18.499,49c-3.949,0-6.54-2.237-7.829-4.5c0,0-2.952-5.135-7.749-13.489
			c-4.798-8.354-3.19-13.872,1.241-17.141C7.021,11.759,11.985,11,18.5,11c6.515,0,11.479,0.759,14.337,2.87
			c4.433,3.269,6.039,8.787,1.242,17.141L26.328,44.5C25.041,46.763,22.447,49,18.499,49z"/>
	</defs>
	<use xlink:href="#SVGID_1_"  style="overflow:visible;fill:#C7441C;"/>
	<clipPath id="SVGID_2_">
		<use xlink:href="#SVGID_1_"  style="overflow:visible;"/>
	</clipPath>
	<path style="opacity:0.3;clip-path:url(#SVGID_2_);fill:#D993AD;" d="M0,46V7c0,0,14.399,0.258,17.258,2.369
		c4.433,3.269,6.039,8.787,1.242,17.141L7.821,45.095L0,46z"/>
	<g style="opacity:0.6;clip-path:url(#SVGID_2_);">
		<path style="fill:#F7D11A;" d="M20,43.5c0,0.828-0.671,1.5-1.5,1.5S17,44.328,17,43.5c0-0.273,0.072-0.529,0.2-0.75
			c0.06-0.102,1.3-2.24,1.3-2.24s1.24,2.139,1.3,2.24C19.928,42.971,20,43.227,20,43.5z M15.8,35.75c-0.06-0.102-1.3-2.24-1.3-2.24
			s-1.24,2.139-1.3,2.24c-0.128,0.221-0.2,0.477-0.2,0.75c0,0.828,0.671,1.5,1.5,1.5s1.5-0.672,1.5-1.5
			C16,36.227,15.928,35.971,15.8,35.75z M23.8,35.75c-0.06-0.102-1.3-2.24-1.3-2.24s-1.24,2.139-1.3,2.24
			c-0.128,0.221-0.2,0.477-0.2,0.75c0,0.828,0.671,1.5,1.5,1.5s1.5-0.672,1.5-1.5C24,36.227,23.928,35.971,23.8,35.75z M15.8,21.75
			c-0.06-0.102-1.3-2.24-1.3-2.24s-1.24,2.139-1.3,2.24c-0.128,0.221-0.2,0.477-0.2,0.75c0,0.828,0.671,1.5,1.5,1.5
			s1.5-0.672,1.5-1.5C16,22.227,15.928,21.971,15.8,21.75z M7.8,21.75c-0.06-0.102-1.3-2.24-1.3-2.24s-1.24,2.139-1.3,2.24
			C5.072,21.971,5,22.227,5,22.5C5,23.328,5.671,24,6.5,24S8,23.328,8,22.5C8,22.227,7.928,21.971,7.8,21.75z M31.8,21.75
			c-0.06-0.102-1.3-2.24-1.3-2.24s-1.24,2.139-1.3,2.24c-0.128,0.221-0.2,0.477-0.2,0.75c0,0.828,0.671,1.5,1.5,1.5
			s1.5-0.672,1.5-1.5C32,22.227,31.928,21.971,31.8,21.75z M23.8,21.75c-0.06-0.102-1.3-2.24-1.3-2.24s-1.24,2.139-1.3,2.24
			c-0.128,0.221-0.2,0.477-0.2,0.75c0,0.828,0.671,1.5,1.5,1.5s1.5-0.672,1.5-1.5C24,22.227,23.928,21.971,23.8,21.75z M19.8,28.75
			c-0.06-0.102-1.3-2.24-1.3-2.24s-1.24,2.139-1.3,2.24c-0.128,0.221-0.2,0.477-0.2,0.75c0,0.828,0.671,1.5,1.5,1.5
			s1.5-0.672,1.5-1.5C20,29.227,19.928,28.971,19.8,28.75z M27.8,28.75c-0.06-0.102-1.3-2.24-1.3-2.24s-1.24,2.139-1.3,2.24
			c-0.128,0.221-0.2,0.477-0.2,0.75c0,0.828,0.671,1.5,1.5,1.5s1.5-0.672,1.5-1.5C28,29.227,27.928,28.971,27.8,28.75z M11.8,28.75
			c-0.06-0.102-1.3-2.24-1.3-2.24s-1.24,2.139-1.3,2.24C9.072,28.971,9,29.227,9,29.5c0,0.828,0.671,1.5,1.5,1.5s1.5-0.672,1.5-1.5
			C12,29.227,11.928,28.971,11.8,28.75z"/>
		<g style="opacity:0.5;">
			<path style="fill:#FFFFFF;" d="M20,43.5c0,0.828-0.671,1.5-1.5,1.5S17,44.328,17,43.5c0-0.273,0.072-0.529,0.2-0.75
				c0.06-0.102,1.3-2.24,1.3-2.24s1.24,2.139,1.3,2.24C19.928,42.971,20,43.227,20,43.5z M15.8,35.75c-0.06-0.102-1.3-2.24-1.3-2.24
				s-1.24,2.139-1.3,2.24c-0.128,0.221-0.2,0.477-0.2,0.75c0,0.828,0.671,1.5,1.5,1.5s1.5-0.672,1.5-1.5
				C16,36.227,15.928,35.971,15.8,35.75z M23.8,35.75c-0.06-0.102-1.3-2.24-1.3-2.24s-1.24,2.139-1.3,2.24
				c-0.128,0.221-0.2,0.477-0.2,0.75c0,0.828,0.671,1.5,1.5,1.5s1.5-0.672,1.5-1.5C24,36.227,23.928,35.971,23.8,35.75z M15.8,21.75
				c-0.06-0.102-1.3-2.24-1.3-2.24s-1.24,2.139-1.3,2.24c-0.128,0.221-0.2,0.477-0.2,0.75c0,0.828,0.671,1.5,1.5,1.5
				s1.5-0.672,1.5-1.5C16,22.227,15.928,21.971,15.8,21.75z M7.8,21.75c-0.06-0.102-1.3-2.24-1.3-2.24s-1.24,2.139-1.3,2.24
				C5.072,21.971,5,22.227,5,22.5C5,23.328,5.671,24,6.5,24S8,23.328,8,22.5C8,22.227,7.928,21.971,7.8,21.75z M31.8,21.75
				c-0.06-0.102-1.3-2.24-1.3-2.24s-1.24,2.139-1.3,2.24c-0.128,0.221-0.2,0.477-0.2,0.75c0,0.828,0.671,1.5,1.5,1.5
				s1.5-0.672,1.5-1.5C32,22.227,31.928,21.971,31.8,21.75z M23.8,21.75c-0.06-0.102-1.3-2.24-1.3-2.24s-1.24,2.139-1.3,2.24
				c-0.128,0.221-0.2,0.477-0.2,0.75c0,0.828,0.671,1.5,1.5,1.5s1.5-0.672,1.5-1.5C24,22.227,23.928,21.971,23.8,21.75z M19.8,28.75
				c-0.06-0.102-1.3-2.24-1.3-2.24s-1.24,2.139-1.3,2.24c-0.128,0.221-0.2,0.477-0.2,0.75c0,0.828,0.671,1.5,1.5,1.5
				s1.5-0.672,1.5-1.5C20,29.227,19.928,28.971,19.8,28.75z M27.8,28.75c-0.06-0.102-1.3-2.24-1.3-2.24s-1.24,2.139-1.3,2.24
				c-0.128,0.221-0.2,0.477-0.2,0.75c0,0.828,0.671,1.5,1.5,1.5s1.5-0.672,1.5-1.5C28,29.227,27.928,28.971,27.8,28.75z M11.8,28.75
				c-0.06-0.102-1.3-2.24-1.3-2.24s-1.24,2.139-1.3,2.24C9.072,28.971,9,29.227,9,29.5c0,0.828,0.671,1.5,1.5,1.5s1.5-0.672,1.5-1.5
				C12,29.227,11.928,28.971,11.8,28.75z"/>
		</g>
	</g>
</g>
<g>
	<path style="fill:#80B34F;" d="M4,9c1.595,2.759,4.58,4.619,8.002,4.618c3.413,0.001,6.403-1.853,7.998-4.617L4,9z"/>
	<path style="fill:#80B34F;" d="M33,9c-1.595,2.759-4.58,4.619-8.002,4.618c-3.415,0.001-6.403-1.853-7.998-4.617L33,9z"/>
</g>
</svg>
