<?xml version="1.0" encoding="utf-8"?>
<!-- Generator: Adobe Illustrator 19.0.0, SVG Export Plug-In . SVG Version: 6.00 Build 0)  -->
<svg version="1.1" id="Layer_1" xmlns="http://www.w3.org/2000/svg" xmlns:xlink="http://www.w3.org/1999/xlink" x="0px" y="0px"
	 width="52px" height="38.1px" viewBox="0 0 52 38.1" style="enable-background:new 0 0 52 38.1;" xml:space="preserve">
<g>
	<defs>
		<path id="SVGID_1_" d="M14.8,31.5C2.2,24.2-2.2,10.8,1,5.4c3.1-5.4,16.9-8.3,29.5-1c9.9,5.7,15,12.9,17.7,17.4
			c2.5,4.3,4.9,10.3,3.4,12.9c-1.5,2.6-7.7,3.4-12.8,3.4C33.5,38.1,24.8,37.2,14.8,31.5z"/>
	</defs>
	<use xlink:href="#SVGID_1_"  style="overflow:visible;fill-rule:evenodd;clip-rule:evenodd;fill:#DE7047;"/>
	<clipPath id="SVGID_2_">
		<use xlink:href="#SVGID_1_"  style="overflow:visible;"/>
	</clipPath>
	<path style="opacity:0.5;clip-path:url(#SVGID_2_);fill-rule:evenodd;clip-rule:evenodd;fill:#93684E;" d="M3,38.1
		c0,0-2.4-18.2-0.8-21.1c2.3-3.9,12.1-6,21.2-0.7c7.1,4.1,10.8,9.3,12.7,12.5c1.8,3.1,3.5,7.4,2.4,9.3H3z"/>
</g>
<path style="opacity:0.3;fill:#231F20;" d="M7.8,11.1c0-1.1,0.9-2,2-2s2,0.9,2,2s-0.9,2-2,2S7.8,12.2,7.8,11.1z M30,26.1
	c-1.1,0-2,0.9-2,2s0.9,2,2,2s2-0.9,2-2S31.1,26.1,30,26.1z M37.8,28.1c0,1.1,0.9,2,2,2s2-0.9,2-2s-0.9-2-2-2S37.8,27,37.8,28.1z
	 M14.9,17.6c-1.1,0-2,0.9-2,2s0.9,2,2,2c1.1,0,2-0.9,2-2S16,17.6,14.9,17.6z M34.9,17.6c-1.1,0-2,0.9-2,2s0.9,2,2,2c1.1,0,2-0.9,2-2
	S36,17.6,34.9,17.6z"/>
</svg>
