<?xml version="1.0" encoding="utf-8"?>
<!-- Generator: Adobe Illustrator 19.0.0, SVG Export Plug-In . SVG Version: 6.00 Build 0)  -->
<svg version="1.1" id="Layer_1" xmlns="http://www.w3.org/2000/svg" xmlns:xlink="http://www.w3.org/1999/xlink" x="0px" y="0px"
	 width="54px" height="62px" viewBox="0 0 54 62" enable-background="new 0 0 54 62" xml:space="preserve">
<g>
	<defs>
		<path id="SVGID_1_" d="M43.1,3.2c14.4,8.3,13.2,24.3,4.3,39.6c-8.9,15.4-22.1,24.3-36.5,16.1C-3.4,50.6-2.3,34.6,6.6,19.2
			C15.5,3.8,28.7-5.1,43.1,3.2z"/>
	</defs>
	<use xlink:href="#SVGID_1_"  overflow="visible" fill="#80B34F"/>
	<clipPath id="SVGID_2_">
		<use xlink:href="#SVGID_1_"  overflow="visible"/>
	</clipPath>
	<path opacity="0.7" clip-path="url(#SVGID_2_)" fill="#FFFFFF" d="M44.8,41.3c4.4-7.6,12.8-26.2-3.2-35.5c-16.1-9.3-28,7.4-32.4,15
		C4.8,28.3-3.7,47,12.4,56.2l0,0c0,0,0,0,0,0c0,0,0,0,0,0l0,0C28.5,65.5,40.4,48.9,44.8,41.3z"/>
	<path clip-path="url(#SVGID_2_)" fill="#DE7047" d="M40.1,8.4c-13.2-7.6-23.4,5.4-28.3,13.9C6.9,30.7,0.7,46,13.9,53.6
		c13.2,7.6,23.4-5.4,28.3-13.9C47.1,31.3,53.3,16,40.1,8.4z"/>
	<path clip-path="url(#SVGID_2_)" fill="#47475E" d="M38.4,35.3c1,0.6,1.3,1.8,0.7,2.7c-0.6,1-1.8,1.3-2.7,0.7
		c-0.3-0.2-0.6-0.4-0.7-0.7c-0.1-0.1-1.7-3-1.7-3s3.3,0,3.5,0C37.7,35,38.1,35.1,38.4,35.3z M43.1,23c1,0.6,1.3,1.8,0.7,2.7
		c-0.6,1-1.8,1.3-2.7,0.7c-0.3-0.2-0.6-0.4-0.7-0.7c-0.1-0.1-1.7-3-1.7-3s3.3,0,3.5,0C42.5,22.7,42.8,22.8,43.1,23z M30.1,45.5
		c1,0.6,1.3,1.8,0.7,2.7c-0.6,1-1.8,1.3-2.7,0.7c-0.3-0.2-0.6-0.4-0.7-0.7c-0.1-0.1-1.7-3-1.7-3s3.3,0,3.5,0
		C29.5,45.3,29.8,45.3,30.1,45.5z M30.2,37.5c1,0.5,1.3,1.8,0.7,2.7c-0.6,1-1.8,1.3-2.7,0.7c-0.3-0.2-0.6-0.4-0.7-0.7
		c-0.1-0.1-1.7-3-1.7-3s3.3,0,3.5,0C29.5,37.2,29.9,37.3,30.2,37.5z M36.2,27.1c1,0.5,1.3,1.8,0.7,2.7c-0.6,1-1.8,1.3-2.7,0.7
		c-0.3-0.2-0.6-0.4-0.7-0.7c-0.1-0.1-1.7-3-1.7-3s3.3,0,3.5,0C35.5,26.8,35.9,26.9,36.2,27.1z M40.2,17.8c-0.1-0.1-3-1.7-3-1.7
		s2.9-1.7,3-1.7c0.3-0.2,0.6-0.3,1-0.3c1.1,0,2,0.9,2,2c0,1.1-0.9,2-2,2C40.8,18.1,40.5,18,40.2,17.8z M22.9,49.7
		c0.6,1,0.2,2.2-0.7,2.7c-1,0.6-2.2,0.2-2.7-0.7c-0.2-0.3-0.3-0.7-0.3-1c0-0.2,0-3.5,0-3.5s2.9,1.6,3,1.7
		C22.5,49.2,22.8,49.4,22.9,49.7z"/>
	<path clip-path="url(#SVGID_2_)" fill="#47475E" d="M18.3,24c0.1,0.1,1.7,3,1.7,3s-3.3,0-3.5,0c-0.3,0-0.7-0.1-1-0.3
		c-1-0.6-1.3-1.8-0.7-2.7c0.6-1,1.8-1.3,2.7-0.7C17.9,23.5,18.2,23.7,18.3,24z M26.6,13.7c0.1,0.1,1.7,3,1.7,3s-3.3,0-3.5,0
		c-0.3,0-0.7-0.1-1-0.3c-1-0.6-1.3-1.8-0.7-2.7c0.6-1,1.8-1.3,2.7-0.7C26.2,13.2,26.4,13.5,26.6,13.7z M13.6,36.3
		c0.1,0.1,1.7,3,1.7,3s-3.3,0-3.5,0c-0.3,0-0.7-0.1-1-0.3c-1-0.6-1.3-1.8-0.7-2.7c0.6-1,1.8-1.3,2.7-0.7
		C13.2,35.7,13.4,36,13.6,36.3z M20.5,32.2c0.1,0.1,1.7,3,1.7,3s-3.3,0-3.5,0c-0.3,0-0.7-0.1-1-0.3c-1-0.6-1.3-1.8-0.7-2.7
		c0.6-1,1.8-1.3,2.7-0.7C20.1,31.7,20.4,31.9,20.5,32.2z M26.5,21.8c0.1,0.1,1.7,3,1.7,3s-3.3,0-3.5,0c-0.3,0-0.7-0.1-1-0.3
		c-1-0.6-1.3-1.8-0.7-2.7c0.6-1,1.8-1.3,2.7-0.7C26.1,21.3,26.4,21.5,26.5,21.8z M31.1,12.2c-0.6-1-0.2-2.2,0.7-2.7
		c1-0.6,2.2-0.2,2.7,0.7c0.2,0.3,0.3,0.7,0.3,1c0,0.2,0,3.5,0,3.5s-2.9-1.6-3-1.7C31.5,12.8,31.2,12.6,31.1,12.2z M13.8,44.2
		c0.1,0.1,3,1.7,3,1.7s-2.9,1.7-3,1.7c-0.3,0.2-0.6,0.3-1,0.3c-1.1,0-2-0.9-2-2c0-1.1,0.9-2,2-2C13.2,43.9,13.5,44,13.8,44.2z"/>
	<polygon opacity="0.3" clip-path="url(#SVGID_2_)" fill="#FFFFFF" points="44.9,0 0,0 0,62 9.1,62 	"/>
</g>
</svg>
