<?xml version="1.0" encoding="utf-8"?>
<!-- Generator: Adobe Illustrator 19.0.0, SVG Export Plug-In . SVG Version: 6.00 Build 0)  -->
<svg version="1.1" id="Layer_1" xmlns="http://www.w3.org/2000/svg" xmlns:xlink="http://www.w3.org/1999/xlink" x="0px" y="0px"
	 width="42px" height="58.1px" viewBox="0 0 42 58.1" style="enable-background:new 0 0 42 58.1;" xml:space="preserve">
<g>
	<defs>
		<path id="SVGID_1_" d="M42,15.1C42,6.8,35.2,0,26.9,0c-5.6,0-10.5,3-13.1,7.6c-1.3,2.2-7.3,12.7-11,19C1,29.7,0,33.2,0,37.1
			c0,11.6,9.4,21,21,21s21-9.4,21-21C42,28.3,42,23.5,42,15.1z"/>
	</defs>
	<use xlink:href="#SVGID_1_"  style="overflow:visible;fill:#80B34F;"/>
	<clipPath id="SVGID_2_">
		<use xlink:href="#SVGID_1_"  style="overflow:visible;"/>
	</clipPath>
	<path style="clip-path:url(#SVGID_2_);fill:#BCD676;" d="M21,55.1c-9.9,0-18-8.1-18-18c0-3.2,0.8-6.3,2.4-9
		c2.4-4.1,5.7-10,8.2-14.2l2.8-4.8C18.5,5.3,22.6,3,26.9,3C33.6,3,39,8.4,39,15.1v21.9C39,47,30.9,55.1,21,55.1z"/>
	<polygon style="opacity:0.15;clip-path:url(#SVGID_2_);fill:#006838;" points="15.3,58.1 42,58.1 42,0.1 30.8,0.1 	"/>
	<path style="clip-path:url(#SVGID_2_);fill-rule:evenodd;clip-rule:evenodd;fill:#D99A57;" d="M30.3,38.4c-1.3,5-6.4,7.7-11.4,6.3
		c-5-1.3-8-6.2-6.7-11.2c1.3-5,7.4-10.2,12-8.9C28.9,25.9,31.6,33.4,30.3,38.4z"/>
	<path style="opacity:0.5;clip-path:url(#SVGID_2_);fill-rule:evenodd;clip-rule:evenodd;fill:#93684E;" d="M24.2,24.6
		c4.7,1.3,7.4,8.8,6,13.8c-1.3,5-6.4,7.7-11.4,6.3L24.2,24.6z"/>
</g>
</svg>
