<?xml version="1.0" encoding="UTF-8" standalone="no"?>
<svg width="83px" height="71px" viewBox="0 0 83 71" version="1.1" xmlns="http://www.w3.org/2000/svg" xmlns:xlink="http://www.w3.org/1999/xlink" xmlns:sketch="http://www.bohemiancoding.com/sketch/ns">
    <!-- Generator: Sketch 3.3.1 (12005) - http://www.bohemiancoding.com/sketch -->
    <title>banana</title>
    <desc>Created with Sketch.</desc>
    <defs></defs>
    <g id="Website" stroke="none" stroke-width="1" fill="none" fill-rule="evenodd" sketch:type="MSPage">
        <g id="Desktop" sketch:type="MSArtboardGroup" transform="translate(-78.000000, -384.000000)">
            <g id="Fruits" sketch:type="MSLayerGroup" transform="translate(45.000000, 348.000000)">
                <g id="Banana" sketch:type="MSShapeGroup">
                    <g id="banana" transform="translate(73.000000, 73.014085) rotate(8.000000) translate(-73.000000, -73.014085) translate(32.444444, 40.563380)">
                        <g id="XMLID_3108_">
                            <g id="XMLID_34_">
                                <g id="XMLID_39_" transform="translate(0.000000, 1.352113)">
                                    <path d="M10.5308937,8.42173038 C9.73720499,12.3814889 5.8655529,40.9110664 55.2871917,51.3995976 C55.4420578,51.4382294 55.6162822,51.4575453 55.7905065,51.4768612 C57.0487934,51.5734406 62.9917794,52.4619718 56.64227,59.8985915 C49.9443119,67.7215292 26.3078759,60.4008048 23.791302,59.6088531 C23.636436,59.5702213 23.5009281,59.5122736 23.3654203,59.4350101 C20.4229647,58.0442656 -11.6343145,41.8575453 4.62662424,7.01167002 C5.32352161,5.52434608 6.54309202,4.34607646 7.91752851,3.94044266 C9.27260674,3.53480885 10.6857597,3.92112676 10.6664015,7.30140845 C10.6470432,7.66841046 10.6083267,8.03541247 10.5308937,8.42173038 L10.5308937,8.42173038 Z" id="XMLID_43_" fill="#D7E02B"></path>
                                    <path d="M5.8655529,5.19597586 L5.8655529,5.19597586 C5.36223813,5.69818913 4.9363564,6.31629779 4.60726598,6.99235412 C-11.6536728,41.8382294 20.4036065,58.0056338 23.3460621,59.4156942 C23.4815699,59.4736419 23.636436,59.5315895 23.7719438,59.5895372 C26.2885176,60.4008048 49.9249536,67.7215292 56.6229117,59.8792757 C-7.95624503,51.9790744 5.8655529,5.19597586 5.8655529,5.19597586 L5.8655529,5.19597586 Z" id="XMLID_42_" fill="#C4CC27"></path>
                                    <path d="M55.7905065,51.4575453 L55.75179,51.4575453 C56.0421639,54.084507 56.6229117,56.672837 57.610183,58.6623742 C62.3142403,52.3460765 56.9713604,51.5541247 55.7905065,51.4575453 L55.7905065,51.4575453 Z" id="XMLID_41_" fill="#3B2D13"></path>
                                    <path d="M9.75656325,6.97303823 L5.59453726,7.24346076 C4.20074251,7.34004024 3.17475471,6.10382294 3.32962079,4.51991952 L3.42641209,3.38028169 C3.56191992,1.79637827 4.80084858,0.424949698 6.19464333,0.328370221 L10.3566693,0.0579476861 C11.7504641,-0.0386317907 12.7764519,1.19758551 12.6215858,2.78148893 L12.5247945,3.92112676 C12.3892867,5.50503018 11.150358,6.87645875 9.75656325,6.97303823 L9.75656325,6.97303823 Z" id="XMLID_40_" fill="#3B2D13"></path>
                                </g>
                                <g id="XMLID_33_" transform="translate(5.033148, 4.635815)">
                                    <path d="M6.6979581,4.1722334 C7.10448157,8.18993964 11.7311058,36.6036217 62.0625829,32.2575453 C62.2368072,32.2382294 62.3916733,32.2189135 62.5658976,32.1802817 C63.8048263,31.9098592 69.7478123,31.021328 65.8374436,39.9839034 C61.7334924,49.4293763 36.9742774,49.294165 34.3221957,49.2555332 C34.1673296,49.2555332 34.0124635,49.2362173 33.8575975,49.2169014 C30.6441262,48.734004 -4.76213206,42.5915493 0.619464333,4.51991952 C0.851763458,2.89738431 1.6648104,1.42937626 2.86502254,0.618108652 C4.04587643,-0.173843058 5.49774596,-0.193158954 6.48501724,3.03259557 C6.58180854,3.41891348 6.65924158,3.78591549 6.6979581,4.1722334 L6.6979581,4.1722334 Z" id="XMLID_38_" fill="#D7E02B"></path>
                                    <path d="M1.27764519,2.45311871 L1.27764519,2.45311871 C0.94855476,3.09054326 0.716255635,3.80523139 0.600106073,4.53923541 C-4.76213206,42.5915493 30.6441262,48.7533199 33.8575975,49.2362173 C34.0124635,49.2555332 34.1673296,49.2748491 34.3221957,49.2748491 C36.9742774,49.3134809 61.7141342,49.4486922 65.8374436,40.0032193 C1.74224344,51.2064386 1.27764519,2.45311871 1.27764519,2.45311871 L1.27764519,2.45311871 Z" id="XMLID_37_" fill="#C4CC27"></path>
                                    <path d="M62.5658976,32.1802817 L62.5271811,32.1802817 C63.5918854,34.6140845 64.8695306,36.9126761 66.4181915,38.5352113 C69.0702731,31.1372233 63.7273933,31.9291751 62.5658976,32.1802817 L62.5658976,32.1802817 Z" id="XMLID_36_" fill="#3B2D13"></path>
                                </g>
                                <g id="XMLID_28_" transform="translate(3.290904, 0.000000)">
                                    <path d="M9.4855476,7.12756539 C11.3632989,10.701006 26.3078759,35.3287726 71.3739061,12.4973843 C71.5287722,12.4201207 71.66428,12.3428571 71.7997879,12.2462777 C72.8451339,11.5315895 78.0137894,8.49899396 77.7621321,18.272837 C77.4911164,28.5682093 54.4741448,37.6853119 52.0156457,38.6317907 C51.8801379,38.6897384 51.7252718,38.7283702 51.5704057,38.767002 C48.4150093,39.5203219 13.2797666,47.0342052 3.98780164,9.73521127 C3.60063644,8.15130785 3.79421904,6.47082495 4.60726598,5.29255533 C5.40095465,4.13360161 6.75603288,3.55412475 8.86608327,6.18108652 C9.09838239,6.45150905 9.31132326,6.77987928 9.4855476,7.12756539 L9.4855476,7.12756539 Z" id="XMLID_32_" fill="#D7E02B"></path>
                                    <path d="M3.8135773,7.55251509 L3.8135773,7.55251509 C3.73614426,8.26720322 3.79421904,9.00120724 3.96844338,9.73521127 C13.2604084,47.0342052 48.395651,39.5203219 51.5510475,38.767002 C51.7059136,38.7283702 51.8414214,38.6897384 51.9962875,38.6317907 C54.4547865,37.6853119 77.4717582,28.5488934 77.7427738,18.272837 C22.5330151,52.5971831 3.8135773,7.55251509 3.8135773,7.55251509 L3.8135773,7.55251509 Z" id="XMLID_31_" fill="#C4CC27"></path>
                                    <path d="M71.7997879,12.2462777 C71.7804296,12.2462777 71.7804296,12.2655936 71.7610713,12.2655936 C73.6581809,14.1199195 75.7101565,15.7810865 77.7427738,16.7082495 C77.4330416,8.82736419 72.7870591,11.5702213 71.7997879,12.2462777 L71.7997879,12.2462777 Z" id="XMLID_30_" fill="#3B2D13"></path>
                                    <path d="M7.97560329,6.49014085 L4.89763988,9.31026157 C3.87165208,10.2567404 2.30363299,9.94768612 1.41315301,8.61488934 L0.774330416,7.66841046 C-0.116149562,6.35492958 -0.0193582604,4.50060362 1.00662954,3.55412475 L4.06523469,0.734004024 C5.09122249,-0.212474849 6.65924158,0.0965794769 7.54972156,1.42937626 L8.18854415,2.37585513 C9.09838239,3.68933602 8.98223283,5.54366197 7.97560329,6.49014085 L7.97560329,6.49014085 Z" id="XMLID_29_" fill="#3B2D13"></path>
                                </g>
                                <path d="M11.0535667,7.45593561 L7.16255635,8.92394366 C5.8655529,9.40684105 4.52983294,8.53762575 4.20074251,6.99235412 L3.96844338,5.87203219 C3.63935296,4.30744467 4.43304163,2.64627767 5.73004508,2.14406439 L9.62105542,0.676056338 C10.9180589,0.193158954 12.2537788,1.06237425 12.5828693,2.60764588 L12.8151684,3.72796781 C13.1442588,5.29255533 12.3505701,6.97303823 11.0535667,7.45593561 L11.0535667,7.45593561 Z" id="XMLID_35_" fill="#3B2D13"></path>
                            </g>
                        </g>
                    </g>
                </g>
            </g>
        </g>
    </g>
</svg>