<?xml version="1.0" encoding="utf-8"?>
<!-- Generator: Adobe Illustrator 19.0.0, SVG Export Plug-In . SVG Version: 6.00 Build 0)  -->
<svg version="1.1" id="Layer_1" xmlns="http://www.w3.org/2000/svg" xmlns:xlink="http://www.w3.org/1999/xlink" x="0px" y="0px"
	 width="42px" height="48px" viewBox="0 0 42 48" style="enable-background:new 0 0 42 48;" xml:space="preserve">
<path style="fill-rule:evenodd;clip-rule:evenodd;fill:#80B34F;" d="M25,5c0-1,0-3.4,0-4s-1.8-1-4-1s-4,0.4-4,1s0,3,0,4
	s-0.1,2-1.8,3s-3.5,2-5.2,3h22c-1.7-1-3.5-2-5.2-3C25.1,7,25,6,25,5z"/>
<g>
	<defs>
		<path id="SVGID_1_" d="M21,11.5C19.3,10.5,14.7,8,9.5,8S0,12.3,0,17.5s1.5,10,2.9,15c1.4,5.4,2.1,7.7,2.8,10.5
			c0.8,2.8,3.3,4.9,6.3,4.9c1.2,0,2.3-0.3,3.3-0.9c0.8-0.5,3.3-1.9,5.8-3.3c2.5,1.4,4.9,2.8,5.8,3.3c1,0.6,2.1,0.9,3.3,0.9
			c3,0,5.6-2.1,6.3-4.9c0.8-2.8,1.4-5.1,2.8-10.5c1.4-5.1,2.9-9.8,2.9-15S37.7,8,32.5,8C27.3,8,22.7,10.5,21,11.5z"/>
	</defs>
	<use xlink:href="#SVGID_1_"  style="overflow:visible;fill-rule:evenodd;clip-rule:evenodd;fill:#C7441C;"/>
	<clipPath id="SVGID_2_">
		<use xlink:href="#SVGID_1_"  style="overflow:visible;"/>
	</clipPath>
	<path style="opacity:0.3;clip-path:url(#SVGID_2_);fill-rule:evenodd;clip-rule:evenodd;fill:#231F20;" d="M42,33.4
		C36.5,23.8,31.4,15,30.5,13.5C28.5,10,24.8,8,21,8v40h21V33.4z"/>
</g>
<g>
	<path style="fill-rule:evenodd;clip-rule:evenodd;fill:#C7441C;" d="M21,8c-6.1,0-11,4.9-11,11c0,0.8,0.1,1.6,0.3,2.4
		c1.3,6,4,18.1,5,22.4c0.6,2.5,3,4.2,5.7,4.2s5.2-1.7,5.7-4.2c1-4.3,3.7-16.4,5-22.4c0.2-0.8,0.3-1.6,0.3-2.4C32,12.9,27.1,8,21,8z"
		/>
	<path style="opacity:0.5;fill-rule:evenodd;clip-rule:evenodd;fill:#EA7A2F;" d="M21,8c-6.1,0-11,4.9-11,11c0,0.8,0.1,1.6,0.3,2.4
		c1.3,6,4,18.1,5,22.4c0.6,2.5,3,4.2,5.7,4.2s5.2-1.7,5.7-4.2c1-4.3,3.7-16.4,5-22.4c0.2-0.8,0.3-1.6,0.3-2.4C32,12.9,27.1,8,21,8z"
		/>
</g>
</svg>
