<?xml version="1.0" encoding="utf-8"?>
<!-- Generator: Adobe Illustrator 19.0.0, SVG Export Plug-In . SVG Version: 6.00 Build 0)  -->
<svg version="1.1" id="Layer_1" xmlns="http://www.w3.org/2000/svg" xmlns:xlink="http://www.w3.org/1999/xlink" x="0px" y="0px"
	 width="50px" height="50px" viewBox="0 0 50 50" style="enable-background:new 0 0 50 50;" xml:space="preserve">
<g>
	<defs>
		<polygon id="SVGID_1_" points="35.3,34 31.5,29.9 28,36 24.5,29.9 14.7,34 19,41.4 19,50 31,50 31,41.4 		"/>
	</defs>
	<use xlink:href="#SVGID_1_"  style="overflow:visible;fill:#BCD676;"/>
	<clipPath id="SVGID_2_">
		<use xlink:href="#SVGID_1_"  style="overflow:visible;"/>
	</clipPath>
	<polygon style="opacity:0.3;clip-path:url(#SVGID_2_);fill:#006838;" points="35.3,50 23.9,50 14.7,34 35.3,34 	"/>
</g>
<g>
	<defs>
		<path id="SVGID_3_" d="M46.7,21.9c0.8-1.4,1.3-3.1,1.3-4.9c0-5.5-4.5-10-10-10c-0.5,0-1,0-1.4,0.1C34.4,2.9,30.1,0,25,0
			s-9.4,2.9-11.6,7.1C13,7,12.5,7,12,7C6.5,7,2,11.5,2,17c0,1.8,0.5,3.4,1.3,4.9C1.3,23,0,25.1,0,27.5C0,31.1,2.9,34,6.5,34
			c1.2,0,35.8,0,37,0c3.6,0,6.5-2.9,6.5-6.5C50,25.1,48.7,23,46.7,21.9z"/>
	</defs>
	<use xlink:href="#SVGID_3_"  style="overflow:visible;fill:#80B34F;"/>
	<clipPath id="SVGID_4_">
		<use xlink:href="#SVGID_3_"  style="overflow:visible;"/>
	</clipPath>
	<path style="opacity:0.3;clip-path:url(#SVGID_4_);fill:#231F20;" d="M50,7c0,0-6.5,0-12,0c-4.7,0-8.6,3.2-9.7,7.6
		c-1.7-1-3.7-1.6-5.8-1.6C16.1,13,11,18.1,11,24.5c0,2.1,0.6,4.1,1.5,5.8c0.9,1.6,3.3,5.7,3.3,5.7H50V7z"/>
	<rect style="opacity:0.5;clip-path:url(#SVGID_4_);fill:#006838;" width="50" height="34"/>
</g>
</svg>
