<?xml version="1.0" encoding="utf-8"?>
<!-- Generator: Adobe Illustrator 19.0.0, SVG Export Plug-In . SVG Version: 6.00 Build 0)  -->
<svg version="1.1" id="Layer_1" xmlns="http://www.w3.org/2000/svg" xmlns:xlink="http://www.w3.org/1999/xlink" x="0px" y="0px"
	 width="44.4px" height="58.5px" viewBox="0 0 44.4 58.5" style="enable-background:new 0 0 44.4 58.5;" xml:space="preserve">
<g>
	<defs>
		<path id="SVGID_1_" d="M39.5,20.1c0,0-16.2,28.1-19.1,33.1C17.5,58.3,11.1,60,6,57.1c-5-2.9-6.8-9.4-3.9-14.4
			C5.1,37.6,21.3,9.5,21.3,9.5L39.5,20.1z"/>
	</defs>
	<use xlink:href="#SVGID_1_"  style="overflow:visible;fill-rule:evenodd;clip-rule:evenodd;fill:#BCD676;"/>
	<clipPath id="SVGID_2_">
		<use xlink:href="#SVGID_1_"  style="overflow:visible;"/>
	</clipPath>
	<g style="clip-path:url(#SVGID_2_);">
		<defs>
			<path id="SVGID_3_" d="M27.4,13.1c0,0-11.9,20.6-13.9,24c-1.9,3.4-2.9,6.6-0.6,10.5c1.4,2.3,5.4,9.4,5.4,9.4l21.3-36.8L27.4,13.1
				z"/>
		</defs>
		<use xlink:href="#SVGID_3_"  style="overflow:visible;opacity:0.15;fill-rule:evenodd;clip-rule:evenodd;fill:#006838;"/>
		<clipPath id="SVGID_4_">
			<use xlink:href="#SVGID_3_"  style="overflow:visible;opacity:0.15;"/>
		</clipPath>
		<path style="opacity:0.3;clip-path:url(#SVGID_4_);fill-rule:evenodd;clip-rule:evenodd;fill:#006838;" d="M33.5,16.6
			c0,0-11.9,20.6-13.9,24c-2,3.4-4.3,5.8-8.8,5.8c-2.7,0-10.8,0-10.8,0L21.3,9.5L33.5,16.6z"/>
		
			<rect x="19" y="7.4" style="opacity:0.15;clip-path:url(#SVGID_4_);fill-rule:evenodd;clip-rule:evenodd;fill:#006838;" width="19.7" height="20.1"/>
	</g>
</g>
<path style="fill-rule:evenodd;clip-rule:evenodd;fill:#80B34F;" d="M23.1,6.4c0.6-1.1,1.1-1.8,1.2-2c1-1.7,3.1-2.3,4.8-1.3
	c1.7,1,2.3,3.1,1.3,4.8c-0.2,0.4-7.3,12.6-7.3,12.6S16.5,9.2,16.4,8.9C15.4,7.2,16,5,17.6,4c1.7-1,3.8-0.4,4.8,1.3L23.1,6.4z"/>
<g>
	<path style="fill-rule:evenodd;clip-rule:evenodd;fill:#80B34F;" d="M40.9,7.4c-0.7,0-1.4,0-2.1,0c0.6-1.1,1.1-1.9,1.3-2.2
		c1-1.7,0.4-3.8-1.3-4.8c-1.7-1-3.8-0.4-4.8,1.3c-0.7,1.2-6.7,11.7-6.7,11.7l4.1,7l2.5-4.3l2.7-1.7c0,0,3.1,0,4.5,0
		c2,0,3.5-1.6,3.5-3.5C44.4,9,42.8,7.4,40.9,7.4z"/>
	<path style="opacity:0.5;fill-rule:evenodd;clip-rule:evenodd;fill:#006838;" d="M40.9,7.4c-0.7,0-1.4,0-2.1,0
		c0.6-1.1,1.1-1.9,1.3-2.2c1-1.7,0.4-3.8-1.3-4.8c-1.7-1-3.8-0.4-4.8,1.3c-0.7,1.2-6.7,11.7-6.7,11.7l4.1,7l2.5-4.3l2.7-1.7
		c0,0,3.1,0,4.5,0c2,0,3.5-1.6,3.5-3.5C44.4,9,42.8,7.4,40.9,7.4z"/>
</g>
<path style="fill-rule:evenodd;clip-rule:evenodd;fill:#80B34F;" d="M39.3,20.5c0.6-1.1,1.1-1.8,1.2-2c1-1.7,0.4-3.8-1.3-4.8
	c-1.7-1-3.8-0.4-4.8,1.3c-0.2,0.4-7.3,12.6-7.3,12.6s13.1,0,13.4,0c2,0,3.5-1.6,3.5-3.5c0-1.9-1.6-3.5-3.5-3.5L39.3,20.5z"/>
</svg>
