<?xml version="1.0" encoding="utf-8"?>
<!-- Generator: Adobe Illustrator 19.0.0, SVG Export Plug-In . SVG Version: 6.00 Build 0)  -->
<svg version="1.1" id="Layer_1" xmlns="http://www.w3.org/2000/svg" xmlns:xlink="http://www.w3.org/1999/xlink" x="0px" y="0px"
	 width="50.5px" height="50px" viewBox="0 0 50.5 50" enable-background="new 0 0 50.5 50" xml:space="preserve">
<g>
	<path fill="#80B34F" d="M36,30h-3c0-5-1-8.6-3.9-13.5l-4.6-8l-4.6,8C17,21.4,16,25,16,30h-3c0-5.6,1.2-9.6,4.3-15L23,5.1V0h3v5.1
		l5.7,9.9C34.8,20.4,36,24.4,36,30z"/>
</g>
<g>
	<defs>
		<path id="SVGID_1_" d="M18,28c-1.9,0-3.6,0.6-5,1.7C11.6,28.6,9.9,28,8,28c-3.7,0-8,1.8-8,8.6C0,44.6,5.3,50,13,50
			c7.7,0,13-5.4,13-13.4C26,29.8,21.7,28,18,28z"/>
	</defs>
	<use xlink:href="#SVGID_1_"  overflow="visible" fill="#C7441C"/>
	<clipPath id="SVGID_2_">
		<use xlink:href="#SVGID_1_"  overflow="visible"/>
	</clipPath>
	<rect y="28" clip-path="url(#SVGID_2_)" fill="#7D1CC7" fill-opacity="0.2" width="26" height="22"/>
	<path clip-path="url(#SVGID_2_)" fill="#231F20" fill-opacity="0.2" d="M18,50h8V28H13c0,0,0,1.6,0,8.6C13,46.2,18,50,18,50z"/>
</g>
<g>
	<defs>
		<path id="SVGID_3_" d="M41,28c-1.9,0-3.6,0.6-5,1.7c-1.4-1.1-3.1-1.7-5-1.7c-3.7,0-8,1.8-8,8.6c0,8,5.3,13.4,13,13.4
			c7.7,0,13-5.4,13-13.4C49,29.8,44.7,28,41,28z"/>
	</defs>
	<use xlink:href="#SVGID_3_"  overflow="visible" fill="#C7441C"/>
	<clipPath id="SVGID_4_">
		<use xlink:href="#SVGID_3_"  overflow="visible"/>
	</clipPath>
	<rect x="23" y="28" clip-path="url(#SVGID_4_)" fill="#7D1CC7" fill-opacity="0.2" width="26" height="22"/>
	<rect x="23" y="28" clip-path="url(#SVGID_4_)" fill="#D993AD" fill-opacity="0.2" width="13" height="22"/>
</g>
<path fill="#80B34F" d="M28,5h9.3c3.7,0,6.8,2,8.6,5.1l4.5,7.9l-9.3,0c-3.7,0-6.8-2-8.6-5.1L28,5z"/>
</svg>
