<?xml version="1.0" encoding="utf-8"?>
<!-- Generator: Adobe Illustrator 19.0.0, SVG Export Plug-In . SVG Version: 6.00 Build 0)  -->
<svg version="1.1" id="Layer_1" xmlns="http://www.w3.org/2000/svg" xmlns:xlink="http://www.w3.org/1999/xlink" x="0px" y="0px"
	 width="46.6px" height="52px" viewBox="0 0 46.6 52" style="enable-background:new 0 0 46.6 52;" xml:space="preserve">
<g>
	<defs>
		<path id="SVGID_1_" d="M1.7,39.6c-0.8-3-0.3-7.1,2.2-10.8c10.6-16.2,26-32.3,33.5-28c7.5,4.3,1.2,25.7-7.5,43
			c-2,4-5.2,6.5-8.3,7.3c-4.5,1.2-9.2,0-12.2-1.9C6.4,47.4,2.9,44.1,1.7,39.6z"/>
	</defs>
	<use xlink:href="#SVGID_1_"  style="overflow:visible;fill-rule:evenodd;clip-rule:evenodd;fill:#F7CA14;"/>
	<clipPath id="SVGID_2_">
		<use xlink:href="#SVGID_1_"  style="overflow:visible;"/>
	</clipPath>
	<path style="opacity:0.3;clip-path:url(#SVGID_2_);fill-rule:evenodd;clip-rule:evenodd;fill:#FFFFFF;" d="M5.2,46.8
		c-0.9-4.8-0.9-8.1,3.1-15C17.2,16.4,29.9,2.6,32.5,1.1c2.5-1.4,4.9-2.2,5.7-1.8L9.4,49.2L5.2,46.8z"/>
	<path style="opacity:0.15;clip-path:url(#SVGID_2_);fill-rule:evenodd;clip-rule:evenodd;fill:#73469C;" d="M38.3-0.7
		c0.8,0.5,1.3,3,1.3,5.8c0,3-5.6,21-14.5,36.3c-4,7-6.8,8.6-11.5,10.2l9.8,5.7L52.3,7.4L38.3-0.7z"/>
	<path style="opacity:0.15;clip-path:url(#SVGID_2_);fill-rule:evenodd;clip-rule:evenodd;fill:#FFFFFF;" d="M47.3,15.7l-27.7-16
		l4-7l27.7,16L47.3,15.7z M46.8,24.6l-34.5-20l-4,7l34.6,20L46.8,24.6z M40.7,39.6L2.8,17.7l-4,6.9l37.8,22L40.7,39.6z M32.7,53.5
		L-5.1,31.5l-4,6.9l37.8,21.9L32.7,53.5z"/>
</g>
<g>
	<defs>
		<path id="SVGID_3_" d="M13.5,42.1c0-6.4,0-38.1,0-38.1S7.3,14.7,4.1,20.3c-5.9,10.2-4,16.1-3.1,19.1c1.4,4.6,5.5,8,8.5,9.8
			c3,1.8,8,3.6,12.7,2.5c3-0.7,9.1-2.1,14.9-12.3c5.9-10.2,9.4-16.3,9.4-16.3S19.1,38.9,13.5,42.1z"/>
	</defs>
	<use xlink:href="#SVGID_3_"  style="overflow:visible;fill-rule:evenodd;clip-rule:evenodd;fill:#81B44F;"/>
	<clipPath id="SVGID_4_">
		<use xlink:href="#SVGID_3_"  style="overflow:visible;"/>
	</clipPath>
	
		<rect x="-4.5" y="-1.7" style="opacity:0.3;clip-path:url(#SVGID_4_);fill-rule:evenodd;clip-rule:evenodd;fill:#A3CE4F;" width="18" height="54"/>
</g>
</svg>
