<?xml version="1.0" encoding="utf-8"?>
<!-- Generator: Adobe Illustrator 19.0.0, SVG Export Plug-In . SVG Version: 6.00 Build 0)  -->
<svg version="1.1" id="Layer_1" xmlns="http://www.w3.org/2000/svg" xmlns:xlink="http://www.w3.org/1999/xlink" x="0px" y="0px"
	 width="45.2px" height="57.3px" viewBox="0 0 45.2 57.3" enable-background="new 0 0 45.2 57.3" xml:space="preserve">
<g>
	<path fill="#80B34F" d="M12.6,52.9c-2.2,3.7-6,5.6-9.6,3.5c-3.6-2.1-3.9-6.3-1.7-10c2.2-3.7,6-5.6,9.6-3.5
		C14.5,44.9,14.8,49.2,12.6,52.9z"/>
	<g>
		<path fill="#80B34F" d="M23,46.9c-2.2,3.7-6,5.6-9.6,3.5c-3.6-2.1-3.9-6.3-1.7-10c2.2-3.7,6-5.6,9.6-3.5
			C24.9,38.9,25.2,43.2,23,46.9z"/>
		<path opacity="0.5" fill="#BCD676" d="M23,46.9c-2.2,3.7-6,5.6-9.6,3.5c-3.6-2.1-3.9-6.3-1.7-10c2.2-3.7,6-5.6,9.6-3.5
			C24.9,38.9,25.2,43.2,23,46.9z"/>
	</g>
	<path fill="#80B34F" d="M33.4,40.9c-2.2,3.7-6,5.6-9.6,3.5c-3.6-2.1-3.9-6.3-1.7-10c2.2-3.7,6-5.6,9.6-3.5
		C35.3,32.9,35.6,37.2,33.4,40.9z"/>
	<g>
		<path fill="#80B34F" d="M43.8,34.9c-2.2,3.7-6,5.6-9.6,3.5c-3.6-2.1-3.9-6.3-1.7-10c2.2-3.7,6-5.6,9.6-3.5
			C45.7,26.9,46,31.2,43.8,34.9z"/>
		<path opacity="0.5" fill="#BCD676" d="M43.8,34.9c-2.2,3.7-6,5.6-9.6,3.5c-3.6-2.1-3.9-6.3-1.7-10c2.2-3.7,6-5.6,9.6-3.5
			C45.7,26.9,46,31.2,43.8,34.9z"/>
	</g>
	<path fill="#80B34F" d="M43.8,22.9c-2.2,3.7-6,5.6-9.6,3.5c-3.6-2.1-3.9-6.3-1.7-10c2.2-3.7,6-5.6,9.6-3.5
		C45.7,14.9,46,19.2,43.8,22.9z"/>
	<path fill="#BCD676" d="M12.6,40.9c-2.2,3.7-6,5.6-9.6,3.5c-3.6-2.1-3.9-6.3-1.7-10c2.2-3.7,6-5.6,9.6-3.5
		C14.5,32.9,14.8,37.2,12.6,40.9z"/>
	<g>
		<path fill="#80B34F" d="M23,34.9c-2.2,3.7-6,5.6-9.6,3.5c-3.6-2.1-3.9-6.3-1.7-10c2.2-3.7,6-5.6,9.6-3.5
			C24.9,26.9,25.2,31.2,23,34.9z"/>
		<path opacity="0.5" fill="#BCD676" d="M23,34.9c-2.2,3.7-6,5.6-9.6,3.5c-3.6-2.1-3.9-6.3-1.7-10c2.2-3.7,6-5.6,9.6-3.5
			C24.9,26.9,25.2,31.2,23,34.9z"/>
	</g>
	<path fill="#BCD676" d="M12.6,28.9c-2.2,3.7-6,5.6-9.6,3.5c-3.6-2.1-3.9-6.3-1.7-10c2.2-3.7,6-5.6,9.6-3.5
		C14.5,20.9,14.8,25.2,12.6,28.9z"/>
	<path fill="#BCD676" d="M33.4,28.9c-2.2,3.7-6,5.6-9.6,3.5c-3.6-2.1-3.9-6.3-1.7-10c2.2-3.7,6-5.6,9.6-3.5
		C35.3,20.9,35.6,25.2,33.4,28.9z"/>
	<path fill="#BCD676" d="M12.6,16.9c-2.2,3.7-6,5.6-9.6,3.5c-3.6-2.1-3.9-6.3-1.7-10c2.2-3.7,6-5.6,9.6-3.5
		C14.5,8.9,14.8,13.2,12.6,16.9z"/>
	<path fill="#BCD676" d="M33.4,16.9c-2.2,3.7-6,5.6-9.6,3.5c-3.6-2.1-3.9-6.3-1.7-10c2.2-3.7,6-5.6,9.6-3.5
		C35.3,8.9,35.6,13.2,33.4,16.9z"/>
	<path fill="#BCD676" d="M23,10.9c-2.2,3.7-6,5.6-9.6,3.5c-3.6-2.1-3.9-6.3-1.7-10c2.2-3.7,6-5.6,9.6-3.5C24.9,2.9,25.2,7.2,23,10.9
		z"/>
	<g>
		<path fill="#BCD676" d="M23,22.9c-2.2,3.7-6,5.6-9.6,3.5c-3.6-2.1-3.9-6.3-1.7-10c2.2-3.7,6-5.6,9.6-3.5
			C24.9,14.9,25.2,19.2,23,22.9z"/>
		<path opacity="0.3" fill="#FFFFFF" d="M23,22.9c-2.2,3.7-6,5.6-9.6,3.5c-3.6-2.1-3.9-6.3-1.7-10c2.2-3.7,6-5.6,9.6-3.5
			C24.9,14.9,25.2,19.2,23,22.9z"/>
	</g>
</g>
</svg>
