<svg viewBox="0 0 200 200" xmlns="http://www.w3.org/2000/svg"><title>Instagram</title><path d="M100 0C44.77 0 0 44.77 0 100s44.77 100 100 100 100-44.77 100-100S155.23 0 100 0zm50.003 165H49.997C41.715 165 35 158.282 35 149.995V49.997C35 41.714 41.715 35 49.997 35h100.006C158.286 35 165 41.714 165 49.997v99.998c0 8.287-6.714 15.005-14.997 15.005zM155 88h-12.56c.914 3.574 1.455 7.31 1.455 11.17 0 24.672-19.876 44.667-44.396 44.667S55.103 123.842 55.103 99.17c0-3.86.543-7.596 1.46-11.17H44v61.42c0 3.08 2.486 5.58 5.555 5.58h99.89c3.07 0 5.555-2.5 5.555-5.58V88zm1-39c0-2.76-2.24-5-5.005-5H136a5 5 0 0 0-5 5v15a5 5 0 0 0 5 5h14.995A5.002 5.002 0 0 0 156 64V49zm-55.502 16C80.892 65 65 80.89 65 100.498 65 120.1 80.892 136 100.498 136 120.105 136 136 120.1 136 100.498 136 80.89 120.105 65 100.498 65z"/></svg>