<?xml version="1.0" encoding="iso-8859-1"?>
<!-- Generator: Adobe Illustrator 19.0.0, SVG Export Plug-In . SVG Version: 6.00 Build 0)  -->
<svg version="1.1" id="Layer_1" xmlns="http://www.w3.org/2000/svg" xmlns:xlink="http://www.w3.org/1999/xlink" x="0px" y="0px"
	 width="44px" height="41.016px" viewBox="0 0 44 41.016" style="enable-background:new 0 0 44 41.016;" xml:space="preserve">
<g>
	<defs>
		<path id="SVGID_1_" d="M44,20.508c0.001,10.23-8.534,18.001-22,18c-13.466,0-22-7.772-22-18c0-10.23,8.535-18,22-18
			C35.466,2.508,44.001,10.278,44,20.508z"/>
	</defs>
	<use xlink:href="#SVGID_1_"  style="overflow:visible;fill:#93684E;"/>
	<clipPath id="SVGID_2_">
		<use xlink:href="#SVGID_1_"  style="overflow:visible;"/>
	</clipPath>
	<g style="clip-path:url(#SVGID_2_);">
		<defs>
			<path id="SVGID_3_" d="M22,5.508c11.365,0,19,6.028,19,15s-7.636,15-19,15c-11.365,0-19-6.028-19-15S10.636,5.508,22,5.508z"/>
		</defs>
		<use xlink:href="#SVGID_3_"  style="overflow:visible;fill:#80B34F;"/>
		<clipPath id="SVGID_4_">
			<use xlink:href="#SVGID_3_"  style="overflow:visible;"/>
		</clipPath>
		<path style="display:none;opacity:0.5;clip-path:url(#SVGID_4_);fill:#9CE84D;" d="M11.746,2.748L22,0v41.016l10.254-2.745
			L11.746,2.748z M42.508,20.508l-2.746,10.254L4.24,10.253L1.492,20.508H42.508z M32.255,2.747l7.507,7.506L4.24,30.762
			l7.507,7.509L32.255,2.747z"/>
		<path style="opacity:0.3;clip-path:url(#SVGID_4_);fill:#006838;" d="M22,11.512c6.592,0,11.001,3.618,11.001,8.992
			c0,5.389-4.409,9.008-11.001,9.008c-6.583,0-11-3.619-11-9.008C11,15.13,15.417,11.512,22,11.512z"/>
		<path style="clip-path:url(#SVGID_4_);fill:#BCD676;" d="M22,16.514c2.994,0,5.001,1.606,5.001,3.996
			c0,2.396-2.007,4.004-5.001,4.004c-2.99,0-5-1.608-5-4.004C17,18.12,19.01,16.514,22,16.514z"/>
		<polygon style="opacity:0.3;clip-path:url(#SVGID_4_);fill:#9CE84D;" points="3,35.508 13.34,35.508 30.661,5.508 3,5.508 		"/>
	</g>
	<path style="clip-path:url(#SVGID_2_);fill:#47475E;" d="M11,17.008c0-0.829,0.672-1.5,1.5-1.5c0.555,0,1.039,0.301,1.299,0.749
		c0.128,0.221,1.306,2.25,1.306,2.25s-2.299,0-2.604,0C11.672,18.508,11,17.836,11,17.008z M33,17.008c0-0.829-0.672-1.5-1.5-1.5
		c-0.555,0-1.039,0.301-1.299,0.749c-0.128,0.221-1.306,2.25-1.306,2.25s2.299,0,2.604,0C32.328,18.508,33,17.836,33,17.008z
		 M11,24.008c0,0.829,0.672,1.5,1.5,1.5c0.555,0,1.039-0.301,1.299-0.749c0.128-0.221,1.306-2.251,1.306-2.251s-2.299,0-2.604,0
		C11.672,22.508,11,23.18,11,24.008z M31.5,22.508c-0.306,0-2.604,0-2.604,0s1.178,2.03,1.306,2.251
		c0.26,0.448,0.744,0.749,1.299,0.749c0.828,0,1.5-0.671,1.5-1.5C33,23.18,32.328,22.508,31.5,22.508z M20,28.008
		c0-0.306,0-2.604,0-2.604s-2.03,1.178-2.25,1.306c-0.448,0.26-0.75,0.744-0.75,1.299c0,0.828,0.671,1.5,1.5,1.5
		S20,28.836,20,28.008z M18.5,11.508c-0.829,0-1.5,0.672-1.5,1.5c0,0.555,0.301,1.039,0.75,1.299C17.97,14.435,20,15.612,20,15.612
		s0-2.299,0-2.604C20,12.18,19.329,11.508,18.5,11.508z M25.5,29.508c0.829,0,1.5-0.672,1.5-1.5c0-0.555-0.301-1.039-0.749-1.299
		C26.03,26.581,24,25.403,24,25.403s0,2.299,0,2.604C24,28.836,24.672,29.508,25.5,29.508z M24,13.008c0,0.306,0,2.604,0,2.604
		s2.03-1.178,2.251-1.306C26.699,14.047,27,13.562,27,13.008c0-0.828-0.671-1.5-1.5-1.5C24.672,11.508,24,12.18,24,13.008z"/>
</g>
</svg>
