<?xml version="1.0" encoding="utf-8"?>
<!-- Generator: Adobe Illustrator 19.0.0, SVG Export Plug-In . SVG Version: 6.00 Build 0)  -->
<svg version="1.1" id="Layer_1" xmlns="http://www.w3.org/2000/svg" xmlns:xlink="http://www.w3.org/1999/xlink" x="0px" y="0px"
	 width="60px" height="43px" viewBox="0 0 60 43" style="enable-background:new 0 0 60 43;" xml:space="preserve">
<g>
	<path style="fill-rule:evenodd;clip-rule:evenodd;fill:#80B34F;" d="M34.7,0C32.7,0,31,1,30,2.4C29,1,27.3,0,25.3,0
		c-3.2,0-5.7,2.6-5.7,5.7c0,5.7,10.4,13.7,10.4,13.7s10.4-8,10.4-13.7C40.4,2.6,37.8,0,34.7,0z"/>
	<g>
		<path style="fill-rule:evenodd;clip-rule:evenodd;fill:#BCD676;" d="M21.6,32L51,18.1c0,0,0-4,0-8.1c0-3.2-2.2-6-6-6
			c-4.5,0-10.4,4.4-15,12.3C27.2,21.3,21.6,32,21.6,32z"/>
		<path style="opacity:0.3;fill-rule:evenodd;clip-rule:evenodd;fill:#80B34F;" d="M21.6,32L51,18.1c0,0,0-4,0-8.1c0-3.2-2.2-6-6-6
			c-4.5,0-10.4,4.4-15,12.3C27.2,21.3,21.6,32,21.6,32z"/>
	</g>
	<g>
		<path style="fill-rule:evenodd;clip-rule:evenodd;fill:#BCD676;" d="M38.4,32L9,18.1c0,0,0-4,0-8.1c0-3.2,2.2-6,6-6
			c4.5,0,10.4,4.4,15,12.3C32.8,21.3,38.4,32,38.4,32z"/>
		<path style="opacity:0.3;fill-rule:evenodd;clip-rule:evenodd;fill:#80B34F;" d="M38.4,32L9,18.1c0,0,0-4,0-8.1c0-3.2,2.2-6,6-6
			c4.5,0,10.4,4.4,15,12.3C32.8,21.3,38.4,32,38.4,32z"/>
	</g>
	<path style="fill-rule:evenodd;clip-rule:evenodd;fill:#BCD676;" d="M20,19c0,0,2-15,10-15s10,15,10,15L30,30L20,19z"/>
	<g>
		<defs>
			<path id="SVGID_1_" d="M30,27.1C35.5,17.7,38.2,14,43,14c1.7,0,3.3,0.6,4.3,1.3c1.8-1,5.1-3.3,7.7-3.3c2.8,0,5,2.2,5,5
				c0,4-3.8,11.8-5,13.8C49.7,39.9,41.2,43,30,43c-11.2,0-19.7-3.1-25-12.2C3.8,28.8,0,21,0,17c0-2.8,2.2-5,5-5
				c2.6,0,5.9,2.2,7.7,3.3c1.1-0.6,2.6-1.3,4.3-1.3C21.8,14,24.6,17.7,30,27.1z"/>
		</defs>
		<use xlink:href="#SVGID_1_"  style="overflow:visible;fill-rule:evenodd;clip-rule:evenodd;fill:#80B34F;"/>
		<clipPath id="SVGID_2_">
			<use xlink:href="#SVGID_1_"  style="overflow:visible;"/>
		</clipPath>
		<path style="opacity:0.3;clip-path:url(#SVGID_2_);fill-rule:evenodd;clip-rule:evenodd;fill:#9CE84D;" d="M30,43
			c1.3-2.4,2.2-5,2.2-7.9c0-2.9-0.8-5.6-2.2-7.9L30,12H0v31L30,43z"/>
	</g>
</g>
</svg>
