<?xml version="1.0" encoding="UTF-8" standalone="no"?>
<svg width="113px" height="73px" viewBox="0 0 113 73" version="1.1" xmlns="http://www.w3.org/2000/svg" xmlns:xlink="http://www.w3.org/1999/xlink" xmlns:sketch="http://www.bohemiancoding.com/sketch/ns">
    <!-- Generator: Sketch 3.3.1 (12005) - http://www.bohemiancoding.com/sketch -->
    <title>papaya</title>
    <desc>Created with Sketch.</desc>
    <defs></defs>
    <g id="Website" stroke="none" stroke-width="1" fill="none" fill-rule="evenodd" sketch:type="MSPage">
        <g id="Desktop" sketch:type="MSArtboardGroup" transform="translate(-257.000000, -385.000000)">
            <g id="Fruits" sketch:type="MSLayerGroup" transform="translate(45.000000, 348.000000)">
                <g id="Papaya" transform="translate(196.000000, 0.000000)" sketch:type="MSShapeGroup">
                    <g id="papaya" transform="translate(18.000000, 37.000000)">
                        <g id="XMLID_44_">
                            <path d="M52.0203762,51.83 L43.7736677,53.4638095 C42.6949843,53.672381 41.5815047,53.9504762 40.5376176,54.3328571 C34.5178683,56.5228571 27.9065831,54.0895238 25.3316614,48.562381 C22.7567398,43.0352381 25.1924765,36.3957143 30.7250784,33.232381 C31.699373,32.6761905 32.6040752,32.0157143 33.4739812,31.3204762 L40.0504702,26.1061905 C40.4332288,25.7933333 40.7811912,25.4109524 41.0595611,24.9938095 C46.1398119,17.6242857 55.1520376,10.2895238 66.4956113,5.04047619 C78.6742947,-0.590952381 86.5730408,-0.625714286 95.7244514,0.764761905 C102.474922,1.80761905 107.589969,4.69285714 109.782132,9.42047619 C111.974295,14.1480952 110.895611,19.9185714 107.311599,25.7238095 C102.440125,33.6147619 97.3250784,39.6285714 85.146395,45.26 C73.7680251,50.5090476 62.3548589,52.6642857 53.4470219,51.7604762 C52.9946708,51.7257143 52.5075235,51.7257143 52.0203762,51.83 L52.0203762,51.83 L52.0203762,51.83 Z" id="XMLID_93_" fill="#71AD49"></path>
                            <path d="M41.0943574,24.9938095 C40.8159875,25.4109524 40.4680251,25.7933333 40.0852665,26.1061905 L40.0852665,26.1061905 L33.5087774,31.3204762 C32.6388715,32.0157143 31.7341693,32.6761905 30.7598746,33.232381 C26.8626959,35.4571429 24.531348,39.3504762 24.3225705,43.417619 C26.9670846,44.6690476 31.0730408,44.53 35.2137931,42.8961905 C36.2576803,42.4790476 37.3015674,42.1314286 38.3454545,41.8533333 L46.2789969,39.5590476 C46.7661442,39.42 47.2184953,39.3504762 47.6708464,39.3157143 C55.8827586,38.6552381 66.8435737,35.5614286 78.2219436,30.277619 C90.400627,24.6461905 96.0376176,19.7447619 101.709404,13.5919048 C104.493103,10.567619 106.198119,7.75190476 106.65047,5.31857143 C104.005956,3.02428571 100.247962,1.4947619 95.7592476,0.834285714 C86.5730408,-0.556190476 78.6742947,-0.521428571 66.5304075,5.11 C55.1868339,10.2895238 46.1746082,17.6242857 41.0943574,24.9938095 L41.0943574,24.9938095 Z" id="XMLID_94_" fill="#91B93E"></path>
                            <g id="XMLID_45_" transform="translate(0.000000, 15.295238)">
                                <g id="XMLID_84_">
                                    <path d="M84.7288401,42.8614286 C84.7288401,42.8614286 67.7134796,66.3952381 42.6949843,53.9852381 C17.676489,41.5752381 11.5523511,24.82 11.5523511,24.82 L9.22100313,19.9185714 C9.22100313,19.9185714 0.835109718,18.0414286 0.278369906,8.20380952 C-0.278369906,-1.59904762 84.7288401,42.8614286 84.7288401,42.8614286 L84.7288401,42.8614286 Z" id="XMLID_90_" fill="#91B93E"></path>
                                    <g id="XMLID_85_" stroke="#91B93E" stroke-width="3.4199" fill="#F79034">
                                        <path d="M14.6492163,22.4909524 L8.49028213,17.7285714 C7.68996865,17.1028571 6.8200627,16.4771429 5.88056426,15.9557143 C0.556739812,12.8619048 -1.28746082,7.61285714 1.73981191,3.78904762 C4.80188088,-0.0347619048 11.6915361,-1.00809524 17.5373041,1.4252381 C18.546395,1.84238095 19.6250784,2.19 20.7037618,2.46809524 L28.8460815,4.76238095 C29.3332288,4.90142857 29.8551724,4.97095238 30.3423197,5.00571429 C39.3893417,5.49238095 50.6981191,8.55142857 61.6589342,13.9395238 C73.4200627,19.71 78.0827586,24.8547619 82.2931034,31.39 C85.3899687,36.2219048 85.9815047,40.6714286 83.3717868,43.9042857 C80.762069,47.1371429 75.368652,48.6666667 68.4789969,48.562381 C59.1188088,48.4233333 51.1852665,47.3804762 39.4241379,41.61 C28.4285266,36.2219048 20.007837,29.582381 15.5191223,23.3947619 C15.3103448,23.0819048 14.9971787,22.7690476 14.6492163,22.4909524 L14.6492163,22.4909524 L14.6492163,22.4909524 Z" id="XMLID_86_"></path>
                                    </g>
                                </g>
                                <path d="M51.0808777,21.6219048 C63.9902821,27.9485714 72.8285266,35.1790476 70.7755486,37.6819048 C68.7573668,40.2195238 56.6134796,37.1257143 43.7040752,30.7990476 C35.2833856,26.662381 28.6025078,22.1780952 25.5404389,18.8409524 L25.5056426,18.8061905 L13.9532915,10.0461905 C13.7097179,9.87238095 13.9184953,9.59428571 14.2316614,9.69857143 L29.3680251,14.0438095 C34.5526646,14.7390476 42.6253918,17.4852381 51.0808777,21.6219048 L51.0808777,21.6219048 Z" id="XMLID_83_" fill="#EBA738"></path>
                                <path d="M11.4479624,4.17142857 C13.8141066,5.35333333 10.3344828,5.56190476 8.94263323,7.3 C7.5507837,9.03809524 8.80344828,11.6104762 6.43730408,10.4285714 C4.07115987,9.24666667 3.27084639,6.91761905 4.66269592,5.17952381 C6.05454545,3.44142857 9.08181818,3.02428571 11.4479624,4.17142857 L11.4479624,4.17142857 Z" id="XMLID_82_" fill="#EBA738"></path>
                                <ellipse id="XMLID_81_" fill="#000000" cx="48.6451411" cy="21.4480952" rx="1.28746082" ry="1.28619048"></ellipse>
                                <ellipse id="XMLID_80_" fill="#000000" cx="42.4166144" cy="24.1942857" rx="1.28746082" ry="1.28619048"></ellipse>
                                <ellipse id="XMLID_79_" fill="#000000" cx="44.3652038" cy="28.3309524" rx="1.28746082" ry="1.28619048"></ellipse>
                                <ellipse id="XMLID_78_" fill="#000000" cx="32.8128527" cy="23.1861905" rx="1.28746082" ry="1.28619048"></ellipse>
                                <ellipse id="XMLID_77_" fill="#000000" cx="46.731348" cy="24.8547619" rx="1.28746082" ry="1.28619048"></ellipse>
                                <ellipse id="XMLID_76_" fill="#000000" cx="51.5332288" cy="32.12" rx="1.28746082" ry="1.28619048"></ellipse>
                                <ellipse id="XMLID_75_" fill="#000000" cx="61.6937304" cy="31.4247619" rx="1.28746082" ry="1.28619048"></ellipse>
                                <ellipse id="XMLID_74_" fill="#000000" cx="63.3639498" cy="36.5347619" rx="1.28746082" ry="1.28619048"></ellipse>
                                <ellipse id="XMLID_73_" fill="#000000" cx="54.2821317" cy="33.962381" rx="1.28746082" ry="1.28619048"></ellipse>
                                <ellipse id="XMLID_72_" fill="#000000" cx="56.230721" cy="31.0771429" rx="1.28746082" ry="1.28619048"></ellipse>
                                <ellipse id="XMLID_71_" fill="#000000" cx="54.6648903" cy="27.6357143" rx="1.28746082" ry="1.28619048"></ellipse>
                                <ellipse id="XMLID_70_" fill="#000000" cx="60.1974922" cy="34.1361905" rx="1.28746082" ry="1.28619048"></ellipse>
                                <ellipse id="XMLID_69_" fill="#000000" cx="54.4561129" cy="24.3333333" rx="1.28746082" ry="1.28619048"></ellipse>
                                <ellipse id="XMLID_68_" fill="#000000" cx="49.3062696" cy="29.3042857" rx="1.28746082" ry="1.28619048"></ellipse>
                                <ellipse id="XMLID_67_" fill="#000000" cx="31.5601881" cy="20.6138095" rx="1.28746082" ry="1.28619048"></ellipse>
                                <ellipse id="XMLID_66_" fill="#000000" cx="40.9551724" cy="19.9880952" rx="1.28746082" ry="1.28619048"></ellipse>
                                <ellipse id="XMLID_65_" fill="#000000" cx="45.2351097" cy="21.6914286" rx="1.28746082" ry="1.28619048"></ellipse>
                                <ellipse id="XMLID_64_" fill="#000000" cx="39.6677116" cy="17.4157143" rx="1.28746082" ry="1.28619048"></ellipse>
                                <ellipse id="XMLID_62_" fill="#000000" cx="28.4285266" cy="19.5361905" rx="1.28746082" ry="1.28619048"></ellipse>
                                <ellipse id="XMLID_61_" fill="#000000" cx="26.8974922" cy="16.1642857" rx="1.28746082" ry="1.28619048"></ellipse>
                                <ellipse id="XMLID_60_" fill="#000000" cx="25.6100313" cy="13.5919048" rx="1.28746082" ry="1.28619048"></ellipse>
                                <ellipse id="XMLID_59_" fill="#000000" cx="29.9247649" cy="15.9557143" rx="1.28746082" ry="1.28619048"></ellipse>
                                <ellipse id="XMLID_58_" fill="#000000" cx="33.6131661" cy="15.712381" rx="1.28746082" ry="1.28619048"></ellipse>
                                <ellipse id="XMLID_57_" fill="#000000" cx="36.222884" cy="17.6590476" rx="1.28746082" ry="1.28619048"></ellipse>
                                <ellipse id="XMLID_54_" fill="#000000" cx="38.9717868" cy="26.1061905" rx="1.28746082" ry="1.28619048"></ellipse>
                                <ellipse id="XMLID_48_" fill="#000000" cx="35.1789969" cy="21.0657143" rx="1.28746082" ry="1.28619048"></ellipse>
                                <ellipse id="XMLID_47_" fill="#000000" cx="36.222884" cy="24.472381" rx="1.28746082" ry="1.28619048"></ellipse>
                                <ellipse id="XMLID_46_" fill="#000000" cx="60.1974922" cy="28.5742857" rx="1.28746082" ry="1.28619048"></ellipse>
                            </g>
                            <ellipse id="XMLID_43_" fill="#000000" cx="50.2109718" cy="40.9147619" rx="1.53103448" ry="1.52952381"></ellipse>
                            <ellipse id="XMLID_42_" fill="#000000" cx="39.6329154" cy="37.6819048" rx="1.53103448" ry="1.52952381"></ellipse>
                        </g>
                    </g>
                </g>
            </g>
        </g>
    </g>
</svg>