<?xml version="1.0" encoding="utf-8"?>
<!-- Generator: Adobe Illustrator 19.0.0, SVG Export Plug-In . SVG Version: 6.00 Build 0)  -->
<svg version="1.1" id="Layer_1" xmlns="http://www.w3.org/2000/svg" xmlns:xlink="http://www.w3.org/1999/xlink" x="0px" y="0px"
	 width="43.1px" height="55px" viewBox="0 0 43.1 55" enable-background="new 0 0 43.1 55" xml:space="preserve">
<g>
	<defs>
		<path id="SVGID_1_" d="M15,53c2.5,0,4.2-0.8,6-1.6c1.8,0.8,3.5,1.6,6,1.6c8,0,13-5.5,13-12.9c0-5.7-1.9-9-7.8-19.3
			c-2-3.4-4.4-9.8-11.2-9.8s-9.2,6.3-11.2,9.8C3.9,31.1,2,34.3,2,40.1C2,47.5,7.8,53,15,53z"/>
	</defs>
	<use xlink:href="#SVGID_1_"  overflow="visible" fill="#BCD676"/>
	<clipPath id="SVGID_2_">
		<use xlink:href="#SVGID_1_"  overflow="visible"/>
	</clipPath>
	<rect y="11" opacity="0.15" clip-path="url(#SVGID_2_)" fill="#DEDCD9" width="42" height="42"/>
	<g clip-path="url(#SVGID_2_)">
		<path fill="#FFFFFF" d="M27,50c-1.8,0-3-0.5-4.6-1.2L21,48.2l-1.4,0.6C18,49.5,16.8,50,15,50c-5.7,0-10-4.3-10-9.9
			c0-4.9,1.6-7.7,7.4-17.8c0.3-0.5,0.5-1,0.8-1.5c2.1-4,3.9-6.8,7.7-6.8c3.8,0,5.6,2.8,7.7,6.8c0.3,0.5,0.6,1.1,0.8,1.5
			C35.4,32.4,37,35.1,37,40.1C37,46.1,33.1,50,27,50z"/>
		<path opacity="0.15" fill="#F7D11A" d="M27,50c-1.8,0-3-0.5-4.6-1.2L21,48.2l-1.4,0.6C18,49.5,16.8,50,15,50c-5.7,0-10-4.3-10-9.9
			c0-4.9,1.6-7.7,7.4-17.8c0.3-0.5,0.5-1,0.8-1.5c2.1-4,3.9-6.8,7.7-6.8c3.8,0,5.6,2.8,7.7,6.8c0.3,0.5,0.6,1.1,0.8,1.5
			C35.4,32.4,37,35.1,37,40.1C37,46.1,33.1,50,27,50z"/>
	</g>
	<polygon clip-path="url(#SVGID_2_)" fill="#231F20" fill-opacity="0.2" points="43.1,55 21,54.3 21,9.8 43.1,9.5 	"/>
</g>
<path fill="#80B34F" d="M40,0h-7.9c-3.1,0-5.8,1.7-7.3,4.3L21,11l7.9,0c3.1,0,5.8-1.7,7.3-4.3L40,0z"/>
<path fill="#93684E" d="M15,35c0-2,2.1-3.9,4-5c0,0,0,3.9,0,5s-0.9,2-2,2S15,36.1,15,35z M27,35c0-2-2.1-3.9-4-5c0,0,0,3.9,0,5
	s0.9,2,2,2S27,36.1,27,35z"/>
</svg>
