<?xml version="1.0" encoding="utf-8"?>
<!-- Generator: Adobe Illustrator 19.0.0, SVG Export Plug-In . SVG Version: 6.00 Build 0)  -->
<svg version="1.1" id="Layer_1" xmlns="http://www.w3.org/2000/svg" xmlns:xlink="http://www.w3.org/1999/xlink" x="0px" y="0px"
	 width="51px" height="37px" viewBox="0 0 51 37" style="enable-background:new 0 0 51 37;" xml:space="preserve">
<g>
	<defs>
		<path id="SVGID_1_" d="M51,21.4C51,30.5,40.4,37,26,37S0,29.6,0,18C0,7.6,8.8,0,21,0c7,0,14.9,4.8,18,10.2
			C45.8,11,51,15.5,51,21.4z"/>
	</defs>
	<use xlink:href="#SVGID_1_"  style="overflow:visible;fill:#93684E;"/>
	<clipPath id="SVGID_2_">
		<use xlink:href="#SVGID_1_"  style="overflow:visible;"/>
	</clipPath>
	<path style="opacity:0.3;clip-path:url(#SVGID_2_);fill:#FFFFFF;" d="M0,22.5C0,15.2,6.1,10,14.6,10c4.9,0,10.4,3.3,12.5,7
		c2.2,3.7,11.5,20,11.5,20H51V0H0V22.5z"/>
	<rect style="opacity:0.5;clip-path:url(#SVGID_2_);fill:#D99A57;" width="51" height="37"/>
	<path style="opacity:0.5;clip-path:url(#SVGID_2_);fill:#47475E;" d="M18,29c0,1.1-0.9,2-2,2s-2-0.9-2-2s0.9-2,2-2S18,27.9,18,29z
		 M26,27c-1.1,0-2,0.9-2,2s0.9,2,2,2s2-0.9,2-2S27.1,27,26,27z M20.9,18.5c-1.1,0-2,0.9-2,2s0.9,2,2,2c1.1,0,2-0.9,2-2
		S22,18.5,20.9,18.5z M40.9,18.5c-1.1,0-2,0.9-2,2s0.9,2,2,2c1.1,0,2-0.9,2-2S42,18.5,40.9,18.5z"/>
</g>
</svg>
