<?xml version="1.0" encoding="utf-8"?>
<!-- Generator: Adobe Illustrator 19.0.0, SVG Export Plug-In . SVG Version: 6.00 Build 0)  -->
<svg version="1.1" id="Layer_1" xmlns="http://www.w3.org/2000/svg" xmlns:xlink="http://www.w3.org/1999/xlink" x="0px" y="0px"
	 width="39px" height="40px" viewBox="0 0 39 40" style="enable-background:new 0 0 39 40;" xml:space="preserve">
<g>
	<defs>
		<path id="SVGID_1_" d="M39,17.5c0-2.1-1.2-4-3-4.9c0.6-0.9,1-2,1-3.1c0-3-2.5-5.5-5.5-5.5c-0.9,0-1.8,0.2-2.6,0.6
			C28.5,2,26.2,0,23.5,0c-1.6,0-3,0.7-4,1.7c-1-1.1-2.4-1.7-4-1.7c-2.7,0-5,2-5.4,4.6C9.3,4.2,8.4,4,7.5,4C4.5,4,2,6.5,2,9.5
			c0,1.2,0.4,2.2,1,3.1c-1.8,0.9-3,2.8-3,4.9s1.2,4,3,4.9c-0.6,0.9-1,2-1,3.1c0,2.6,1.8,4.8,4.3,5.4C6.1,31.4,6,31.9,6,32.5
			c0,3,2.5,5.5,5.5,5.5c1.2,0,2.2-0.4,3.1-1c0.9,1.8,2.8,3,4.9,3c2.1,0,4-1.2,4.9-3c0.9,0.6,2,1,3.1,1c3,0,5.5-2.5,5.5-5.5
			c0-0.6-0.1-1.1-0.3-1.6c2.4-0.6,4.3-2.7,4.3-5.4c0-1.2-0.4-2.2-1-3.1C37.8,21.5,39,19.6,39,17.5z"/>
	</defs>
	<use xlink:href="#SVGID_1_"  style="overflow:visible;fill-rule:evenodd;clip-rule:evenodd;fill:#DE7047;"/>
	<clipPath id="SVGID_2_">
		<use xlink:href="#SVGID_1_"  style="overflow:visible;"/>
	</clipPath>
	<path style="opacity:0.5;clip-path:url(#SVGID_2_);fill-rule:evenodd;clip-rule:evenodd;fill:#47475E;" d="M39,6v34H0v-9
		c0,0,3.8-0.7,6.2-0.1C6.7,31,7.1,31,7.5,31c2.2,0,4.1-1.3,5-3.2c0.9,1.9,2.8,3.2,5,3.2c3,0,5.5-2.5,5.5-5.5c0-1.1-0.3-2.2-0.9-3.1
		c0.7,0.4,1.6,0.6,2.4,0.6c3,0,5.5-2.5,5.5-5.5c0-1.1-0.3-2.2-0.9-3.1c0.7,0.4,1.6,0.6,2.4,0.6c3,0,5.5-2.5,5.5-5.5S39,6,39,6z"/>
</g>
<g style="opacity:0.5;">
	<path style="fill-rule:evenodd;clip-rule:evenodd;fill:#D993AD;" d="M18,5.5c0-3,2.5-5.5,5.5-5.5S29,2.5,29,5.5S26.5,11,23.5,11
		S18,8.5,18,5.5z M12.5,23c3,0,5.5-2.5,5.5-5.5S15.5,12,12.5,12S7,14.5,7,17.5S9.5,23,12.5,23z"/>
	<g style="opacity:0.3;">
		<path style="fill-rule:evenodd;clip-rule:evenodd;fill:#FFFFFF;" d="M18,5.5c0-3,2.5-5.5,5.5-5.5S29,2.5,29,5.5S26.5,11,23.5,11
			S18,8.5,18,5.5z M12.5,23c3,0,5.5-2.5,5.5-5.5S15.5,12,12.5,12S7,14.5,7,17.5S9.5,23,12.5,23z"/>
	</g>
</g>
</svg>
