<svg xmlns="http://www.w3.org/2000/svg" xmlns:xlink="http://www.w3.org/1999/xlink" width="76px" height="78px" viewBox="0 0 76 78" version="1.1"><title>Strawberry</title><g id="Page-1" stroke="none" stroke-width="1" fill="none" fill-rule="evenodd"><g id="Strawberry" transform="translate(36.500000, 40.500000) rotate(5.000000) translate(-36.500000, -40.500000) translate(-2.000000, 0.000000)"><g id="Leaf" transform="translate(30.000000, 0.000000)"><path d="M20.8024691 1.9C20.8024691 1.9 20.8024691 12.9 16.8024691 16.9 12.8024691 20.9 2.80246914 20.9 2.80246914 20.9 2.80246914 20.9 0.802469136 9.9 5.80246914 5.9 10.8024691 1.9 20.8024691 1.9 20.8024691 1.9Z" id="Leaf-3" fill="#7ED321" transform="translate(11.604938, 11.400000) rotate(-76.000000) translate(-11.604938, -11.400000) "/><path d="M42.529808 17.8326941C42.529808 17.8326941 42.529808 28.8326941 38.529808 32.8326941 34.529808 36.8326941 24.529808 36.8326941 24.529808 36.8326941 24.529808 36.8326941 22.529808 25.8326941 27.529808 21.8326941 32.529808 17.8326941 42.529808 17.8326941 42.529808 17.8326941Z" id="Leaf-2" fill="#7ED321" transform="translate(33.332277, 27.332694) rotate(46.000000) translate(-33.332277, -27.332694) "/><path d="M34 7.9C34 7.9 34 18.9 30 22.9 26 26.9 16 26.9 16 26.9 16 26.9 14 15.9 19 11.9 24 7.9 34 7.9 34 7.9Z" id="Leaf-1" fill="#689F38"/></g><path d="M51.6714286 23C51.6714286 23 70.9999999 38.0000018 63.9999999 50.0000018 56.9999999 62.0000018 19.5714286 89 7.57142857 73 -4.42857143 57 7.85714367 18 22.5714286 14 37.2857135 10 51.6714286 23 51.6714286 23Z" id="Body" fill="#FC4734" transform="translate(34.125320, 45.584927) rotate(-4.000000) translate(-34.125320, -45.584927) "/><g id="Seeds" transform="translate(33.207352, 44.676108) rotate(-11.000000) translate(-33.207352, -44.676108) translate(10.707352, 22.676108)"><g id="Bottom" transform="translate(0.519992, 33.123882)"><path d="M5.5 9C7.98528137 9 10 6.98528137 10 4.5 10 2.01471863 7.98528137 2.84217094e-14 5.5 2.84217094e-14 3.01471863 2.84217094e-14 1 2.01471863 1 4.5 1 6.98528137 3.01471863 9 5.5 9Z" id="Oval-1" fill="#DE0000"/><path d="M5.87437958 7.1877514C6.79409244 7.1877514 7.53966702 6.44217682 7.53966702 5.52246396 7.53966702 4.60275111 6.79409244 3.85717653 5.87437958 3.85717653 4.95466673 3.85717653 1.50526091 4.60275107 1.50526091 5.52246392 1.50526091 6.44217677 4.95466673 7.1877514 5.87437958 7.1877514Z" id="Oval-1" fill="#F1C40F" transform="translate(4.522464, 5.522464) rotate(-45.000000) translate(-4.522464, -5.522464) "/></g><g id="Middle" transform="translate(4.853839, 15.941828)"><g id="Seed-Copy-4" transform="translate(0.746314, 0.534905)"><path d="M4.5 9C6.98528137 9 9 6.98528137 9 4.5 9 2.01471863 6.98528137 7.10542736e-15 4.5 7.10542736e-15 2.01471863 7.10542736e-15 0 2.01471863 0 4.5 0 6.98528137 2.01471863 9 4.5 9Z" id="Oval-1" fill="#DE0000"/><path d="M4.87437958 7.1877514C5.79409244 7.1877514 6.53966702 6.44217682 6.53966702 5.52246396 6.53966702 4.60275111 5.79409244 3.85717653 4.87437958 3.85717653 3.95466673 3.85717653 0.505260907 4.60275107 0.505260907 5.52246392 0.505260907 6.44217677 3.95466673 7.1877514 4.87437958 7.1877514Z" id="Oval-1" fill="#F1C40F" transform="translate(3.522464, 5.522464) rotate(-45.000000) translate(-3.522464, -5.522464) "/></g><g id="Seed-Copy-3" transform="translate(13.569810, 11.000609)"><path d="M4.5 9C6.98528137 9 9 6.98528137 9 4.5 9 2.01471863 6.98528137 0 4.5 0 2.01471863 0 0 2.01471863 0 4.5 0 6.98528137 2.01471863 9 4.5 9Z" id="Oval-1" fill="#DE0000"/><path d="M4.87437958 7.1877514C5.79409244 7.1877514 6.53966702 6.44217682 6.53966702 5.52246396 6.53966702 4.60275111 5.79409244 3.85717653 4.87437958 3.85717653 3.95466673 3.85717653 0.505260907 4.60275107 0.505260907 5.52246392 0.505260907 6.44217677 3.95466673 7.1877514 4.87437958 7.1877514Z" id="Oval-1" fill="#F1C40F" transform="translate(3.522464, 5.522464) rotate(-45.000000) translate(-3.522464, -5.522464) "/></g></g><g id="Up" transform="translate(10.000000, 0.000000)"><g id="Seed" transform="translate(1.000000, 0.000000)"><path d="M4.5 9C6.98528137 9 9 6.98528137 9 4.5 9 2.01471863 6.98528137 0 4.5 0 2.01471863 0 0 2.01471863 0 4.5 0 6.98528137 2.01471863 9 4.5 9Z" id="Oval-1" fill="#DE0000"/><path d="M4.87437958 7.1877514C5.79409244 7.1877514 6.53966702 6.44217682 6.53966702 5.52246396 6.53966702 4.60275111 5.79409244 3.85717653 4.87437958 3.85717653 3.95466673 3.85717653 0.505260907 4.60275107 0.505260907 5.52246392 0.505260907 6.44217677 3.95466673 7.1877514 4.87437958 7.1877514Z" id="Oval-1" fill="#F1C40F" transform="translate(3.522464, 5.522464) rotate(-45.000000) translate(-3.522464, -5.522464) "/></g><g id="Seed-Copy" transform="translate(13.000000, 10.000000)"><path d="M4.5 9C6.98528137 9 9 6.98528137 9 4.5 9 2.01471863 6.98528137 0 4.5 0 2.01471863 0 0 2.01471863 0 4.5 0 6.98528137 2.01471863 9 4.5 9Z" id="Oval-1" fill="#DE0000"/><path d="M4.87437958 7.1877514C5.79409244 7.1877514 6.53966702 6.44217682 6.53966702 5.52246396 6.53966702 4.60275111 5.79409244 3.85717653 4.87437958 3.85717653 3.95466673 3.85717653 0.505260907 4.60275107 0.505260907 5.52246392 0.505260907 6.44217677 3.95466673 7.1877514 4.87437958 7.1877514Z" id="Oval-1" fill="#F1C40F" transform="translate(3.522464, 5.522464) rotate(-45.000000) translate(-3.522464, -5.522464) "/></g><g id="Seed-Copy-2" transform="translate(25.000000, 20.000000)"><path d="M4.5 9C6.98528137 9 9 6.98528137 9 4.5 9 2.01471863 6.98528137 0 4.5 0 2.01471863 0 0 2.01471863 0 4.5 0 6.98528137 2.01471863 9 4.5 9Z" id="Oval-1" fill="#DE0000"/><path d="M4.87437958 7.1877514C5.79409244 7.1877514 6.53966702 6.44217682 6.53966702 5.52246396 6.53966702 4.60275111 5.79409244 3.85717653 4.87437958 3.85717653 3.95466673 3.85717653 0.505260907 4.60275107 0.505260907 5.52246392 0.505260907 6.44217677 3.95466673 7.1877514 4.87437958 7.1877514Z" id="Oval-1" fill="#F1C40F" transform="translate(3.522464, 5.522464) rotate(-45.000000) translate(-3.522464, -5.522464) "/></g></g></g></g></g></svg>