<?xml version="1.0" encoding="utf-8"?>
<!-- Generator: Adobe Illustrator 19.0.0, SVG Export Plug-In . SVG Version: 6.00 Build 0)  -->
<svg version="1.1" id="Layer_1" xmlns="http://www.w3.org/2000/svg" xmlns:xlink="http://www.w3.org/1999/xlink" x="0px" y="0px"
	 width="42px" height="42px" viewBox="0 0 42 42" style="enable-background:new 0 0 42 42;" xml:space="preserve">
<polygon style="fill:#80B34F;" points="23,7.5 21,0 19,7.5 9.5,2 21,22 32.5,2 "/>
<g>
	<defs>
		<path id="SVGID_1_" d="M29,9c-2.7,0-5.8,1.1-8,2.3C18.8,10.1,15.7,9,13,9C6.5,9,0,13.7,0,24c0,10.3,7.9,18,21,18
			c13.1,0,21-7.7,21-18C42,13.7,35.3,9,29,9z"/>
	</defs>
	<use xlink:href="#SVGID_1_"  style="overflow:visible;fill:#DE7047;"/>
	<clipPath id="SVGID_2_">
		<use xlink:href="#SVGID_1_"  style="overflow:visible;"/>
	</clipPath>
	<rect x="21" y="9" style="clip-path:url(#SVGID_2_);fill:#C7441C;fill-opacity:0.3;" width="21" height="33"/>
</g>
<g>
	<path style="fill:#C7441C;" d="M13.4,24c0-4.3,2.2-6.6,4.4-7.9C16.5,14.6,14.7,14,13,14c-5.4,0-8,5.4-8,10c0,4.3,1.8,7.8,5,10
		c1,0.7,3.2,1.7,5.1,1.3c1.4-0.3,2.4-1.3,3.3-3.5C15.4,30.1,13.4,27.2,13.4,24z"/>
</g>
<g>
	<path style="fill:#C7441C;" d="M28.6,24c0-4.3-2.2-6.6-4.4-7.9c1.3-1.5,3.1-2.1,4.8-2.1c5.4,0,8,5.4,8,10c0,4.3-1.8,7.8-5,10
		c-1,0.7-3.2,1.7-5.1,1.3c-1.4-0.3-2.4-1.3-3.3-3.5C26.6,30.1,28.6,27.2,28.6,24z"/>
</g>
<path style="opacity:0.7;fill:#E9BF54;" d="M31.6,29c-0.3,0-2.6,0-2.6,0s1.2,2,1.3,2.3c0.3,0.4,0.7,0.7,1.3,0.7
	c0.8,0,1.5-0.7,1.5-1.5C33.1,29.7,32.4,29,31.6,29z M33.1,18.5c0-0.8-0.7-1.5-1.5-1.5c-0.6,0-1,0.3-1.3,0.7C30.2,18,29,20,29,20
	s2.3,0,2.6,0C32.4,20,33.1,19.3,33.1,18.5z M32.8,23.2c-0.3,0.2-2.3,1.3-2.3,1.3s2,1.2,2.3,1.3c0.4,0.3,1,0.3,1.5,0
	c0.7-0.4,1-1.3,0.5-2C34.4,23,33.5,22.8,32.8,23.2z M8.9,30.5c0,0.8,0.7,1.5,1.5,1.5c0.6,0,1-0.3,1.3-0.7C11.8,31,13,29,13,29
	s-2.3,0-2.6,0C9.6,29,8.9,29.7,8.9,30.5z M10.4,20c0.3,0,2.6,0,2.6,0s-1.2-2-1.3-2.3C11.4,17.3,11,17,10.4,17
	c-0.8,0-1.5,0.7-1.5,1.5C8.9,19.3,9.6,20,10.4,20z M7.2,23.8c-0.4,0.7-0.2,1.6,0.5,2c0.5,0.3,1,0.3,1.5,0c0.2-0.1,2.3-1.3,2.3-1.3
	s-2-1.1-2.3-1.3C8.5,22.8,7.6,23,7.2,23.8z"/>
</svg>
