<svg width="200" height="200" viewBox="0 0 200 200" xmlns="http://www.w3.org/2000/svg"><title>Twitter</title><path d="M100 0C44.772 0 0 44.772 0 100s44.772 100 100 100 100-44.772 100-100S155.228 0 100 0zm29.748 46.48c4.834.94 10.75 3.638 13.366 6.177l2.127 2.018 4.142-1.068c2.313-.6 5.852-1.813 7.926-2.733 2.075-.92 3.967-1.6 4.14-1.425.724.725-3.458 6.634-7.096 9.975l-3.902 3.564 3.43-.476c1.918-.254 5.253-1.064 7.335-1.782 2.256-.78 3.785-1.018 3.785-.593 0 .39-2.744 3.385-6.034 6.65l-5.912 5.936-.473 6.768c-1.46 20.883-9.03 37.995-23.067 52.254-11.026 11.203-23.744 18.013-38.916 20.9-6.892 1.316-19.403 1.75-25.315.95-7.245-.975-16.246-3.704-23.658-7.242L35 143.15l6.98-.477c8.32-.524 14.062-1.91 20.7-4.985 4.907-2.273 11.39-6.26 10.884-6.77-.15-.15-2.06-.664-4.258-1.067-7.874-1.447-15.217-6.714-18.927-13.775l-1.776-3.443 5.443-.357c5.46-.342 7.427-.958 5.088-1.664-7.07-2.128-14.184-8.022-17.39-14.368-1.29-2.558-3.194-9.463-3.194-11.637 0-.13.655.183 1.42.593 1.48.795 10.273 2.748 10.648 2.375.12-.12-1.526-1.957-3.55-4.035-2.022-2.08-4.5-5.553-5.56-7.72-1.742-3.567-1.89-4.593-1.894-11.042-.004-5.477.288-7.886 1.302-10.45L42.218 51l2.722 3.085C57.36 68.067 75.502 77.18 95.33 79.38l3.784.357-.234-5.343c-.265-6.51.957-11.157 4.258-16.15 5.042-7.64 14.217-12.44 22.942-12.238 1.246.03 2.453.24 3.668.475z" fill="#55ACEE" fill-rule="evenodd"/></svg>